<?xml version="1.0" encoding="UTF-8" standalone="no"?>
<!-- Created with Inkscape (http://www.inkscape.org/) -->

<svg
   xmlns:dc="http://purl.org/dc/elements/1.1/"
   xmlns:cc="http://creativecommons.org/ns#"
   xmlns:rdf="http://www.w3.org/1999/02/22-rdf-syntax-ns#"
   xmlns:svg="http://www.w3.org/2000/svg"
   xmlns="http://www.w3.org/2000/svg"
   xmlns:xlink="http://www.w3.org/1999/xlink"
   xmlns:sodipodi="http://sodipodi.sourceforge.net/DTD/sodipodi-0.dtd"
   xmlns:inkscape="http://www.inkscape.org/namespaces/inkscape"
   width="210mm"
   height="297mm"
   viewBox="0 0 210 297"
   version="1.1"
   id="svg8"
   inkscape:version="0.92.3 (2405546, 2018-03-11)"
   sodipodi:docname="1_ne_face.svg"
   inkscape:export-filename="/home/bcrowell/photo_topos/1_ne_face.png"
   inkscape:export-xdpi="300.05301"
   inkscape:export-ydpi="300.05301">
  <defs
     id="defs2" />
  <sodipodi:namedview
     id="base"
     pagecolor="#ffffff"
     bordercolor="#666666"
     borderopacity="1.0"
     inkscape:pageopacity="0.0"
     inkscape:pageshadow="2"
     inkscape:zoom="1.3979477"
     inkscape:cx="359.77278"
     inkscape:cy="886.98285"
     inkscape:document-units="mm"
     inkscape:current-layer="layer1"
     showgrid="false"
     inkscape:window-width="1280"
     inkscape:window-height="996"
     inkscape:window-x="0"
     inkscape:window-y="0"
     inkscape:window-maximized="1"
     inkscape:snap-global="true" />
  <metadata
     id="metadata5">
    <rdf:RDF>
      <cc:Work
         rdf:about="">
        <dc:format>image/svg+xml</dc:format>
        <dc:type
           rdf:resource="http://purl.org/dc/dcmitype/StillImage" />
        <dc:title />
      </cc:Work>
    </rdf:RDF>
  </metadata>
  <g
     inkscape:label="Layer 1"
     inkscape:groupmode="layer"
     id="layer1">
    <image
       sodipodi:absref="/home/bcrowell/photo_topos/1_ne_face_bitmap.jpg"
       xlink:href="1_ne_face_bitmap.jpg"
       width="92.00676"
       height="181.26794"
       preserveAspectRatio="none"
       id="image893"
       x="12.751874"
       y="16.063784" />
    <path
       style="opacity:1;vector-effect:none;fill:none;fill-opacity:1;stroke:#ffffff;stroke-width:1.05833333;stroke-linecap:butt;stroke-linejoin:miter;stroke-miterlimit:4;stroke-dasharray:none;stroke-dashoffset:0;stroke-opacity:1"
       d="m 14.331903,163.29383 3.058638,-4.80643 -2.5343,-4.36949 2.097352,-10.04981 2.35952,0.43695 6.554224,-17.04098 h 2.097351 l 2.184741,-7.16595 -1.747792,-5.15599 1.310846,-8.30202 4.806431,-9.700251 -5.50555,-6.729005 0.34956,-3.582974 3.670366,-7.690289 0.262167,-0.34956"
       id="path981"
       inkscape:connector-curvature="0" />
    <path
       style="opacity:1;vector-effect:none;fill:none;fill-opacity:1;stroke:#000000;stroke-width:1.05833333;stroke-linecap:butt;stroke-linejoin:miter;stroke-miterlimit:4;stroke-dasharray:2.11666667,2.11666667;stroke-dashoffset:0;stroke-opacity:1"
       d="m 14.331903,163.29384 3.058638,-4.80644 -2.5343,-4.36949 2.097352,-10.04981 2.35952,0.43695 6.554224,-17.04098 h 2.097351 l 2.184741,-7.16595 -1.747792,-5.15599 1.310846,-8.30202 4.806431,-9.700248 -5.50555,-6.729005 0.34956,-3.582973 3.670366,-7.69029 0.262167,-0.34956"
       id="path981-3"
       inkscape:connector-curvature="0" />
    <image
       sodipodi:absref="/home/bcrowell/photo_topos/1_ne_face_bitmap.jpg"
       xlink:href="1_ne_face_bitmap.jpg"
       y="16.063784"
       x="106.43188"
       id="image893-5"
       preserveAspectRatio="none"
       height="181.26794"
       width="92.00676" />
    <g
       id="g1843">
      <path
         sodipodi:nodetypes="cssccccsccscczssc"
         inkscape:connector-curvature="0"
         id="path1824"
         d="m 70.00124,196.01948 c -3.425592,-15.04282 -3.276653,-17.57477 -4.319225,-20.85143 -1.042572,-3.27665 -2.829838,-10.42572 -3.72347,-14.74494 -0.893633,-4.31923 -3.425592,-19.80886 -3.425592,-19.80886 l -0.08277,-1.32443 c 0,0 -0.631894,-1.63239 -1.000499,-2.26428 -0.368604,-0.6319 -0.526578,-2.3696 -0.526578,-2.3696 0,0 -1.263788,-5.68705 -1.632392,-6.63489 -0.368605,-0.94784 -2.000998,-4.94983 -2.000998,-4.94983 v 0 c 0,0 -0.157974,-9.05715 -0.315948,-11.32144 -0.157973,-2.26428 -1.316445,-8.53056 -2.474917,-11.953322 L 43.564602,80.29403 v 0 c 0,0 -0.823774,-5.920189 0.05576,-9.510272 0.903426,-3.687617 -1.917494,-11.787977 -2.960065,-14.766754 -1.042571,-2.978776 -4.98945,-12.361921 -4.98945,-12.361921"
         style="opacity:1;vector-effect:none;fill:none;fill-opacity:1;stroke:#000000;stroke-width:1.05833328;stroke-linecap:butt;stroke-linejoin:miter;stroke-miterlimit:4;stroke-dasharray:none;stroke-dashoffset:0;stroke-opacity:1" />
      <path
         sodipodi:nodetypes="cssccccsccscczssc"
         inkscape:connector-curvature="0"
         id="path1824-6"
         d="m 70.00124,196.01948 c -3.425592,-15.04282 -3.276653,-17.57477 -4.319225,-20.85143 -1.042572,-3.27665 -2.829838,-10.42572 -3.723468,-14.74494 -0.893634,-4.31923 -3.425593,-19.80885 -3.425593,-19.80885 l -0.08277,-1.32443 c 0,0 -0.631894,-1.6324 -1.000499,-2.26428 -0.368604,-0.6319 -0.526578,-2.3696 -0.526578,-2.3696 0,0 -1.263788,-5.68705 -1.632392,-6.63489 -0.368605,-0.94784 -2.000998,-4.94983 -2.000998,-4.94983 v 0 c 0,0 -0.157974,-9.05715 -0.315948,-11.32144 -0.157973,-2.26428 -1.316445,-8.53057 -2.474917,-11.95333 l -6.93425,-19.502428 v 0 c 0,0 -0.823774,-5.92019 0.05576,-9.510271 0.903426,-3.687618 -1.917494,-11.787978 -2.960065,-14.766755 -1.042571,-2.978776 -4.98945,-12.361921 -4.98945,-12.361921"
         style="opacity:1;vector-effect:none;fill:none;fill-opacity:1;stroke:#ffffff;stroke-width:1.05833328;stroke-linecap:butt;stroke-linejoin:miter;stroke-miterlimit:4;stroke-dasharray:2.11666654, 2.11666654;stroke-dashoffset:0;stroke-opacity:1" />
    </g>
    <g
       id="g1864">
      <path
         inkscape:connector-curvature="0"
         id="path1845"
         d="m 45.550243,196.86176 c 0.361511,-22.1726 1.205034,-33.86142 1.205034,-41.45313 0,-7.5917 0.723019,-20.96757 1.08453,-24.58267 0.361508,-3.6151 0.84352,-6.26617 1.92805,-6.50718 1.08453,-0.241 3.521858,-1.24755 3.521858,-1.24755 v 0"
         style="opacity:1;vector-effect:none;fill:none;fill-opacity:1;stroke:#000000;stroke-width:1.05833328;stroke-linecap:butt;stroke-linejoin:miter;stroke-miterlimit:4;stroke-dasharray:none;stroke-dashoffset:0;stroke-opacity:1" />
      <path
         inkscape:connector-curvature="0"
         id="path1845-2"
         d="m 45.550244,196.86175 c 0.361511,-22.1726 1.205034,-33.86142 1.205034,-41.45313 0,-7.5917 0.723019,-20.96757 1.08453,-24.58267 0.361508,-3.6151 0.84352,-6.26617 1.92805,-6.50718 1.08453,-0.241 3.521858,-1.24755 3.521858,-1.24755 v 0"
         style="opacity:1;vector-effect:none;fill:none;fill-opacity:1;stroke:#ffffff;stroke-width:1.05833328;stroke-linecap:butt;stroke-linejoin:miter;stroke-miterlimit:4;stroke-dasharray:2.11666667, 2.11666667;stroke-dashoffset:0;stroke-opacity:1" />
    </g>
    <text
       xml:space="preserve"
       style="font-style:normal;font-variant:normal;font-weight:normal;font-stretch:normal;font-size:3.52777767px;line-height:1.25;font-family:'Liberation Sans';-inkscape-font-specification:'Liberation Sans';font-variant-ligatures:normal;font-variant-position:normal;font-variant-caps:normal;font-variant-numeric:normal;font-variant-alternates:normal;font-feature-settings:normal;text-indent:0;text-align:start;text-decoration:none;text-decoration-line:none;text-decoration-style:solid;text-decoration-color:#000000;letter-spacing:0px;word-spacing:0px;text-transform:none;writing-mode:lr-tb;direction:ltr;text-orientation:mixed;dominant-baseline:auto;baseline-shift:baseline;text-anchor:start;white-space:normal;shape-padding:0;opacity:1;vector-effect:none;fill:#000000;fill-opacity:1;stroke:none;stroke-width:0.26458332;stroke-linecap:butt;stroke-linejoin:miter;stroke-miterlimit:4;stroke-dasharray:none;stroke-dashoffset:0;stroke-opacity:1"
       x="180.1459"
       y="86.792442"
       id="text1868"
       transform="rotate(60)"><tspan
         sodipodi:role="line"
         id="tspan1866"
         x="180.1459"
         y="86.792442"
         style="stroke-width:0.26458332">El Whampo</tspan></text>
    <text
       xml:space="preserve"
       style="font-style:normal;font-variant:normal;font-weight:normal;font-stretch:normal;font-size:3.52777767px;line-height:1.25;font-family:'Liberation Sans';-inkscape-font-specification:'Liberation Sans';font-variant-ligatures:normal;font-variant-position:normal;font-variant-caps:normal;font-variant-numeric:normal;font-variant-alternates:normal;font-feature-settings:normal;text-indent:0;text-align:start;text-decoration:none;text-decoration-line:none;text-decoration-style:solid;text-decoration-color:#000000;letter-spacing:0px;word-spacing:0px;text-transform:none;writing-mode:lr-tb;direction:ltr;text-orientation:mixed;dominant-baseline:auto;baseline-shift:baseline;text-anchor:start;white-space:normal;shape-padding:0;opacity:1;vector-effect:none;fill:#000000;fill-opacity:1;stroke:none;stroke-width:0.26458332;stroke-linecap:butt;stroke-linejoin:miter;stroke-miterlimit:4;stroke-dasharray:none;stroke-dashoffset:0;stroke-opacity:1"
       x="195.48799"
       y="59.9958"
       id="text1872"
       transform="rotate(60)"><tspan
         sodipodi:role="line"
         id="tspan1870"
         x="195.48799"
         y="59.9958"
         style="stroke-width:0.26458332">Northeas</tspan><tspan
         sodipodi:role="line"
         x="195.48799"
         y="64.405525"
         style="stroke-width:0.26458332"
         id="tspan1874">Face, East</tspan></text>
    <text
       xml:space="preserve"
       style="font-style:normal;font-variant:normal;font-weight:normal;font-stretch:normal;font-size:3.52777767px;line-height:1.25;font-family:'Liberation Sans';-inkscape-font-specification:'Liberation Sans';font-variant-ligatures:normal;font-variant-position:normal;font-variant-caps:normal;font-variant-numeric:normal;font-variant-alternates:normal;font-feature-settings:normal;text-indent:0;text-align:start;text-decoration:none;text-decoration-line:none;text-decoration-style:solid;text-decoration-color:#000000;letter-spacing:0px;word-spacing:0px;text-transform:none;writing-mode:lr-tb;direction:ltr;text-orientation:mixed;dominant-baseline:auto;baseline-shift:baseline;text-anchor:start;white-space:normal;shape-padding:0;opacity:1;vector-effect:none;fill:#000000;fill-opacity:1;stroke:none;stroke-width:0.26458332;stroke-linecap:butt;stroke-linejoin:miter;stroke-miterlimit:4;stroke-dasharray:none;stroke-dashoffset:0;stroke-opacity:1"
       x="208.53537"
       y="38.046684"
       id="text1878"
       transform="rotate(60)"><tspan
         sodipodi:role="line"
         id="tspan1876"
         x="208.53537"
         y="38.046684"
         style="stroke-width:0.26458332">Northeaat</tspan><tspan
         sodipodi:role="line"
         x="208.53537"
         y="42.456406"
         style="stroke-width:0.26458332"
         id="tspan1880">Face, West</tspan></text>
    <g
       id="g847">
      <path
         sodipodi:nodetypes="ccccccccccccccccccccccc"
         inkscape:connector-curvature="0"
         id="path1435"
         d="m 93.180931,196.92384 -4.169109,-5.93784 -3.731126,-8.80491 1.343618,-1.16039 -1.954355,-6.29058 -4.219178,-3.03081 -0.529085,-3.82331 1.859692,-1.47493 -0.416828,-1.73144 -2.038951,-0.4768 -2.193456,0.60506 -2.917792,-4.39273 -2.789538,-8.27242 1.346674,-1.82763 -1.735228,-7.90869 -3.728779,-9.30955 0.795355,-2.16679 -5.394004,-14.83792 -4.136402,-10.25603 -1.277608,-4.5699 0.766756,-6.053587 0.63395,-4.546611 -1.6103,-19.761956"
         style="opacity:1;vector-effect:none;fill:none;fill-opacity:1;stroke:#000000;stroke-width:1.05833328;stroke-linecap:butt;stroke-linejoin:miter;stroke-miterlimit:4;stroke-dasharray:none;stroke-dashoffset:0;stroke-opacity:1" />
      <path
         sodipodi:nodetypes="ccccccccccccccccccccccc"
         inkscape:connector-curvature="0"
         id="path1435-9"
         d="m 93.180932,196.92384 -4.16911,-5.93784 -3.731126,-8.8049 1.343617,-1.16039 -1.954355,-6.29058 -4.219178,-3.03081 -0.529085,-3.82331 1.859692,-1.47493 -0.416828,-1.73144 -2.038951,-0.4768 -2.193456,0.60506 -2.917792,-4.39274 -2.789538,-8.27241 1.346674,-1.82763 -1.735228,-7.90869 -3.728779,-9.30955 0.795355,-2.16679 -5.394002,-14.83792 -4.1364,-10.25603 -1.277607,-4.5699 0.766755,-6.053591 0.63395,-4.546611 -1.610303,-19.761962"
         style="opacity:1;vector-effect:none;fill:none;fill-opacity:1;stroke:#ffffff;stroke-width:1.05833328;stroke-linecap:butt;stroke-linejoin:miter;stroke-miterlimit:4;stroke-dasharray:2.11666654, 2.11666654;stroke-dashoffset:0;stroke-opacity:1" />
    </g>
    <text
       xml:space="preserve"
       style="font-style:normal;font-variant:normal;font-weight:normal;font-stretch:normal;font-size:3.52777767px;line-height:1.25;font-family:'Liberation Sans';-inkscape-font-specification:'Liberation Sans';font-variant-ligatures:normal;font-variant-position:normal;font-variant-caps:normal;font-variant-numeric:normal;font-variant-alternates:normal;font-feature-settings:normal;text-indent:0;text-align:start;text-decoration:none;text-decoration-line:none;text-decoration-style:solid;text-decoration-color:#000000;letter-spacing:0px;word-spacing:0px;text-transform:none;writing-mode:lr-tb;direction:ltr;text-orientation:mixed;dominant-baseline:auto;baseline-shift:baseline;text-anchor:start;white-space:normal;shape-padding:0;opacity:1;vector-effect:none;fill:#000000;fill-opacity:1;stroke:none;stroke-width:0.26458332;stroke-linecap:butt;stroke-linejoin:miter;stroke-miterlimit:4;stroke-dasharray:none;stroke-dashoffset:0;stroke-opacity:1"
       x="219.30429"
       y="19.343872"
       id="text1955"
       transform="rotate(60)"><tspan
         sodipodi:role="line"
         id="tspan1953"
         x="219.30429"
         y="19.343872"
         style="stroke-width:0.26458332">East Lark</tspan></text>
    <g
       id="g2935"
       transform="translate(-3.6666667e-8,170.68258)">
      <path
         sodipodi:nodetypes="ccczczcccc"
         inkscape:connector-curvature="0"
         id="path2158"
         d="m 100.65751,26.600761 -7.520392,-23.9495404 3.123854,-1.38838 c 0,0 -4.666498,-10.48997 -6.594803,-15.8506596 -1.928305,-5.36069 -4.975027,-16.31346 -4.975027,-16.31346 0,0 -5.399253,-12.76538 -7.751785,-19.205922 -2.352531,-6.44054 -6.363405,-19.43731 -6.363405,-19.43731 l -17.123346,-41.651379 -5.553517,-18.97452 -4.165139,-5.09073"
         style="opacity:1;vector-effect:none;fill:none;fill-opacity:1;stroke:#000000;stroke-width:1.05833328;stroke-linecap:butt;stroke-linejoin:miter;stroke-miterlimit:4;stroke-dasharray:none;stroke-dashoffset:0;stroke-opacity:1" />
      <path
         sodipodi:nodetypes="ccczczcccc"
         inkscape:connector-curvature="0"
         id="path2158-2"
         d="m 100.65751,26.600751 -7.520391,-23.9495304 3.123853,-1.38838 c 0,0 -4.666496,-10.48997 -6.594803,-15.8506696 -1.928305,-5.36069 -4.975027,-16.31345 -4.975027,-16.31345 0,0 -5.399251,-12.76539 -7.751783,-19.205933 -2.352533,-6.44054 -6.363407,-19.43731 -6.363407,-19.43731 l -17.123346,-41.651378 -5.553517,-18.97452 -4.165139,-5.09073"
         style="opacity:1;vector-effect:none;fill:none;fill-opacity:1;stroke:#fafafa;stroke-width:1.05833328;stroke-linecap:butt;stroke-linejoin:miter;stroke-miterlimit:4;stroke-dasharray:2.11666667, 2.11666667;stroke-dashoffset:0;stroke-opacity:1" />
    </g>
    <text
       xml:space="preserve"
       style="font-style:normal;font-variant:normal;font-weight:normal;font-stretch:normal;font-size:3.52777767px;line-height:1.25;font-family:'Liberation Sans';-inkscape-font-specification:'Liberation Sans';font-variant-ligatures:normal;font-variant-position:normal;font-variant-caps:normal;font-variant-numeric:normal;font-variant-alternates:normal;font-feature-settings:normal;text-indent:0;text-align:start;text-decoration:none;text-decoration-line:none;text-decoration-style:solid;text-decoration-color:#000000;letter-spacing:0px;word-spacing:0px;text-transform:none;writing-mode:lr-tb;direction:ltr;text-orientation:mixed;dominant-baseline:auto;baseline-shift:baseline;text-anchor:start;white-space:normal;shape-padding:0;opacity:1;vector-effect:none;fill:#000000;fill-opacity:1;stroke:none;stroke-width:0.26458332;stroke-linecap:butt;stroke-linejoin:miter;stroke-miterlimit:4;stroke-dasharray:none;stroke-dashoffset:0;stroke-opacity:1"
       x="222.17"
       y="12.58501"
       id="text2939"
       transform="rotate(60)"><tspan
         sodipodi:role="line"
         id="tspan2937"
         x="222.17"
         y="12.58501"
         style="stroke-width:0.26458332">West Lark</tspan></text>
    <g
       id="g862">
      <path
         inkscape:connector-curvature="0"
         id="path843"
         d="M 104.66275,122.87801 98.569834,114.61872 85.977808,79.009017 81.57737,72.002165 77.583126,64.927613 75.010561,59.071644 c 0,0 -2.911059,-6.803755 -3.486501,-7.548445 -0.575442,-0.74469 -4.061944,-0.676991 -4.671236,-1.42168 -0.609291,-0.74469 -3.520351,-6.397562 -3.520351,-6.397562 l -2.843361,-7.108401 c 0,0 0.676991,-2.877211 0.406195,-3.689599 -0.270796,-0.812389 -2.403317,-2.504866 -2.403317,-2.504866 l -4.061944,-2.13252"
         style="opacity:1;vector-effect:none;fill:none;fill-opacity:1;stroke:#000000;stroke-width:1.05833333;stroke-linecap:butt;stroke-linejoin:miter;stroke-miterlimit:4;stroke-dasharray:none;stroke-dashoffset:0;stroke-opacity:1" />
      <path
         inkscape:connector-curvature="0"
         id="path843-3"
         d="m 104.66275,122.87801 -6.092912,-8.25929 -12.59203,-35.609703 -4.400437,-7.006852 -3.994244,-7.074551 -2.572565,-5.85597 c 0,0 -2.911059,-6.803755 -3.486501,-7.548445 -0.575442,-0.74469 -4.061944,-0.676991 -4.671236,-1.42168 -0.609291,-0.74469 -3.520351,-6.397562 -3.520351,-6.397562 l -2.843361,-7.108401 c 0,0 0.676991,-2.877211 0.406195,-3.689599 -0.270796,-0.812389 -2.403317,-2.504866 -2.403317,-2.504866 l -4.061944,-2.13252"
         style="opacity:1;vector-effect:none;fill:none;fill-opacity:1;stroke:#ffffff;stroke-width:1.05833328;stroke-linecap:butt;stroke-linejoin:miter;stroke-miterlimit:4;stroke-dasharray:2.11666667, 2.11666667;stroke-dashoffset:0;stroke-opacity:1" />
    </g>
    <g
       id="g908"
       transform="rotate(4.5186368,-1406.1788,159.21582)">
      <rect
         transform="rotate(65.961817)"
         y="-82.187943"
         x="1.7672676"
         height="2.8627694"
         width="24.689024"
         id="rect895"
         style="fill:#ffffff;fill-opacity:1;stroke:none;stroke-width:0.65982956;stroke-miterlimit:4;stroke-dasharray:1.31965905, 1.31965905;stroke-dashoffset:0;stroke-opacity:1" />
      <text
         transform="rotate(65.961817)"
         id="text893"
         y="-79.495659"
         x="2.2227578"
         style="font-style:normal;font-variant:normal;font-weight:normal;font-stretch:normal;font-size:3.52777767px;line-height:1.25;font-family:'Liberation Sans';-inkscape-font-specification:'Liberation Sans';font-variant-ligatures:normal;font-variant-position:normal;font-variant-caps:normal;font-variant-numeric:normal;font-variant-alternates:normal;font-feature-settings:normal;text-indent:0;text-align:start;text-decoration:none;text-decoration-line:none;text-decoration-style:solid;text-decoration-color:#000000;letter-spacing:0px;word-spacing:0px;text-transform:none;writing-mode:lr-tb;direction:ltr;text-orientation:mixed;dominant-baseline:auto;baseline-shift:baseline;text-anchor:start;white-space:normal;shape-padding:0;opacity:1;vector-effect:none;fill:#000000;fill-opacity:1;stroke:none;stroke-width:0.26458332;stroke-linecap:butt;stroke-linejoin:miter;stroke-miterlimit:4;stroke-dasharray:none;stroke-dashoffset:0;stroke-opacity:1"
         xml:space="preserve"><tspan
           style="stroke-width:0.26458332"
           y="-79.495659"
           x="2.2227578"
           id="tspan891"
           sodipodi:role="line">The Uneventful</tspan></text>
    </g>
    <g
       id="g869">
      <path
         sodipodi:nodetypes="ccccc"
         inkscape:connector-curvature="0"
         id="path864"
         d="m 85.977806,79.009017 5.127238,-0.390656 4.843339,-8.95492 3.087639,-13.174731 1.606458,-2.246788"
         style="opacity:1;vector-effect:none;fill:none;fill-opacity:1;stroke:#000000;stroke-width:1.05833328;stroke-linecap:butt;stroke-linejoin:miter;stroke-miterlimit:4;stroke-dasharray:none;stroke-dashoffset:0;stroke-opacity:1" />
      <path
         sodipodi:nodetypes="ccccc"
         inkscape:connector-curvature="0"
         id="path864-3"
         d="m 85.977806,79.009017 5.127238,-0.390656 4.843339,-8.95492 3.087639,-13.174731 1.606458,-2.246787"
         style="opacity:1;vector-effect:none;fill:none;fill-opacity:1;stroke:#fefefe;stroke-width:1.05799997;stroke-linecap:butt;stroke-linejoin:miter;stroke-miterlimit:4;stroke-dasharray:2.116, 2.116;stroke-dashoffset:0;stroke-opacity:1" />
    </g>
  </g>
</svg>
