<?xml version="1.0" encoding="UTF-8" standalone="no"?>
<!-- Created with Inkscape (http://www.inkscape.org/) -->

<svg
   xmlns:dc="http://purl.org/dc/elements/1.1/"
   xmlns:cc="http://creativecommons.org/ns#"
   xmlns:rdf="http://www.w3.org/1999/02/22-rdf-syntax-ns#"
   xmlns:svg="http://www.w3.org/2000/svg"
   xmlns="http://www.w3.org/2000/svg"
   xmlns:xlink="http://www.w3.org/1999/xlink"
   xmlns:sodipodi="http://sodipodi.sourceforge.net/DTD/sodipodi-0.dtd"
   xmlns:inkscape="http://www.inkscape.org/namespaces/inkscape"
   width="210mm"
   height="297mm"
   viewBox="0 0 210 297"
   version="1.1"
   id="svg8"
   inkscape:version="0.92.5 (2060ec1f9f, 2020-04-08)"
   sodipodi:docname="2_nw.svg"
   inkscape:export-filename="/home/bcrowell/Documents/tahquitz/figs/2_nw.png"
   inkscape:export-xdpi="300"
   inkscape:export-ydpi="300">
  <defs
     id="defs2" />
  <sodipodi:namedview
     id="base"
     pagecolor="#ffffff"
     bordercolor="#666666"
     borderopacity="1.0"
     inkscape:pageopacity="0.0"
     inkscape:pageshadow="2"
     inkscape:zoom="0.8720774"
     inkscape:cx="447.78135"
     inkscape:cy="552.93257"
     inkscape:document-units="mm"
     inkscape:current-layer="layer1"
     showgrid="false"
     inkscape:snap-global="true"
     inkscape:window-width="1280"
     inkscape:window-height="998"
     inkscape:window-x="0"
     inkscape:window-y="0"
     inkscape:window-maximized="1" />
  <metadata
     id="metadata5">
    <rdf:RDF>
      <cc:Work
         rdf:about="">
        <dc:format>image/svg+xml</dc:format>
        <dc:type
           rdf:resource="http://purl.org/dc/dcmitype/StillImage" />
        <dc:title />
      </cc:Work>
    </rdf:RDF>
  </metadata>
  <g
     inkscape:label="Layer 1"
     inkscape:groupmode="layer"
     id="layer1">
    <image
       sodipodi:absref="/home/bcrowell/Documents/tahquitz/figs/2_nw_bitmap.jpg"
       xlink:href="2_nw_bitmap.jpg"
       y="10.288945"
       x="8.1609468"
       id="image901"
       preserveAspectRatio="none"
       height="104.53227"
       width="193.57828" />
    <image
       sodipodi:absref="/home/bcrowell/Documents/tahquitz/figs/2_nw_bitmap.jpg"
       xlink:href="2_nw_bitmap.jpg"
       y="118.0001"
       x="8.1609468"
       id="image901-3"
       preserveAspectRatio="none"
       height="104.53227"
       width="193.57828" />
    <g
       id="g837">
      <path
         sodipodi:nodetypes="ccsccccc"
         inkscape:connector-curvature="0"
         id="path818"
         d="m 21.27593,222.57894 3.307602,-11.8001 c 0,0 5.758023,-9.98685 6.326927,-11.63035 0.568904,-1.6435 2.84452,-6.63722 3.603059,-7.6486 0.758539,-1.01139 2.085982,-2.59168 2.212405,-3.28701 0.126424,-0.69532 0.632116,-2.59167 0.632116,-2.59167 l 7.048091,-12.86355 1.106202,-20.1961 c 0,0 0.436525,-3.42033 0.123643,-4.62716 -0.312881,-1.20683 -0.938644,-6.92809 -1.743196,-7.28566 -0.804552,-0.35758 -3.039418,0 -3.665181,-0.22349 -0.625763,-0.22349 -1.028038,-1.6985 -1.028038,-1.6985 l -2.503051,-5.14019 0.893947,-5.1402"
         style="opacity:1;vector-effect:none;fill:none;fill-opacity:1;stroke:#000000;stroke-width:1.05833333;stroke-linecap:butt;stroke-linejoin:miter;stroke-miterlimit:4;stroke-dasharray:none;stroke-dashoffset:0;stroke-opacity:1" />
      <path
         sodipodi:nodetypes="ccsccccc"
         inkscape:connector-curvature="0"
         id="path818-3"
         d="m 21.275929,222.57894 3.307602,-11.8001 c 0,0 5.758023,-9.98685 6.326928,-11.63035 0.568903,-1.6435 2.84452,-6.63722 3.603059,-7.6486 0.758539,-1.01139 2.085981,-2.59168 2.212404,-3.28701 0.126424,-0.69532 0.632116,-2.59167 0.632116,-2.59167 l 7.048092,-12.86355 1.106202,-20.1961 c 0,0 0.436525,-3.42033 0.123643,-4.62716 -0.312882,-1.20683 -0.938644,-6.92809 -1.743197,-7.28566 -0.804551,-0.35758 -3.039418,0 -3.66518,-0.22349 -0.625764,-0.22349 -1.028038,-1.6985 -1.028038,-1.6985 l -2.503052,-5.14019 0.893948,-5.1402"
         style="opacity:1;vector-effect:none;fill:none;fill-opacity:1;stroke:#fefefe;stroke-width:1.05833328;stroke-linecap:butt;stroke-linejoin:miter;stroke-miterlimit:4;stroke-dasharray:2.11666667, 2.11666667;stroke-dashoffset:0;stroke-opacity:1" />
    </g>
    <g
       id="g835">
      <path
         inkscape:connector-curvature="0"
         id="path839"
         d="m 45.638754,151.51857 5.499407,0.82175 6.921666,-7.64861 4.772476,-6.82684"
         style="opacity:1;vector-effect:none;fill:none;fill-opacity:1;stroke:#000000;stroke-width:1.05833333;stroke-linecap:butt;stroke-linejoin:miter;stroke-miterlimit:4;stroke-dasharray:none;stroke-dashoffset:0;stroke-opacity:1" />
      <path
         inkscape:connector-curvature="0"
         id="path839-3"
         d="m 45.638753,151.51857 5.499407,0.82175 6.921667,-7.64861 4.772476,-6.82684"
         style="opacity:1;vector-effect:none;fill:none;fill-opacity:1;stroke:#ffffff;stroke-width:1.05833328;stroke-linecap:butt;stroke-linejoin:miter;stroke-miterlimit:4;stroke-dasharray:2.11666667, 2.11666667;stroke-dashoffset:0;stroke-opacity:1" />
    </g>
    <text
       xml:space="preserve"
       style="font-style:normal;font-variant:normal;font-weight:normal;font-stretch:normal;font-size:3.52777767px;line-height:1.25;font-family:'Liberation Sans';-inkscape-font-specification:'Liberation Sans';font-variant-ligatures:normal;font-variant-position:normal;font-variant-caps:normal;font-variant-numeric:normal;font-variant-alternates:normal;font-feature-settings:normal;text-indent:0;text-align:start;text-decoration:none;text-decoration-line:none;text-decoration-style:solid;text-decoration-color:#000000;letter-spacing:0px;word-spacing:0px;text-transform:none;writing-mode:lr-tb;direction:ltr;text-orientation:mixed;dominant-baseline:auto;baseline-shift:baseline;text-anchor:start;white-space:normal;shape-padding:0;opacity:1;vector-effect:none;fill:#000000;fill-opacity:1;stroke:none;stroke-width:0.26458332;stroke-linecap:butt;stroke-linejoin:miter;stroke-miterlimit:4;stroke-dasharray:none;stroke-dashoffset:0;stroke-opacity:1"
       x="204.16377"
       y="94.722679"
       id="text822"
       transform="rotate(60)"><tspan
         sodipodi:role="line"
         id="tspan820"
         x="204.16377"
         y="94.722679"
         style="stroke-width:0.26458332">The Uneventful</tspan></text>
    <g
       id="g844">
      <path
         inkscape:connector-curvature="0"
         id="path825"
         d="m 79.293065,212.79023 -2.145471,-8.04553 -0.893948,-0.89394 -1.162129,-15.82286 2.056077,-1.07273 -0.08939,-1.16213 2.592446,-1.7879 -1.698498,-6.25762 -1.877291,-3.66519 -0.08939,-9.38643 -0.268182,-1.43032 -2.592446,-1.34092 -2.145472,-7.95612 0.17879,-2.32426 0.446971,-3.66519 -1.609103,-23.68958"
         style="opacity:1;vector-effect:none;fill:none;fill-opacity:1;stroke:#000000;stroke-width:1.05833333;stroke-linecap:butt;stroke-linejoin:miter;stroke-miterlimit:4;stroke-dasharray:none;stroke-dashoffset:0;stroke-opacity:1" />
      <path
         inkscape:connector-curvature="0"
         id="path825-3"
         d="m 79.293071,212.79023 -2.14547,-8.04553 -0.89395,-0.89394 -1.16213,-15.82286 2.05608,-1.07273 -0.0894,-1.16212 2.59245,-1.78791 -1.6985,-6.25762 -1.87729,-3.66519 -0.0894,-9.38643 -0.26818,-1.43032 -2.59245,-1.34092 -2.14547,-7.95612 0.17879,-2.32426 0.44697,-3.66519 -1.6091,-23.68958"
         style="opacity:1;vector-effect:none;fill:none;fill-opacity:1;stroke:#ffffff;stroke-width:1.05833328;stroke-linecap:butt;stroke-linejoin:miter;stroke-miterlimit:4;stroke-dasharray:2.11666667, 2.11666667;stroke-dashoffset:0;stroke-opacity:1" />
    </g>
    <text
       xml:space="preserve"
       style="font-style:normal;font-variant:normal;font-weight:normal;font-stretch:normal;font-size:3.52777767px;line-height:1.25;font-family:'Liberation Sans';-inkscape-font-specification:'Liberation Sans';font-variant-ligatures:normal;font-variant-position:normal;font-variant-caps:normal;font-variant-numeric:normal;font-variant-alternates:normal;font-feature-settings:normal;text-indent:0;text-align:start;text-decoration:none;text-decoration-line:none;text-decoration-style:solid;text-decoration-color:#000000;letter-spacing:0px;word-spacing:0px;text-transform:none;writing-mode:lr-tb;direction:ltr;text-orientation:mixed;dominant-baseline:auto;baseline-shift:baseline;text-anchor:start;white-space:normal;shape-padding:0;opacity:1;vector-effect:none;fill:#000000;fill-opacity:1;stroke:none;stroke-width:0.26458332;stroke-linecap:butt;stroke-linejoin:miter;stroke-miterlimit:4;stroke-dasharray:none;stroke-dashoffset:0;stroke-opacity:1"
       x="234.7126"
       y="41.706497"
       id="text848"
       transform="rotate(60)"><tspan
         sodipodi:role="line"
         id="tspan846"
         x="234.7126"
         y="41.706497"
         style="stroke-width:0.26458332">Sahara Terror</tspan></text>
    <g
       id="g869">
      <path
         inkscape:connector-curvature="0"
         id="path850"
         d="m 63.365982,222.12726 -0.394067,-6.54152 1.024575,-5.67456 c 0,0 1.576268,-0.86695 2.206776,-0.86695 0.630507,0 7.566085,1.97034 7.566085,1.97034 l -0.709321,-8.43304 0.709321,0.15763 -0.630507,-3.62542 -1.103387,-1.73389 -0.709321,-4.96525 -6.699139,0.94576 0.630507,-12.76777 v -4.64999 l -1.339828,-5.67456 -1.576268,-4.57118 -2.285589,-7.40846 c 0,0 -1.103388,-3.15254 -2.285589,-3.78305 -1.182201,-0.6305 -5.122871,-1.65508 -5.122871,-1.65508"
         style="opacity:1;vector-effect:none;fill:none;fill-opacity:1;stroke:#000000;stroke-width:1.05833333;stroke-linecap:butt;stroke-linejoin:miter;stroke-miterlimit:4;stroke-dasharray:none;stroke-dashoffset:0;stroke-opacity:1" />
      <path
         inkscape:connector-curvature="0"
         id="path850-6"
         d="m 63.365982,222.12726 -0.394067,-6.54152 1.024575,-5.67456 c 0,0 1.576265,-0.86695 2.206775,-0.86695 0.63051,0 7.56609,1.97034 7.56609,1.97034 l -0.70932,-8.43304 0.70932,0.15763 -0.63051,-3.62542 -1.10339,-1.73389 -0.70932,-4.96525 -6.69914,0.94576 0.63051,-12.76777 v -4.64999 l -1.339829,-5.67456 -1.576268,-4.57118 -2.285589,-7.40846 c 0,0 -1.103388,-3.15254 -2.285589,-3.78305 -1.182201,-0.6305 -5.122871,-1.65508 -5.122871,-1.65508"
         style="opacity:1;vector-effect:none;fill:none;fill-opacity:1;stroke:#ffffff;stroke-width:1.05833328;stroke-linecap:butt;stroke-linejoin:miter;stroke-miterlimit:4;stroke-dasharray:2.11666667, 2.11666667;stroke-dashoffset:0;stroke-opacity:1" />
    </g>
    <text
       xml:space="preserve"
       style="font-style:normal;font-variant:normal;font-weight:normal;font-stretch:normal;font-size:3.52777767px;line-height:1.25;font-family:'Liberation Sans';-inkscape-font-specification:'Liberation Sans';font-variant-ligatures:normal;font-variant-position:normal;font-variant-caps:normal;font-variant-numeric:normal;font-variant-alternates:normal;font-feature-settings:normal;text-indent:0;text-align:start;text-decoration:none;text-decoration-line:none;text-decoration-style:solid;text-decoration-color:#000000;letter-spacing:0px;word-spacing:0px;text-transform:none;writing-mode:lr-tb;direction:ltr;text-orientation:mixed;dominant-baseline:auto;baseline-shift:baseline;text-anchor:start;white-space:normal;shape-padding:0;opacity:1;vector-effect:none;fill:#000000;fill-opacity:1;stroke:none;stroke-width:0.26458332;stroke-linecap:butt;stroke-linejoin:miter;stroke-miterlimit:4;stroke-dasharray:none;stroke-dashoffset:0;stroke-opacity:1"
       x="225.64531"
       y="57.51556"
       id="text873"
       transform="rotate(60)"><tspan
         sodipodi:role="line"
         id="tspan871"
         x="225.64531"
         y="57.51556"
         style="stroke-width:0.26458332">The Error</tspan></text>
    <g
       id="g896">
      <path
         sodipodi:nodetypes="cccccccccccc"
         inkscape:connector-curvature="0"
         id="path877"
         d="m 95.679481,208.55145 -2.443218,-3.62542 -1.733894,-8.8271 0.866947,-7.56609 -2.046049,-7.84232 -5.047158,-21.45636 -0.630507,-4.57118 1.733894,-5.67457 -0.472879,-14.97455 1.103386,-1.73389 0.472882,-11.03388 -0.630507,-2.99491"
         style="opacity:1;vector-effect:none;fill:none;fill-opacity:1;stroke:#000000;stroke-width:1.05833333;stroke-linecap:butt;stroke-linejoin:miter;stroke-miterlimit:4;stroke-dasharray:none;stroke-dashoffset:0;stroke-opacity:1" />
      <path
         sodipodi:nodetypes="cccccccccccc"
         inkscape:connector-curvature="0"
         id="path877-7"
         d="m 95.679476,208.55145 -2.44321,-3.62542 -1.7339,-8.8271 0.86695,-7.56609 -2.04605,-7.84232 -5.04716,-21.45636 -0.6305,-4.57118 1.73389,-5.67457 -0.47288,-14.97455 1.10339,-1.73389 0.47288,-11.03388 -0.63051,-2.99491"
         style="opacity:1;vector-effect:none;fill:none;fill-opacity:1;stroke:#ffffff;stroke-width:1.05833328;stroke-linecap:butt;stroke-linejoin:miter;stroke-miterlimit:4;stroke-dasharray:2.11666654, 2.11666654;stroke-dashoffset:0;stroke-opacity:1" />
    </g>
    <text
       xml:space="preserve"
       style="font-style:normal;font-variant:normal;font-weight:normal;font-stretch:normal;font-size:3.52777767px;line-height:1.25;font-family:'Liberation Sans';-inkscape-font-specification:'Liberation Sans';font-variant-ligatures:normal;font-variant-position:normal;font-variant-caps:normal;font-variant-numeric:normal;font-variant-alternates:normal;font-feature-settings:normal;text-indent:0;text-align:start;text-decoration:none;text-decoration-line:none;text-decoration-style:solid;text-decoration-color:#000000;letter-spacing:0px;word-spacing:0px;text-transform:none;writing-mode:lr-tb;direction:ltr;text-orientation:mixed;dominant-baseline:auto;baseline-shift:baseline;text-anchor:start;white-space:normal;shape-padding:0;opacity:1;vector-effect:none;fill:#000000;fill-opacity:1;stroke:none;stroke-width:0.26458332;stroke-linecap:butt;stroke-linejoin:miter;stroke-miterlimit:4;stroke-dasharray:none;stroke-dashoffset:0;stroke-opacity:1"
       x="242.27565"
       y="28.821356"
       id="text900"
       transform="rotate(60)"><tspan
         sodipodi:role="line"
         id="tspan898"
         x="242.27565"
         y="28.821356"
         style="stroke-width:0.26458332">Whodunit</tspan></text>
    <path
       style="opacity:1;vector-effect:none;fill:none;fill-opacity:1;stroke:#000000;stroke-width:1.05799997;stroke-linecap:butt;stroke-linejoin:miter;stroke-miterlimit:4;stroke-dasharray:none;stroke-dashoffset:0;stroke-opacity:1"
       d="m 125.30825,202.36985 c 0.47197,-0.23598 0.94394,-0.94394 0.82594,-2.06487 -0.11799,-1.12093 -2.89081,-10.26537 -2.89081,-10.26537 l -1.7699,-6.60759 -1.71089,-3.42179 -1.47491,-11.62228 0.47197,-3.89376 -0.88494,-1.17992 -0.47197,-1.88788 -0.94395,-2.18287 2.77283,-2.06487 -3.65777,-7.72852 -0.76695,-0.88495 -0.70796,-3.06781 -2.65484,-4.95569 -0.94394,-2.41885 -1.06193,-1.23893 -0.58997,-3.06781 2.83183,-0.23598 -0.82595,-4.07075 -2.59584,-9.49841 3.95276,-1.47491"
       id="path871-5"
       inkscape:connector-curvature="0" />
    <g
       id="g921">
      <path
         inkscape:connector-curvature="0"
         id="path902"
         d="m 143.07606,195.87857 2.3386,-5.98684 0.8419,-2.57246 2.01121,-1.40317 -1.49671,-3.88209 -3.46114,-6.03361 2.80633,-2.94665 -1.96443,-3.64822 -2.22168,-4.02241 -0.77174,-1.21607 0.1637,-2.61925 1.05238,-0.63142 -0.44434,-1.19269 -1.70718,-1.14592 -6.24409,-2.78294 -4.60706,-8.69963 -3.34421,-0.77174 -1.68379,-4.30304 -4.65383,-14.07842 3.695,-1.07576 -0.63143,-2.71278 1.5201,-2.1983 4.0224,-2.26845 0.88868,0.0234 0.0234,-1.33301 0.72497,-0.35079"
         style="opacity:1;vector-effect:none;fill:none;fill-opacity:1;stroke:#000000;stroke-width:1.05833333;stroke-linecap:butt;stroke-linejoin:miter;stroke-miterlimit:4;stroke-dasharray:none;stroke-dashoffset:0;stroke-opacity:1" />
      <path
         inkscape:connector-curvature="0"
         id="path902-5"
         d="m 143.07606,195.87858 2.3386,-5.98684 0.8419,-2.57246 2.01121,-1.40317 -1.49671,-3.88209 -3.46114,-6.03362 2.80633,-2.94664 -1.96443,-3.64823 -2.22168,-4.02241 -0.77174,-1.21607 0.1637,-2.61925 1.05238,-0.63142 -0.44434,-1.19269 -1.70718,-1.14592 -6.24409,-2.78294 -4.60706,-8.69963 -3.34421,-0.77174 -1.68379,-4.30304 -4.65383,-14.07842 3.695,-1.07576 -0.63143,-2.71278 1.5201,-2.1983 4.0224,-2.26845 0.88868,0.0234 0.0234,-1.33301 0.72497,-0.35079"
         style="opacity:1;vector-effect:none;fill:none;fill-opacity:1;stroke:#ffffff;stroke-width:1.05833328;stroke-linecap:butt;stroke-linejoin:miter;stroke-miterlimit:4;stroke-dasharray:2.11666667, 2.11666667;stroke-dashoffset:0;stroke-opacity:1" />
    </g>
    <text
       xml:space="preserve"
       style="font-style:normal;font-variant:normal;font-weight:normal;font-stretch:normal;font-size:3.52777767px;line-height:1.25;font-family:'Liberation Sans';-inkscape-font-specification:'Liberation Sans';font-variant-ligatures:normal;font-variant-position:normal;font-variant-caps:normal;font-variant-numeric:normal;font-variant-alternates:normal;font-feature-settings:normal;text-indent:0;text-align:start;text-decoration:none;text-decoration-line:none;text-decoration-style:solid;text-decoration-color:#000000;letter-spacing:0px;word-spacing:0px;text-transform:none;writing-mode:lr-tb;direction:ltr;text-orientation:mixed;dominant-baseline:auto;baseline-shift:baseline;text-anchor:start;white-space:normal;shape-padding:0;opacity:1;vector-effect:none;fill:#000000;fill-opacity:1;stroke:none;stroke-width:0.26458332;stroke-linecap:butt;stroke-linejoin:miter;stroke-miterlimit:4;stroke-dasharray:none;stroke-dashoffset:0;stroke-opacity:1"
       x="268.55063"
       y="-16.688221"
       id="text925"
       transform="rotate(60)"><tspan
         sodipodi:role="line"
         id="tspan923"
         x="268.55063"
         y="-16.688221"
         style="stroke-width:0.26458332">White Maiden's</tspan><tspan
         sodipodi:role="line"
         x="268.55063"
         y="-12.278498"
         style="stroke-width:0.26458332"
         id="tspan927">Walkaway</tspan></text>
    <g
       id="g948">
      <path
         sodipodi:nodetypes="cccccccccccccccccc"
         inkscape:connector-curvature="0"
         id="path929"
         d="m 201.37073,218.1001 -0.98193,-0.73968 -0.52917,-1.35599 -3.77031,-5.75469 -4.56406,-1.85209 -0.59531,-2.44739 -0.76068,-8.16901 1.15755,-4.53099 0.0331,-6.68073 1.81901,-1.68672 1.88516,0.39688 0.69453,-1.25677 1.62057,-8.33438 2.64584,-1.81901 -0.19844,-3.77031 0.0992,-2.71198 -0.62839,-1.78594 0.29766,-0.85989"
         style="opacity:1;vector-effect:none;fill:none;fill-opacity:1;stroke:#000000;stroke-width:1.05833328;stroke-linecap:butt;stroke-linejoin:miter;stroke-miterlimit:4;stroke-dasharray:none;stroke-dashoffset:0;stroke-opacity:1" />
      <path
         sodipodi:nodetypes="cccccccccccccccccc"
         inkscape:connector-curvature="0"
         id="path929-3"
         d="m 201.37073,218.1001 -0.98193,-0.73968 -0.52917,-1.35599 -3.77031,-5.75469 -4.56406,-1.85209 -0.59531,-2.44739 -0.76068,-8.16901 1.15755,-4.53099 0.0331,-6.68073 1.81901,-1.68672 1.88516,0.39688 0.69453,-1.25677 1.62057,-8.33438 2.64584,-1.81901 -0.19844,-3.77031 0.0992,-2.71198 -0.62839,-1.78594 0.29766,-0.85989"
         style="opacity:1;vector-effect:none;fill:none;fill-opacity:1;stroke:#ffffff;stroke-width:1.05833328;stroke-linecap:butt;stroke-linejoin:miter;stroke-miterlimit:4;stroke-dasharray:2.11666667, 2.11666667;stroke-dashoffset:0;stroke-opacity:1" />
    </g>
    <text
       xml:space="preserve"
       style="font-style:normal;font-variant:normal;font-weight:normal;font-stretch:normal;font-size:3.52777767px;line-height:1.25;font-family:'Liberation Sans';-inkscape-font-specification:'Liberation Sans';font-variant-ligatures:normal;font-variant-position:normal;font-variant-caps:normal;font-variant-numeric:normal;font-variant-alternates:normal;font-feature-settings:normal;text-indent:0;text-align:start;text-decoration:none;text-decoration-line:none;text-decoration-style:solid;text-decoration-color:#000000;letter-spacing:0px;word-spacing:0px;text-transform:none;writing-mode:lr-tb;direction:ltr;text-orientation:mixed;dominant-baseline:auto;baseline-shift:baseline;text-anchor:start;white-space:normal;shape-padding:0;opacity:1;vector-effect:none;fill:#000000;fill-opacity:1;stroke:none;stroke-width:0.26458332;stroke-linecap:butt;stroke-linejoin:miter;stroke-miterlimit:4;stroke-dasharray:none;stroke-dashoffset:0;stroke-opacity:1"
       x="288.86252"
       y="-51.979847"
       id="text952"
       transform="rotate(60)"><tspan
         sodipodi:role="line"
         id="tspan950"
         x="288.86252"
         y="-51.979847"
         style="stroke-width:0.26458332">The Trough</tspan></text>
    <path
       style="opacity:1;vector-effect:none;fill:none;fill-opacity:1;stroke:#ffffff;stroke-width:1.05833328;stroke-linecap:butt;stroke-linejoin:miter;stroke-miterlimit:4;stroke-dasharray:2.11666651, 2.11666651;stroke-dashoffset:0;stroke-opacity:1"
       d="m 125.30825,202.36985 c 0.47197,-0.23598 0.94394,-0.94394 0.82594,-2.06487 -0.11799,-1.12093 -2.89081,-10.26537 -2.89081,-10.26537 l -1.7699,-6.60759 -1.71089,-3.42179 -1.47491,-11.62228 0.47197,-3.89376 -0.88494,-1.17992 -0.47197,-1.88788 -0.94395,-2.18287 2.77283,-2.06487 -3.65777,-7.72852 -0.76695,-0.88495 -0.70796,-3.06781 -2.65484,-4.95569 -0.94394,-2.41885 -1.06193,-1.23893 -0.58997,-3.06781 2.83183,-0.23598 -0.82595,-4.07075 -2.59584,-9.49841 3.95276,-1.47491"
       id="path871"
       inkscape:connector-curvature="0" />
    <text
       xml:space="preserve"
       style="font-style:normal;font-variant:normal;font-weight:normal;font-stretch:normal;font-size:3.52777767px;line-height:1.25;font-family:'Liberation Sans';-inkscape-font-specification:'Liberation Sans';font-variant-ligatures:normal;font-variant-position:normal;font-variant-caps:normal;font-variant-numeric:normal;font-variant-alternates:normal;font-feature-settings:normal;text-indent:0;text-align:start;text-decoration:none;text-decoration-line:none;text-decoration-style:solid;text-decoration-color:#000000;letter-spacing:0px;word-spacing:0px;text-transform:none;writing-mode:lr-tb;direction:ltr;text-orientation:mixed;dominant-baseline:auto;baseline-shift:baseline;text-anchor:start;white-space:normal;shape-padding:0;opacity:1;vector-effect:none;fill:#000000;fill-opacity:1;stroke:none;stroke-width:0.26458332;stroke-linecap:butt;stroke-linejoin:miter;stroke-miterlimit:4;stroke-dasharray:none;stroke-dashoffset:0;stroke-opacity:1"
       x="257.56827"
       y="2.8987527"
       id="text925-3"
       transform="rotate(60)"><tspan
         sodipodi:role="line"
         x="257.56827"
         y="2.8987527"
         style="stroke-width:0.26458332"
         id="tspan927-6">Long/Wong</tspan></text>
  </g>
</svg>
