<?xml version="1.0" encoding="UTF-8" standalone="no"?>
<!-- Created with Inkscape (http://www.inkscape.org/) -->

<svg
   xmlns:dc="http://purl.org/dc/elements/1.1/"
   xmlns:cc="http://creativecommons.org/ns#"
   xmlns:rdf="http://www.w3.org/1999/02/22-rdf-syntax-ns#"
   xmlns:svg="http://www.w3.org/2000/svg"
   xmlns="http://www.w3.org/2000/svg"
   xmlns:xlink="http://www.w3.org/1999/xlink"
   xmlns:sodipodi="http://sodipodi.sourceforge.net/DTD/sodipodi-0.dtd"
   xmlns:inkscape="http://www.inkscape.org/namespaces/inkscape"
   width="210mm"
   height="297mm"
   viewBox="0 0 210 297"
   version="1.1"
   id="svg8"
   inkscape:version="0.92.3 (2405546, 2018-03-11)"
   sodipodi:docname="4_west_side.svg">
  <defs
     id="defs2" />
  <sodipodi:namedview
     id="base"
     pagecolor="#ffffff"
     bordercolor="#666666"
     borderopacity="1.0"
     inkscape:pageopacity="0.0"
     inkscape:pageshadow="2"
     inkscape:zoom="0.83961009"
     inkscape:cx="360.25245"
     inkscape:cy="684.94152"
     inkscape:document-units="mm"
     inkscape:current-layer="layer1"
     showgrid="false"
     inkscape:window-width="1280"
     inkscape:window-height="996"
     inkscape:window-x="0"
     inkscape:window-y="0"
     inkscape:window-maximized="1"
     inkscape:snap-global="false" />
  <metadata
     id="metadata5">
    <rdf:RDF>
      <cc:Work
         rdf:about="">
        <dc:format>image/svg+xml</dc:format>
        <dc:type
           rdf:resource="http://purl.org/dc/dcmitype/StillImage" />
        <dc:title />
      </cc:Work>
    </rdf:RDF>
  </metadata>
  <g
     inkscape:label="Layer 1"
     inkscape:groupmode="layer"
     id="layer1">
    <image
       sodipodi:absref="/home/bcrowell/photo_topos/4_west_side_bitmap.jpg"
       xlink:href="4_west_side_bitmap.jpg"
       y="12.081557"
       x="13.932219"
       id="image901"
       preserveAspectRatio="none"
       height="203.31912"
       width="90.401489" />
    <image
       sodipodi:absref="/home/bcrowell/photo_topos/4_west_side_bitmap.jpg"
       xlink:href="4_west_side_bitmap.jpg"
       width="90.401489"
       height="203.31912"
       preserveAspectRatio="none"
       id="image901-3"
       x="106.61357"
       y="12.081557" />
    <g
       id="g850">
      <path
         sodipodi:nodetypes="ccc"
         inkscape:connector-curvature="0"
         id="path831"
         d="M 14.468542,102.90313 24.36448,83.588997 29.619564,78.265665"
         style="opacity:1;vector-effect:none;fill:none;fill-opacity:1;stroke:#000000;stroke-width:1.05833328;stroke-linecap:butt;stroke-linejoin:miter;stroke-miterlimit:4;stroke-dasharray:none;stroke-dashoffset:0;stroke-opacity:1" />
      <path
         sodipodi:nodetypes="ccc"
         inkscape:connector-curvature="0"
         id="path831-6"
         d="M 14.468543,102.90313 24.36448,83.588997 29.619564,78.265665"
         style="opacity:1;vector-effect:none;fill:none;fill-opacity:1;stroke:#ffffff;stroke-width:1.05833328;stroke-linecap:butt;stroke-linejoin:miter;stroke-miterlimit:4;stroke-dasharray:2.11666667, 2.11666667;stroke-dashoffset:0;stroke-opacity:1" />
    </g>
    <g
       id="g864"
       transform="translate(42.081423,-11.195975)">
      <rect
         y="120.56688"
         x="-27.989937"
         height="9.2656345"
         width="13.319349"
         id="rect858"
         style="fill:#ffffff;fill-opacity:1;stroke:none;stroke-width:1.01937389;stroke-miterlimit:4;stroke-dasharray:2.03874788, 2.03874788;stroke-dashoffset:0;stroke-opacity:1" />
      <text
         id="text854"
         y="124.23453"
         x="-27.024765"
         style="font-style:normal;font-variant:normal;font-weight:normal;font-stretch:normal;font-size:3.52777767px;line-height:1.25;font-family:'Liberation Sans';-inkscape-font-specification:'Liberation Sans';font-variant-ligatures:normal;font-variant-position:normal;font-variant-caps:normal;font-variant-numeric:normal;font-variant-alternates:normal;font-feature-settings:normal;text-indent:0;text-align:start;text-decoration:none;text-decoration-line:none;text-decoration-style:solid;text-decoration-color:#000000;letter-spacing:0px;word-spacing:0px;text-transform:none;writing-mode:lr-tb;direction:ltr;text-orientation:mixed;dominant-baseline:auto;baseline-shift:baseline;text-anchor:start;white-space:normal;shape-padding:0;opacity:1;vector-effect:none;fill:#000000;fill-opacity:1;stroke:none;stroke-width:0.26458332;stroke-linecap:butt;stroke-linejoin:miter;stroke-miterlimit:4;stroke-dasharray:none;stroke-dashoffset:0;stroke-opacity:1"
         xml:space="preserve"><tspan
           style="stroke-width:0.26458332"
           y="124.23453"
           x="-27.024765"
           id="tspan852"
           sodipodi:role="line">Angel's</tspan><tspan
           id="tspan856"
           style="stroke-width:0.26458332"
           y="128.64426"
           x="-27.024765"
           sodipodi:role="line">Fright</tspan></text>
    </g>
    <g
       id="g885">
      <path
         inkscape:connector-curvature="0"
         id="path866"
         d="m 103.19074,191.62533 -9.827694,-12.14812 -3.548885,-4.91384 -3.002907,-1.09197 -0.682477,-3.54888 -2.047436,-3.1394 -4.777348,-7.37077 -3.002907,-4.50436 -6.005809,-19.51888 c 0,0 -1.501452,-5.86932 -3.548888,-8.87222 -2.047436,-3.00291 -3.275896,-6.14231 -6.005811,-8.05325 -2.729913,-1.91094 -15.287517,-14.33204 -15.287517,-14.33204 0,0 -1.50145,-0.54599 -3.139399,-3.75363 -1.637948,-3.207653 -1.160213,-8.189745 -2.183931,-10.23718 -1.023717,-2.047436 -9.48645,-10.919655 -9.48645,-10.919655"
         style="opacity:1;vector-effect:none;fill:none;fill-opacity:1;stroke:#000000;stroke-width:1.05833333;stroke-linecap:butt;stroke-linejoin:miter;stroke-miterlimit:4;stroke-dasharray:none;stroke-dashoffset:0;stroke-opacity:1" />
      <path
         inkscape:connector-curvature="0"
         id="path866-7"
         d="m 103.19074,191.62532 -9.827694,-12.14812 -3.548885,-4.91383 -3.002907,-1.09197 -0.682477,-3.54888 -2.047436,-3.1394 -4.777348,-7.37077 -3.002907,-4.50436 -6.005809,-19.51888 c 0,0 -1.501452,-5.86932 -3.548888,-8.87222 -2.047436,-3.00291 -3.275896,-6.14231 -6.005812,-8.05325 -2.729912,-1.91094 -15.287516,-14.33204 -15.287516,-14.33204 0,0 -1.501451,-0.54599 -3.1394,-3.75363 C 40.675713,97.170317 41.153448,92.188225 40.12973,90.14079 39.106013,88.093353 30.64328,79.221134 30.64328,79.221134"
         style="opacity:1;vector-effect:none;fill:none;fill-opacity:1;stroke:#ffffff;stroke-width:1.05833328;stroke-linecap:butt;stroke-linejoin:miter;stroke-miterlimit:4;stroke-dasharray:2.11666667, 2.11666667;stroke-dashoffset:0;stroke-opacity:1" />
    </g>
    <g
       id="g896"
       transform="rotate(46.3583,138.08525,217.69733)">
      <rect
         y="227.20915"
         x="64.615646"
         height="3.5215087"
         width="29.087963"
         id="rect891"
         style="fill:#ffffff;fill-opacity:1;stroke:#ffffff;stroke-width:0.77670169;stroke-miterlimit:4;stroke-dasharray:1.55340351, 1.55340351;stroke-dashoffset:0;stroke-opacity:1" />
      <text
         id="text889"
         y="229.88199"
         x="64.865929"
         style="font-style:normal;font-variant:normal;font-weight:normal;font-stretch:normal;font-size:3.52777767px;line-height:1.25;font-family:'Liberation Sans';-inkscape-font-specification:'Liberation Sans';font-variant-ligatures:normal;font-variant-position:normal;font-variant-caps:normal;font-variant-numeric:normal;font-variant-alternates:normal;font-feature-settings:normal;text-indent:0;text-align:start;text-decoration:none;text-decoration-line:none;text-decoration-style:solid;text-decoration-color:#000000;letter-spacing:0px;word-spacing:0px;text-transform:none;writing-mode:lr-tb;direction:ltr;text-orientation:mixed;dominant-baseline:auto;baseline-shift:baseline;text-anchor:start;white-space:normal;shape-padding:0;opacity:1;vector-effect:none;fill:#000000;fill-opacity:1;stroke:none;stroke-width:0.26458332;stroke-linecap:butt;stroke-linejoin:miter;stroke-miterlimit:4;stroke-dasharray:none;stroke-dashoffset:0;stroke-opacity:1"
         xml:space="preserve"><tspan
           style="stroke-width:0.26458332"
           y="229.88199"
           x="64.865929"
           id="tspan887"
           sodipodi:role="line">Fingertip Traverse</tspan></text>
    </g>
    <g
       id="g917">
      <path
         sodipodi:nodetypes="ccscsccc"
         inkscape:connector-curvature="0"
         id="path898"
         d="m 32.55422,79.562373 c 3.412393,0.06825 3.002906,-2.934656 2.388676,-4.16312 -0.614233,-1.22846 -1.637948,-10.032431 -1.637948,-11.32914 0,-1.29671 6.347047,-4.572606 6.347047,-4.572606 0,0 -1.688821,-2.997497 -4.572603,-5.391579 -3.617138,-3.002905 -11.602134,-4.982093 -11.602134,-4.982093 l 2.115682,-1.91094 1.433205,-12.421105"
         style="opacity:1;vector-effect:none;fill:none;fill-opacity:1;stroke:#000000;stroke-width:1.05833333;stroke-linecap:butt;stroke-linejoin:miter;stroke-miterlimit:4;stroke-dasharray:none;stroke-dashoffset:0;stroke-opacity:1" />
      <path
         sodipodi:nodetypes="ccscsccc"
         inkscape:connector-curvature="0"
         id="path898-5"
         d="m 32.554221,79.562373 c 3.412393,0.06825 3.002906,-2.934655 2.388676,-4.163118 -0.614233,-1.228461 -1.637948,-10.032431 -1.637948,-11.329141 0,-1.29671 6.347047,-4.572606 6.347047,-4.572606 0,0 -1.688821,-2.997497 -4.572603,-5.391579 -3.617138,-3.002905 -11.602135,-4.982094 -11.602135,-4.982094 l 2.115682,-1.91094 1.433205,-12.421105"
         style="opacity:1;vector-effect:none;fill:none;fill-opacity:1;stroke:#ffffff;stroke-width:1.05833328;stroke-linecap:butt;stroke-linejoin:miter;stroke-miterlimit:4;stroke-dasharray:2.11666667, 2.11666667;stroke-dashoffset:0;stroke-opacity:1" />
    </g>
    <g
       id="g938">
      <path
         inkscape:connector-curvature="0"
         id="path919"
         d="m 66.951132,182.61661 -1.569699,-7.78025 1.84269,-4.43611 -2.388674,-8.59923 -3.071153,-4.16312 4.845597,-1.97918 1.091965,-9.21346 -4.367861,-8.39449 -9.349954,-5.93756 c 0,0 0,-3.34414 -0.955469,-5.93756 -0.955471,-2.59342 -4.982093,-7.37077 -6.34705,-8.46273 -1.364956,-1.09197 -11.602132,-3.1394 -11.602132,-3.1394 0,0 -0.750729,-1.02372 -1.023718,-2.11569 -0.272992,-1.09196 6.483543,-13.103583 6.483543,-13.103583"
         style="opacity:1;vector-effect:none;fill:none;fill-opacity:1;stroke:#000000;stroke-width:1.05833333;stroke-linecap:butt;stroke-linejoin:miter;stroke-miterlimit:4;stroke-dasharray:none;stroke-dashoffset:0;stroke-opacity:1" />
      <path
         inkscape:connector-curvature="0"
         id="path919-3"
         d="m 66.951131,182.61661 -1.569699,-7.78025 1.842691,-4.43611 -2.388674,-8.59923 -3.071154,-4.16312 4.845598,-1.97918 1.091964,-9.21346 -4.36786,-8.39449 -9.349954,-5.93756 c 0,0 0,-3.34414 -0.955469,-5.93756 -0.955471,-2.59342 -4.982093,-7.37077 -6.34705,-8.46273 -1.364956,-1.09197 -11.602132,-3.1394 -11.602132,-3.1394 0,0 -0.750729,-1.02372 -1.023718,-2.11569 -0.272992,-1.09196 6.483543,-13.103583 6.483543,-13.103583"
         style="opacity:1;vector-effect:none;fill:none;fill-opacity:1;stroke:#ffffff;stroke-width:1.05833328;stroke-linecap:butt;stroke-linejoin:miter;stroke-miterlimit:4;stroke-dasharray:2.11666667, 2.11666667;stroke-dashoffset:0;stroke-opacity:1" />
    </g>
    <g
       id="g949"
       transform="rotate(44.670134,173.41643,162.77671)">
      <rect
         y="226.858"
         x="62.465805"
         height="3.9413199"
         width="16.186934"
         id="rect944"
         style="fill:#ffffff;fill-opacity:1;stroke:none;stroke-width:0.89389402;stroke-miterlimit:4;stroke-dasharray:1.78778812, 1.78778812;stroke-dashoffset:0;stroke-opacity:1" />
      <text
         id="text942"
         y="229.74075"
         x="63.030876"
         style="font-style:normal;font-variant:normal;font-weight:normal;font-stretch:normal;font-size:3.52777767px;line-height:1.25;font-family:'Liberation Sans';-inkscape-font-specification:'Liberation Sans';font-variant-ligatures:normal;font-variant-position:normal;font-variant-caps:normal;font-variant-numeric:normal;font-variant-alternates:normal;font-feature-settings:normal;text-indent:0;text-align:start;text-decoration:none;text-decoration-line:none;text-decoration-style:solid;text-decoration-color:#000000;letter-spacing:0px;word-spacing:0px;text-transform:none;writing-mode:lr-tb;direction:ltr;text-orientation:mixed;dominant-baseline:auto;baseline-shift:baseline;text-anchor:start;white-space:normal;shape-padding:0;opacity:1;vector-effect:none;fill:#000000;fill-opacity:1;stroke:none;stroke-width:0.26458332;stroke-linecap:butt;stroke-linejoin:miter;stroke-miterlimit:4;stroke-dasharray:none;stroke-dashoffset:0;stroke-opacity:1"
         xml:space="preserve"><tspan
           style="stroke-width:0.26458332"
           y="229.74075"
           x="63.030876"
           id="tspan940"
           sodipodi:role="line">Fingertrip</tspan></text>
    </g>
    <g
       id="g970">
      <path
         inkscape:connector-curvature="0"
         id="path951"
         d="M 101.69288,147.4177 77.89242,104.86536 c 0,0 -8.077732,-8.07773 -8.366223,-11.539615 -0.288491,-3.461885 -0.288491,-11.251128 0,-12.260844 0.288491,-1.009716 2.884905,-4.760093 2.884905,-4.760093 l 2.740658,-2.884905 3.60613,-2.163678 -2.307923,-4.038867 c 0,0 -2.019432,-2.884903 -5.625563,-7.356504 C 67.218273,55.38925 58.130823,45.003595 58.130823,45.003595"
         style="opacity:1;vector-effect:none;fill:none;fill-opacity:1;stroke:#000000;stroke-width:1.05833333;stroke-linecap:butt;stroke-linejoin:miter;stroke-miterlimit:4;stroke-dasharray:none;stroke-dashoffset:0;stroke-opacity:1" />
      <path
         inkscape:connector-curvature="0"
         id="path951-5"
         d="M 101.69288,147.4177 77.89242,104.86535 c 0,0 -8.077733,-8.077725 -8.366223,-11.53961 -0.288491,-3.461886 -0.288491,-11.251129 0,-12.260845 0.28849,-1.009716 2.884905,-4.760092 2.884905,-4.760092 l 2.740658,-2.884906 3.60613,-2.163678 -2.307923,-4.038867 c 0,0 -2.019432,-2.884903 -5.625563,-7.356504 C 67.218273,55.389244 58.130823,45.003589 58.130823,45.003589"
         style="opacity:1;vector-effect:none;fill:none;fill-opacity:1;stroke:#ffffff;stroke-width:1.05833328;stroke-linecap:butt;stroke-linejoin:miter;stroke-miterlimit:4;stroke-dasharray:2.11666667, 2.11666667;stroke-dashoffset:0;stroke-opacity:1" />
    </g>
    <g
       id="g981"
       transform="rotate(59.574899,-18.025507,41.362625)">
      <rect
         y="-4.506269"
         x="69.832733"
         height="3.3870714"
         width="24.620335"
         id="rect976"
         style="fill:#ffffff;fill-opacity:1;stroke:#ffffff;stroke-width:0.80264986;stroke-miterlimit:4;stroke-dasharray:1.60529968, 1.60529968;stroke-dashoffset:0;stroke-opacity:1" />
      <text
         id="text974"
         y="-1.6465577"
         x="70.173782"
         style="font-style:normal;font-variant:normal;font-weight:normal;font-stretch:normal;font-size:3.52777767px;line-height:1.25;font-family:'Liberation Sans';-inkscape-font-specification:'Liberation Sans';font-variant-ligatures:normal;font-variant-position:normal;font-variant-caps:normal;font-variant-numeric:normal;font-variant-alternates:normal;font-feature-settings:normal;text-indent:0;text-align:start;text-decoration:none;text-decoration-line:none;text-decoration-style:solid;text-decoration-color:#000000;letter-spacing:0px;word-spacing:0px;text-transform:none;writing-mode:lr-tb;direction:ltr;text-orientation:mixed;dominant-baseline:auto;baseline-shift:baseline;text-anchor:start;white-space:normal;shape-padding:0;opacity:1;vector-effect:none;fill:#000000;fill-opacity:1;stroke:none;stroke-width:0.26458332;stroke-linecap:butt;stroke-linejoin:miter;stroke-miterlimit:4;stroke-dasharray:none;stroke-dashoffset:0;stroke-opacity:1"
         xml:space="preserve"><tspan
           style="stroke-width:0.26458332"
           y="-1.6465577"
           x="70.173782"
           id="tspan972"
           sodipodi:role="line">Jensen's Jaunt</tspan></text>
    </g>
    <g
       id="g1008">
      <path
         inkscape:connector-curvature="0"
         id="path983"
         d="m 81.829483,110.35619 c 0,0 5.616596,-1.38254 5.616596,-1.98741 0,-0.60486 1.728182,-10.109871 1.728182,-10.109871 l 1.728184,-1.728181 -1.468956,-1.123321 -0.172818,-2.592273 -1.641774,-3.197141"
         style="opacity:1;vector-effect:none;fill:none;fill-opacity:1;stroke:#000000;stroke-width:1.05833333;stroke-linecap:butt;stroke-linejoin:miter;stroke-miterlimit:4;stroke-dasharray:none;stroke-dashoffset:0;stroke-opacity:1" />
      <path
         inkscape:connector-curvature="0"
         id="path983-2"
         d="m 81.829481,110.35619 c 0,0 5.61659,-1.38254 5.61659,-1.98741 0,-0.60486 1.72819,-10.109871 1.72819,-10.109871 l 1.72818,-1.728181 -1.46896,-1.123321 -0.17281,-2.592273 -1.64178,-3.197141"
         style="opacity:1;vector-effect:none;fill:none;fill-opacity:1;stroke:#ffffff;stroke-width:1.05833328;stroke-linecap:butt;stroke-linejoin:miter;stroke-miterlimit:4;stroke-dasharray:2.11666667, 2.11666667;stroke-dashoffset:0;stroke-opacity:1" />
    </g>
    <g
       id="g1019"
       transform="translate(1.3786782,-1.9695402)">
      <rect
         y="111.70566"
         x="84.808403"
         height="3.2694366"
         width="17.68647"
         id="rect1014"
         style="fill:#ffffff;fill-opacity:1;stroke:none;stroke-width:1.05833328;stroke-miterlimit:4;stroke-dasharray:2.11666664, 2.11666664;stroke-dashoffset:0;stroke-opacity:1" />
      <text
         id="text1012"
         y="114.60128"
         x="85.156036"
         style="font-style:normal;font-variant:normal;font-weight:normal;font-stretch:normal;font-size:3.52777767px;line-height:1.25;font-family:'Liberation Sans';-inkscape-font-specification:'Liberation Sans';font-variant-ligatures:normal;font-variant-position:normal;font-variant-caps:normal;font-variant-numeric:normal;font-variant-alternates:normal;font-feature-settings:normal;text-indent:0;text-align:start;text-decoration:none;text-decoration-line:none;text-decoration-style:solid;text-decoration-color:#000000;letter-spacing:0px;word-spacing:0px;text-transform:none;writing-mode:lr-tb;direction:ltr;text-orientation:mixed;dominant-baseline:auto;baseline-shift:baseline;text-anchor:start;white-space:normal;shape-padding:0;opacity:1;vector-effect:none;fill:#000000;fill-opacity:1;stroke:none;stroke-width:0.26458332;stroke-linecap:butt;stroke-linejoin:miter;stroke-miterlimit:4;stroke-dasharray:none;stroke-dashoffset:0;stroke-opacity:1"
         xml:space="preserve"><tspan
           style="stroke-width:0.26458332"
           y="114.60128"
           x="85.156036"
           id="tspan1010"
           sodipodi:role="line">Traitorhorn</tspan></text>
    </g>
  </g>
</svg>
