<?xml version="1.0" encoding="UTF-8" standalone="no"?>
<svg
   xmlns:dc="http://purl.org/dc/elements/1.1/"
   xmlns:cc="http://creativecommons.org/ns#"
   xmlns:rdf="http://www.w3.org/1999/02/22-rdf-syntax-ns#"
   xmlns:svg="http://www.w3.org/2000/svg"
   xmlns="http://www.w3.org/2000/svg"
   xmlns:sodipodi="http://sodipodi.sourceforge.net/DTD/sodipodi-0.dtd"
   xmlns:inkscape="http://www.inkscape.org/namespaces/inkscape"
   version="1.0"
   width="1264.000000pt"
   height="1708.000000pt"
   viewBox="0 0 1264.000000 1708.000000"
   preserveAspectRatio="xMidYMid meet"
   id="svg24"
   sodipodi:docname="currant_leaf.svg"
   inkscape:version="0.92.3 (2405546, 2018-03-11)">
  <defs
     id="defs28" />
  <sodipodi:namedview
     pagecolor="#ffffff"
     bordercolor="#666666"
     borderopacity="1"
     objecttolerance="10"
     gridtolerance="10"
     guidetolerance="10"
     inkscape:pageopacity="0"
     inkscape:pageshadow="2"
     inkscape:window-width="1280"
     inkscape:window-height="996"
     id="namedview26"
     showgrid="false"
     inkscape:snap-global="false"
     inkscape:zoom="4.9667988"
     inkscape:cx="137.99221"
     inkscape:cy="368.30549"
     inkscape:window-x="0"
     inkscape:window-y="0"
     inkscape:window-maximized="1"
     inkscape:current-layer="svg24" />
  <metadata
     id="metadata2">
Created by potrace 1.15, written by Peter Selinger 2001-2017
<rdf:RDF>
  <cc:Work
     rdf:about="">
    <dc:format>image/svg+xml</dc:format>
    <dc:type
       rdf:resource="http://purl.org/dc/dcmitype/StillImage" />
  </cc:Work>
</rdf:RDF>
</metadata>
  <path
     style="fill:none;fill-opacity:1;stroke:#000000;stroke-width:0.80000001;stroke-miterlimit:4;stroke-dasharray:none;stroke-opacity:1"
     d="m 132.75778,1390.9029 c -0.0371,-0.033 -0.0912,-0.054 -0.14322,-0.063 -0.0457,-0.01 -0.12969,-0.048 -0.17793,-0.091 -0.0482,-0.043 -0.17411,-0.096 -0.28458,-0.1131 -0.16618,-0.029 -0.20364,-0.055 -0.26313,-0.1745 -0.10454,-0.2187 -0.25474,-0.2661 -0.59441,-0.1822 -0.17,0.042 -0.32444,0.097 -0.34414,0.1192 -0.0225,0.025 -0.0818,0.04 -0.13412,0.039 -0.0815,-0.01 -0.0857,-0.031 -0.0385,-0.1735 0.0744,-0.226 0.0469,-0.5091 -0.0753,-0.7302 -0.0948,-0.1698 -0.10114,-0.1701 -0.27958,-0.1409 -0.16308,0.027 -0.19977,0.015 -0.35991,-0.1477 -0.10766,-0.095 -0.19672,-0.1744 -0.24076,-0.1547 -0.0348,0.01 -0.11622,0.01 -0.17302,-0.014 -0.3434,-0.1063 -0.58031,-0.1236 -0.75578,-0.06 -0.10731,0.039 -0.20387,0.066 -0.21501,0.056 -0.0111,-0.01 -0.0479,-0.163 -0.0874,-0.3427 -0.11351,-0.5451 -0.44831,-0.7359 -0.98542,-0.549 l -0.20019,0.069 -0.3898,-0.3457 c -0.43274,-0.3571 -0.58198,-0.4358 -0.66196,-0.3083 -0.0284,0.047 -0.0613,0.077 -0.0792,0.074 -0.0244,0.01 -0.10783,-0.1626 -0.20813,-0.356 -0.14325,-0.2797 -0.2008,-0.3495 -0.30165,-0.3854 -0.16428,-0.046 -0.32955,0.072 -0.45815,0.3295 -0.11932,0.2392 -0.18836,0.2575 -0.30479,0.075 -0.11601,-0.1832 -0.6051,-0.5366 -0.77256,-0.5646 -0.0748,-0.013 -0.20351,0.013 -0.28188,0.048 -0.10257,0.049 -0.17652,0.05 -0.23591,0 -0.0965,-0.086 -0.19915,-0.038 -0.29367,0.144 -0.0277,0.061 -0.0483,0.3086 -0.0406,0.5543 0.004,0.2421 -0.002,0.4427 -0.0188,0.4473 -0.0111,-0.01 -0.0852,-0.076 -0.12994,-0.1822 -0.16207,-0.2883 -0.32637,-0.41 -0.73828,-0.5288 -0.35003,-0.099 -0.39224,-0.096 -0.66973,0.022 -0.22943,0.1017 -0.317,0.1633 -0.42358,0.3208 -0.10746,0.1511 -0.1506,0.1849 -0.19141,0.1487 -0.10023,-0.089 -0.26296,-0.041 -0.31441,0.092 -0.0338,0.091 -0.0525,0.1114 -0.087,0.075 -0.0721,-0.091 -0.1409,-0.125 -0.15153,-0.076 -0.005,0.028 -0.0892,0.034 -0.18926,0.011 -0.22059,-0.043 -0.29393,-0.027 -0.33987,0.077 -0.0288,0.055 -0.0599,0.067 -0.097,0.034 -0.0334,-0.03 -0.0885,-0.02 -0.12848,0.025 -0.0492,0.055 -0.0811,0.054 -0.13754,-0.01 -0.0594,-0.053 -0.0987,-0.061 -0.19682,0 -0.0717,0.043 -0.22146,0.1151 -0.33515,0.1536 -0.13069,0.05 -0.22532,0.112 -0.26326,0.1846 -0.0373,0.079 -0.0723,0.097 -0.10946,0.064 -0.0297,-0.026 -0.16627,-0.03 -0.30624,-0.01 -0.13224,0.022 -0.26225,0.019 -0.28184,-0.01 -0.0222,-0.019 -0.0711,-0.01 -0.12122,0.032 -0.0499,0.041 -0.14367,0.057 -0.21189,0.037 -0.0605,-0.021 -0.17307,-0.014 -0.23787,0.014 -0.0896,0.041 -0.14902,0.026 -0.23069,-0.047 -0.11879,-0.1054 -0.16637,-0.089 -0.15841,0.045 0.004,0.062 -0.0396,0.1041 -0.17488,0.1893 -0.0941,0.061 -0.1793,0.1199 -0.19244,0.1347 -0.01,0.019 -0.0722,0.022 -0.14632,0.023 -0.11231,-5e-4 -0.16998,0.042 -0.32385,0.2231 -0.24621,0.2924 -0.86427,0.8251 -1.07961,0.9259 -0.10918,0.056 -0.29251,0.2251 -0.53982,0.4965 -0.34576,0.3898 -0.37915,0.4127 -0.44598,0.3534 -0.0371,-0.033 -0.0765,-0.041 -0.0776,-0.01 -0.005,0.028 -0.0362,0.049 -0.0717,0.043 -0.0319,0 -0.0818,0.04 -0.11324,0.098 -0.04,0.082 -0.14366,0.1244 -0.42503,0.1799 -0.20184,0.041 -0.38479,0.09 -0.41113,0.1198 -0.0225,0.025 -0.11102,0.073 -0.20081,0.1068 -0.1889,0.071 -0.22275,0.094 -0.6546,0.454 -0.46891,0.3867 -0.95833,1.0734 -0.8915,1.2521 0.0175,0.047 -0.0168,0.1834 -0.0729,0.3066 -0.0746,0.1589 -0.0863,0.2688 -0.0506,0.3931 0.0872,0.2756 0.11447,0.4396 0.0782,0.4805 -0.0159,0.018 -0.0425,0.2275 -0.0534,0.4565 -0.007,0.2322 -0.0527,0.5303 -0.0942,0.6593 -0.10016,0.3223 -0.0687,1.2589 0.0464,1.3609 0.0446,0.04 0.0833,0.1007 0.0745,0.133 -0.005,0.028 0.0225,0.087 0.0596,0.1199 0.0409,0.036 0.0737,0.1188 0.0749,0.1923 0.004,0.07 0.0898,0.2725 0.1915,0.442 0.10222,0.1764 0.1902,0.3615 0.19995,0.4104 0.007,0.052 0.0506,0.1894 0.095,0.3039 0.10423,0.2638 0.0691,0.6251 -0.0897,0.9089 -0.0477,0.084 -0.072,0.089 -0.15383,0.016 -0.14848,-0.1317 -0.44566,-0.5292 -0.70632,-0.9382 -0.12793,-0.2072 -0.35005,-0.4953 -0.49932,-0.6411 l -0.26218,-0.2726 -0.30822,0.018 c -0.25198,0.015 -0.32343,0 -0.45654,-0.1132 -0.19303,-0.1712 -0.56177,-0.2866 -0.66715,-0.2201 -0.0507,0.027 -0.10683,0.031 -0.12911,0.012 -0.026,-0.023 -0.14062,-0.066 -0.2596,-0.096 -0.11757,-0.032 -0.22956,-0.078 -0.25823,-0.098 -0.052,-0.046 -0.42168,0 -0.47433,0.064 -0.0718,0.081 -0.36201,0.057 -0.47338,-0.042 -0.0594,-0.053 -0.212,-0.1426 -0.33914,-0.1936 -0.23773,-0.098 -0.42864,-0.055 -0.51702,0.1117 -0.0277,0.061 -0.0659,0.06 -0.16667,-0.014 -0.0817,-0.072 -0.16198,-0.071 -0.26158,-0.034 -0.0792,0.037 -0.15496,0.047 -0.16982,0.034 -0.0186,-0.016 -0.16076,-0.035 -0.31607,-0.047 -0.21899,-0.015 -0.31238,0.01 -0.40251,0.087 -0.10017,0.091 -0.13885,0.097 -0.29803,0.014 -0.15574,-0.071 -0.20529,-0.075 -0.28852,0.01 -0.0607,0.053 -0.17407,0.084 -0.28386,0.073 -0.0993,-0.01 -0.19657,0 -0.21919,0.03 -0.0199,0.023 -0.14,0.061 -0.27264,0.083 -0.12856,0.025 -0.26286,0.072 -0.29248,0.1055 -0.0665,0.075 -0.26358,0.058 -0.44172,-0.04 -0.15541,-0.079 -0.31027,-0.069 -0.45153,0.03 -0.0641,0.043 -0.22658,0.091 -0.36253,0.1095 -0.13701,0.013 -0.27116,0.052 -0.2975,0.081 -0.0292,0.033 -0.1074,0.038 -0.17533,0.01 -0.0679,-0.028 -0.18054,-0.021 -0.25307,0.01 -0.0688,0.033 -0.13811,0.043 -0.15296,0.031 -0.0148,-0.013 -0.15454,0 -0.30685,0.039 -0.27678,0.073 -0.40254,0.088 -0.98299,0.1365 -0.171536,0.014 -0.348796,0.042 -0.400696,0.055 -0.04775,0.016 -0.148425,0.048 -0.21666,0.065 -0.11372,0.038 -0.117775,0.043 -0.0307,0.072 0.05675,0.018 0.134165,0.066 0.18242,0.1083 0.256135,0.2271 0.248365,0.4453 -0.0045,0.5133 -0.228155,0.063 -0.33421,0.2273 -0.321205,0.5043 0.0061,0.1501 -0.0108,0.2289 -0.0442,0.1993 -0.08167,-0.072 -0.18312,-0.018 -0.160185,0.091 0.024,0.1151 -0.0302,0.2063 -0.09332,0.1503 -0.01855,-0.017 -0.01005,-0.041 0.0184,-0.051 0.031,-0.013 0.03685,-0.034 0.01455,-0.054 -0.026,-0.023 -0.05949,-0.01 -0.07499,0.033 -0.0117,0.043 -0.0485,0.07 -0.0764,0.063 -0.07479,-0.013 -0.43788,0.3217 -0.53,0.4854 -0.041,0.076 -0.05785,0.155 -0.03185,0.178 0.026,0.023 0.05248,0.1054 0.05971,0.1869 0.0087,0.08 0.0411,0.1704 0.0782,0.2033 0.05939,0.053 0.05951,0.053 -0.04725,0.039 -0.06338,-0.011 -0.1525,-0.023 -0.19736,-0.017 -0.104885,0.01 -0.208095,0.1074 -0.15619,0.1534 0.08167,0.072 -0.09154,0.1706 -0.20429,0.1108 -0.10528,-0.053 -0.12608,-0.045 -0.275845,0.1465 -0.153522,0.1954 -0.156409,0.2062 -0.05338,0.2845 0.10023,0.089 0.10032,0.089 -0.08298,0.2508 -0.213725,0.1887 -0.227241,0.316 -0.04535,0.4773 0.05197,0.046 0.107315,0.1407 0.12151,0.2069 0.0106,0.063 0.06972,0.1609 0.125395,0.2103 0.05939,0.053 0.08329,0.1006 0.04845,0.11 -0.027,0.01 -0.08894,-0.012 -0.12979,-0.048 -0.0408,-0.036 -0.12012,-0.066 -0.166077,-0.067 -0.05226,0 -0.140471,0 -0.19647,0 -0.08416,0 -0.248496,0.1381 -0.541052,0.4754 -0.03324,0.037 -0.07337,0.053 -0.08454,0.043 -0.01484,-0.013 -0.112957,0.053 -0.216779,0.1397 -0.20709,0.1811 -0.439707,0.2266 -0.502852,0.1109 -0.05248,-0.1054 -0.08943,-0.034 -0.14145,0.279 -0.0545,0.3232 -0.02933,0.6839 0.04195,0.7007 0.05331,0.01 0.119011,0.1725 0.166274,0.4258 0.01581,0.094 0.09576,0.251 0.182689,0.3549 0.208382,0.2436 0.272283,0.3808 0.216449,0.4437 -0.02256,0.025 -0.03548,0.1748 -0.0259,0.3285 0.01901,0.2553 0.01049,0.2946 -0.145068,0.4551 -0.495928,0.5218 -0.51827,0.5617 -0.51347,0.7582 0.0027,0.1016 -0.02475,0.2899 -0.06238,0.4221 -0.143667,0.476 -0.176412,0.8121 -0.11749,1.0896 0.02054,0.104 0.01629,0.2207 -0.01031,0.2507 -0.06539,0.081 -0.07852,0.2754 -0.02536,0.3426 0.02598,0.023 0.06852,0.1545 0.100984,0.2824 0.03512,0.125 0.116138,0.2879 0.182689,0.3549 0.08909,0.079 0.12461,0.1962 0.134973,0.3715 0.0176,0.2942 0.246896,0.7162 0.439889,0.8276 0.112716,0.06 0.144853,0.1285 0.208149,0.431 0.08781,0.4095 0.07662,0.5788 -0.0583,0.7907 -0.208531,0.3324 -0.241239,0.4292 -0.228469,0.7588 0.0074,0.186 -0.0187,0.3948 -0.05318,0.4636 -0.04766,0.084 -0.03963,0.1497 0.02103,0.2383 0.04612,0.068 0.08127,0.1846 0.06445,0.2634 -0.0092,0.078 0.01821,0.1742 0.06647,0.217 0.09651,0.086 0.139344,0.2093 0.08196,0.2441 -0.05077,0.027 -0.04019,0.3295 0.01213,0.3229 0.01109,0.01 0.01373,0.044 -0.0087,0.099 -0.02881,0.055 -0.02538,0.1034 0.0025,0.1094 0.03183,0 0.04085,0.036 0.03977,0.067 -0.0077,0.039 0.02826,0.065 0.103845,0.092 0.08858,0.02 0.110939,0.039 0.09289,0.082 -0.01239,0.029 0.01241,0.083 0.05298,0.1274 0.04454,0.04 0.04603,0.068 0.01342,0.052 -0.07929,-0.03 -0.09794,0.1328 -0.02004,0.2019 0.026,0.023 0.02631,0.09 0.0026,0.1469 -0.04423,0.095 -0.03276,0.097 0.124264,0.024 l 0.170999,-0.073 -0.09018,0.1316 c -0.132893,0.1872 -0.07971,0.546 0.102178,0.7073 0.07425,0.066 0.146294,0.1565 0.156353,0.1975 0.01273,0.038 0.106546,0.1265 0.211565,0.1876 0.106064,0.067 0.180329,0.1332 0.167059,0.1481 -0.01325,0.015 0.01875,0.084 0.06486,0.1513 0.06574,0.09 0.07147,0.1437 0.01565,0.2067 -0.10507,0.1185 -0.11088,0.3196 -0.0098,0.4823 0.171095,0.2857 0.51921,0.6185 0.74189,0.7114 0.11935,0.052 0.287865,0.1615 0.380665,0.2438 0.159625,0.1416 0.642055,0.3231 0.772485,0.2807 0.0308,-0.01 0.15973,0.029 0.28282,0.085 0.212534,0.089 0.242134,0.1157 0.341414,0.3028 0.21714,0.3908 0.14988,0.5642 -0.544359,1.3545 l -0.38468,0.4413 0.14469,0.1283 c 0.196745,0.1745 0.199255,0.3214 0.01635,0.5052 -0.165905,0.1647 -0.345235,0.4564 -0.348885,0.5727 -0.0116,0.1103 0.251205,0.3299 0.434315,0.3852 0.129,0.034 0.153935,0.051 0.11137,0.099 -0.02255,0.025 -0.0302,0.1313 -0.0176,0.2442 0.01285,0.1052 0.0015,0.253 -0.0224,0.3246 -0.048,0.1289 0.03025,0.2652 0.10601,0.1798 0.0263,-0.022 0.03925,0.01 0.03315,0.075 -0.0054,0.081 0.022,0.1321 0.104775,0.1733 0.06896,0.035 0.09655,0.086 0.08328,0.1006 -0.01595,0.018 0.0293,0.071 0.1054,0.1202 0.160964,0.1027 0.166244,0.2466 0.0213,0.41 -0.128985,0.1454 -0.04185,0.3014 0.338414,0.6055 0.26198,0.2056 0.32687,0.2444 0.56848,0.2711 l 0.27973,0.028 -0.10504,0.1184 c -0.10506,0.1185 -0.18138,0.4887 -0.14946,0.7294 0.0121,0.091 0.0507,0.1522 0.13116,0.1887 0.0652,0.031 0.18229,0.1162 0.27165,0.1874 0.0817,0.072 0.20541,0.1421 0.25925,0.1711 0.0642,0.025 0.095,0.058 0.0684,0.087 -0.0199,0.022 0.0198,0.09 0.0867,0.1492 0.0965,0.086 0.20573,0.097 0.57067,0.082 0.24933,-0.012 0.51147,-0.03 0.58436,-0.045 0.17714,-0.027 0.21526,0.012 0.13995,0.1562 -0.0317,0.066 -0.056,0.2354 -0.0472,0.3825 0.002,0.1468 0.004,0.3687 -0.006,0.4923 -0.001,0.1435 0.0254,0.2556 0.081,0.3049 0.0482,0.043 0.10227,0.064 0.1182,0.046 0.016,-0.018 0.0799,-0.015 0.13877,0.016 0.0578,0.024 0.1718,0.046 0.25494,0.041 0.13274,-10e-5 0.14394,0.01 0.12098,0.081 -0.0453,0.1259 0.11207,0.2252 0.33218,0.2088 0.192,-0.014 0.35394,0.094 0.27408,0.1843 -0.0199,0.022 0.0219,0.073 0.10563,0.1204 0.17132,0.098 0.78878,0.083 1.08072,-0.03 0.10732,-0.039 0.20634,-0.061 0.22119,-0.047 0.0185,0.016 0.13599,-0.019 0.26298,-0.072 0.13069,-0.05 0.273,-0.076 0.32368,-0.051 0.0504,0.018 0.11798,0.024 0.15573,0 0.0376,-0.02 0.073,-0.01 0.0859,0.023 0.009,0.034 0.0502,0.018 0.0928,-0.03 0.0465,-0.053 0.0322,0.069 -0.0394,0.3363 -0.13178,0.5001 -0.13706,0.6481 -0.0182,0.7534 0.0446,0.039 0.0694,0.094 0.0455,0.1207 -0.0199,0.023 -0.0444,0.1321 -0.0522,0.2455 -0.0111,0.1696 0.006,0.2172 0.13553,0.3184 0.16334,0.1448 0.48221,0.1893 0.6248,0.1033 0.0914,-0.058 0.0951,-0.055 0.0874,0.051 -0.0146,0.1585 0.17274,0.2389 0.39983,0.1698 0.1238,-0.035 0.24268,-0.1164 0.35797,-0.2464 0.18432,-0.2078 0.24404,-0.2079 0.21129,0.016 -0.0494,0.3474 0.46395,0.4117 0.86782,0.1134 0.19841,-0.149 0.25014,-0.2226 0.53312,-0.7211 l 0.0657,-0.1265 0.0574,0.2571 c 0.0628,0.2807 0.17157,0.412 0.31791,0.3891 0.0525,-0.01 0.0994,0.01 0.10725,0.036 0.005,0.032 0.0998,-0.045 0.19782,-0.1559 l 0.18442,-0.208 0.18577,0.1648 0.18555,0.1645 -0.29626,0.3341 c -0.1746,0.1969 -0.28169,0.3472 -0.25943,0.367 0.0222,0.019 -0.35781,0.4782 -1.06856,1.2871 -0.61236,0.6905 -1.30807,1.5124 -1.54922,1.8292 -0.24106,0.3166 -0.51491,0.6706 -0.60999,0.7852 -0.0909,0.1176 -0.34248,0.4458 -0.5572,0.7327 -0.2152,0.28 -0.63606,0.8221 -0.92601,1.2014 -0.71847,0.9148 -1.10151,1.4441 -1.25072,1.7095 -0.0668,0.1202 -0.24155,0.3695 -0.38519,0.5539 -0.58839,0.7382 -0.71184,0.9073 -0.72282,0.9571 -0.006,0.067 -3.18351,3.6493 -3.24569,3.6673 -0.0271,0.01 -0.338849,0.3225 -0.688659,0.702 -0.35352,0.3763 -0.99288,1.0296 -1.424695,1.4492 -0.428075,0.4229 -0.826291,0.8122 -0.882292,0.8754 -0.05692,0.057 -0.301718,0.3026 -0.547394,0.5423 -0.241972,0.2429 -0.639539,0.6465 -0.887739,0.904 -0.241271,0.2569 -0.484077,0.486 -0.524759,0.5094 -0.05843,0.028 -0.07022,0.072 -0.04158,0.1292 0.05513,0.1023 0.383654,0.068 0.439453,-0.055 0.05274,-0.1193 0.179503,-0.1725 0.261195,-0.1 0.0891,0.079 0.04917,0.2365 -0.111733,0.4179 -0.07979,0.09 -0.135434,0.2051 -0.137051,0.2966 l -0.0079,0.151 0.137829,-0.1108 c 0.07736,-0.057 0.217419,-0.1852 0.31049,-0.2751 0.09659,-0.094 0.203929,-0.1703 0.238987,-0.1725 0.04216,-0.01 0.104496,-0.065 0.159389,-0.157 0.05058,-0.094 0.107618,-0.151 0.139123,-0.1418 0.03553,0 0.121392,-0.077 0.20944,-0.1989 0.08062,-0.1133 0.276163,-0.319 0.426123,-0.4578 0.153513,-0.1358 0.49892,-0.4729 0.76349,-0.7488 0.260795,-0.2793 0.678685,-0.6978 0.92435,-0.9374 0.378745,-0.3673 0.450735,-0.4561 0.4683,-0.5731 0.0161,-0.093 0.04055,-0.1355 0.08355,-0.1242 0.03185,0 0.148855,-0.093 0.25432,-0.2118 0.10905,-0.123 0.390083,-0.4102 0.625973,-0.6387 0.25885,-0.2545 0.43668,-0.4549 0.45382,-0.5193 0.0147,-0.054 0.0761,-0.1307 0.13701,-0.1771 0.2626,-0.1914 0.93955,-0.9173 2.70371,-2.914 1.99181,-2.2459 2.71111,-3.0868 3.71052,-4.3558 0.3366,-0.4244 0.69073,-0.8464 0.79108,-0.9297 0.10396,-0.087 0.35529,-0.4081 0.56931,-0.709 0.53719,-0.7703 1.36015,-1.8777 1.57782,-2.1157 0.0492,-0.055 0.0798,-0.1275 0.0718,-0.1559 -0.0138,-0.044 0.0101,-0.063 0.0731,-0.074 0.0693,-0.011 0.0931,-0.038 0.0918,-0.1114 0.004,-0.064 0.0904,-0.1917 0.2356,-0.348 0.13273,-0.1421 0.22586,-0.277 0.21695,-0.3117 -0.0182,-0.062 0.0961,-0.2132 0.14064,-0.1737 0.0408,0.036 0.40392,-0.358 0.38619,-0.4204 -0.009,-0.035 0.0498,-0.1084 0.13328,-0.1802 0.0999,-0.083 0.1874,-0.2114 0.26709,-0.4059 0.0642,-0.1547 0.17646,-0.3412 0.24604,-0.4122 0.0793,-0.074 0.111,-0.1399 0.086,-0.1567 -0.069,-0.034 0.28141,-0.407 0.39633,-0.4242 0.10143,-0.017 0.30845,-0.3629 0.24906,-0.4156 -0.0186,-0.016 0.0292,-0.1 0.10843,-0.1894 0.1839,-0.2149 0.33566,-0.4384 0.501,-0.7295 0.0724,-0.134 0.19289,-0.2998 0.2554,-0.3703 0.18527,-0.1938 0.2929,-0.3901 0.28202,-0.5124 -0.003,-0.1016 0.004,-0.1092 0.0903,-0.065 0.0764,0.041 0.10363,0.033 0.12054,-0.046 0.011,-0.057 0.0945,-0.1814 0.18343,-0.2818 0.0851,-0.096 0.25709,-0.3422 0.38204,-0.5429 0.12509,-0.2009 0.33544,-0.5054 0.47284,-0.6752 0.13366,-0.1731 0.27232,-0.3818 0.30273,-0.4609 0.0309,-0.08 0.11828,-0.1935 0.19525,-0.2579 0.0763,-0.064 0.21782,-0.238 0.31075,-0.3876 0.22091,-0.3612 0.81105,-1.0116 0.9232,-1.0183 0.14074,-0.01 0.20834,0.2436 0.21854,0.8303 0.009,0.439 0.13437,1.1871 0.20861,1.253 0.0111,0.01 0.0451,0.1659 0.0701,0.3472 0.0292,0.1839 0.082,0.4308 0.12084,0.5515 0.0391,0.1204 0.0936,0.388 0.12681,0.5898 0.0337,0.2013 0.0722,0.3825 0.087,0.3957 0.0185,0.016 0.0682,0.1997 0.11577,0.4078 0.0991,0.479 0.42314,1.0781 0.75109,1.3888 0.18932,0.1679 0.2687,0.3106 0.39492,0.602 0.087,0.2084 0.27232,0.56 0.40488,0.7769 0.21109,0.3453 0.30911,0.459 0.736,0.8376 l 0.49388,0.438 0.19142,-0.037 c 0.20822,-0.04 0.31787,0.038 0.4547,0.3176 0.0596,0.1198 0.12251,0.1756 0.35835,0.2911 0.30905,0.175 0.51615,0.166 0.55745,-0.023 0.0459,-0.179 0.0942,-0.1887 0.2426,-0.057 0.18189,0.1613 0.37342,0.2374 0.59419,0.2352 0.0946,0 0.28865,0.063 0.43374,0.1463 0.2767,0.1516 0.51747,0.2393 0.60313,0.21 0.0309,-0.01 0.14789,-0.1072 0.26429,-0.2234 0.17962,-0.1723 0.22727,-0.256 0.30893,-0.535 0.10516,-0.3578 0.13356,-0.4125 0.14096,-0.2864 0.003,0.049 0.027,0.1042 0.0567,0.1306 0.0891,0.079 0.27106,0.7713 0.28089,1.0519 0.008,0.3053 0.0686,0.3788 0.30372,0.3605 0.13672,-0.01 0.20838,-0.049 0.32645,-0.1815 0.14813,-0.167 0.15581,-0.1666 0.16925,-0.056 0.0172,0.1599 0.20524,0.4938 0.35372,0.6255 0.13734,0.1218 0.28826,0.1163 0.3442,-0.01 0.0554,-0.1223 0.11449,-0.1503 0.17131,-0.081 0.072,0.091 0.40578,0.1482 0.60375,0.1044 0.42679,-0.092 0.69878,-0.362 0.76302,-0.7561 0.0438,-0.2663 0.11221,-0.4108 0.16798,-0.3613 0.015,0.014 0.093,0.1869 0.17392,0.3873 0.14815,0.3564 0.53508,0.8924 0.69339,0.9532 0.0467,0.014 0.0907,-0.01 0.10509,-0.051 0.0182,-0.051 0.0863,-0.076 0.16842,-0.07 0.0778,0 0.16392,-0.012 0.19784,-0.036 0.0296,-0.027 0.10354,-0.08 0.16494,-0.1189 0.16508,-0.1188 0.28182,-0.3999 0.35265,-0.861 0.0362,-0.2278 0.0904,-0.4237 0.1147,-0.4287 0.0265,-0.01 0.0965,0.018 0.14854,0.065 0.12625,0.112 0.35475,0.1084 0.41081,-0.01 0.0254,-0.05 0.15548,-0.1603 0.28051,-0.2417 0.22692,-0.1438 0.3785,-0.3148 0.43802,-0.4939 0.0203,-0.068 0.0766,-0.071 0.23099,-0.028 0.12897,0.034 0.25414,0.027 0.33587,-0.02 0.11588,-0.063 0.12456,-0.096 0.0995,-0.2769 -0.0292,-0.1839 -0.0192,-0.2099 0.13209,-0.3208 0.0868,-0.068 0.233,-0.1579 0.32187,-0.1983 0.13919,-0.075 0.15647,-0.094 0.13645,-0.1841 -0.0145,-0.058 0.004,-0.1682 0.0312,-0.2441 0.0452,-0.126 0.10291,-0.1686 0.39363,-0.2944 0.40769,-0.1755 0.47058,-0.2989 0.26277,-0.4832 -0.1522,-0.135 -0.14265,-0.1533 0.0693,-0.1903 0.15291,-0.03 0.18342,-0.057 0.30341,-0.2744 0.0762,-0.1307 0.1658,-0.2843 0.19793,-0.3353 0.0387,-0.065 0.02,-0.2019 -0.0566,-0.4147 -0.0627,-0.1762 -0.0938,-0.343 -0.0711,-0.3685 0.0784,-0.089 -0.0738,-0.2985 -0.35125,-0.4642 -0.2185,-0.135 -0.90591,-0.6909 -1.00105,-0.8155 -0.0186,-0.016 0.075,0.013 0.20177,0.072 0.33005,0.1588 1.25738,0.8033 1.56996,1.094 0.24501,0.2173 0.27446,0.2437 0.43473,0.2275 0.11524,-0.011 0.20868,0.019 0.29035,0.091 0.14844,0.1316 0.57959,0.169 0.67838,0.058 0.0399,-0.045 0.0592,-0.1939 0.0503,-0.3334 -0.0115,-0.1441 -0.006,-0.3368 0.0131,-0.4258 0.0187,-0.096 0.0395,-0.2167 0.0434,-0.2733 0.0165,-0.1381 0.066,-0.1343 0.30955,0.017 0.30688,0.1998 0.46367,0.2397 0.60754,0.1673 0.0755,-0.04 0.22207,-0.1082 0.3316,-0.1571 0.30468,-0.1342 0.44351,-0.3358 0.39718,-0.5825 -0.0532,-0.299 0.0838,-0.4235 0.39318,-0.3612 0.28771,0.057 0.43455,0.041 0.62816,-0.073 0.20044,-0.1139 0.27076,-0.3499 0.15188,-0.5151 -0.11896,-0.1725 -0.11689,-0.1974 0.0146,-0.2334 0.0696,-0.018 0.19226,-0.089 0.27571,-0.1535 0.077,-0.066 0.2046,-0.1634 0.27829,-0.2241 0.11434,-0.091 0.12983,-0.1313 0.094,-0.248 -0.0232,-0.101 -10e-4,-0.1936 0.0796,-0.3141 0.10642,-0.1574 0.1441,-0.1776 0.37121,-0.2017 0.31058,-0.036 0.37677,-0.1033 0.35395,-0.3689 -0.0126,-0.1504 -0.0601,-0.2462 -0.18787,-0.3863 -0.16491,-0.173 -0.17595,-0.2953 -0.0276,-0.2682 0.10277,0.019 0.39064,-0.1113 0.52397,-0.2317 0.60631,-0.5565 0.66281,-0.6725 0.42524,-0.8832 -0.13,-0.1153 -0.13,-0.1153 0.0117,-0.2228 0.15756,-0.1254 0.19115,-0.3279 0.0687,-0.4365 -0.10016,-0.089 -0.004,-0.3017 0.17586,-0.4076 0.21401,-0.1217 0.2751,-0.28 0.19273,-0.4789 -0.0614,-0.1401 -0.0533,-0.1866 0.0455,-0.298 0.15808,-0.1782 0.17751,-0.4394 0.0393,-0.6948 -0.1194,-0.2318 -0.11766,-0.249 0.0292,-0.2725 0.0551,-0.01 0.25621,-0.064 0.44952,-0.1253 0.39657,-0.1256 0.42221,-0.1693 0.26803,-0.5115 -0.0525,-0.1054 -0.0699,-0.2281 -0.0404,-0.2689 0.0257,-0.044 0.0288,-0.1593 0.0127,-0.2608 -0.0166,-0.1085 -0.0102,-0.2207 0.0229,-0.258 0.0333,-0.037 0.0694,-0.1903 0.0855,-0.3357 0.0203,-0.2472 0.042,-0.2941 0.23722,-0.4991 l 0.21363,-0.2349 -0.0845,-0.1741 c -0.0596,-0.1198 -0.17983,-0.2532 -0.40207,-0.4288 -0.0137,-0.012 -0.0245,-0.022 -0.0373,-0.033 -0.0462,-0.1401 -0.15331,-0.439 -0.042,-0.7209 0.19004,-0.4816 -0.15644,-0.4503 -0.14708,-0.6865 0.002,-0.075 -0.0122,-0.1207 -0.042,-0.1578 0.0542,-0.067 0.001,-0.1007 -0.0979,-0.087 -0.051,-0.046 -0.11545,-0.1024 -0.17863,-0.2119 0.0117,-0.041 0.009,-0.1181 -0.0119,-0.2276 -0.01,-0.048 -0.0129,-0.097 -0.0112,-0.1438 0.0734,-0.029 0.17564,-0.04 0.22123,-0.1148 0.0961,-0.1585 0.11167,-0.1501 0.12935,-0.5973 0.007,-0.184 -0.01,-0.2804 -0.0307,-0.3318 0.0208,-0.065 0.0133,-0.074 -0.0613,-0.054 -0.003,0 -0.004,0 -0.004,0 0,0 -0.0619,-0.111 -0.1255,-0.264 -0.0126,-0.097 -0.0326,-0.1789 -0.051,-0.1952 -0.0186,-0.016 0.0197,-0.082 0.0868,-0.1426 0.10227,-0.094 0.10504,-0.1185 0.0274,-0.1955 -0.0489,-0.043 -0.13555,-0.1202 -0.18506,-0.1908 0.003,-0.061 0.002,-0.1081 -5e-4,-0.1506 0.006,0.01 0.0135,0.012 0.021,0.018 0.0979,0.046 0.10371,0.025 0.0731,-0.3067 -0.0179,-0.249 -0.005,-0.3828 0.0538,-0.4497 0.0465,-0.053 0.0701,-0.1093 0.0481,-0.1288 -0.0186,-0.016 -0.0798,0.015 -0.13558,0.078 -0.0132,0.015 -0.014,0.014 -0.021,0.022 -0.0516,-0.046 -0.1165,-0.1033 -0.14225,-0.2681 0.0192,-0.034 0.0535,-0.079 0.10538,-0.1369 0.125,-0.141 0.14948,-0.1988 0.10886,-0.2348 -0.0408,-0.036 -0.0955,0 -0.20376,0.1177 -0.0132,0.015 -0.0208,0.024 -0.0294,0.035 -0.007,-0.4936 0.18801,-0.3637 0.18801,-0.3637 0,0 -0.0571,-0.077 -0.20407,-0.2907 -0.008,-0.036 -0.0366,-0.081 -0.0814,-0.123 -0.0525,-0.081 -0.11555,-0.1828 -0.18521,-0.2955 -0.003,-0.01 0.009,-0.019 0.006,-0.022 5e-4,-0.053 0.0223,-0.093 0.0478,-0.092 0.0238,-0.01 0.0196,-0.028 -0.0182,-0.062 -0.0335,-0.03 -0.0479,-0.088 -0.0335,-0.1341 0.0187,-0.043 -0.001,-0.095 -0.0531,-0.1196 -0.054,-0.021 -0.0837,-0.048 -0.0705,-0.062 0.0588,-0.06 0.16244,-0.049 0.34687,0.043 0.10787,0.05 0.20905,0.078 0.21834,0.068 0.0359,-0.041 0.11377,-0.6816 0.095,-0.8174 -0.0116,-0.069 -0.052,-0.2256 -0.0978,-0.3385 -0.038,-0.1141 -0.0821,-0.3113 -0.0826,-0.4379 -0.0119,-0.2034 0.004,-0.2432 0.15019,-0.3712 0.15351,-0.1357 0.1566,-0.1391 0.0406,-0.1354 -0.10859,0 -0.14552,0.037 -0.32579,0.3076 -0.10939,0.1682 -0.21231,0.3293 -0.22788,0.3618 -0.0126,0.029 -0.04,0.045 -0.0623,0.025 -0.0186,-0.017 -0.002,-0.095 0.0485,-0.182 0.12087,-0.2111 0.16209,-0.4067 0.15803,-0.7088 -0.007,-0.1641 -0.0329,-0.2622 -0.0871,-0.2834 -0.0429,-0.011 -0.0869,-0.1038 -0.10667,-0.1937 -0.0213,-0.118 -0.0637,-0.1824 -0.15019,-0.227 -0.15646,-0.085 -0.55335,-0.139 -0.68392,-0.089 -0.0582,0.021 -0.11623,0.041 -0.12659,0.045 -0.007,-0.01 -0.0572,-0.077 -0.0955,-0.1838 l -0.0713,-0.189 -0.15027,0.028 c -0.0874,0.016 -0.21041,0.065 -0.27102,0.1111 -0.13504,0.1 -0.22211,0.1011 -0.22924,-0.01 -0.008,-0.1408 -0.14211,-0.2065 -0.44158,-0.2202 -0.47217,-0.021 -1.24806,0.054 -1.3107,0.1244 -0.0332,0.037 -0.0812,0.062 -0.10914,0.056 -0.0281,0 -0.28553,0.1049 -0.57632,0.2384 -0.71481,0.3274 -1.06477,0.4678 -1.09447,0.4415 -0.0148,-0.013 -0.13684,0.01 -0.27218,0.038 -0.3943,0.1081 -0.8179,0.1896 -0.84017,0.1699 -0.0111,-0.01 -0.0295,-0.072 -0.0396,-0.1424 -0.019,-0.076 -0.004,-0.1155 0.0385,-0.1105 0.0356,0 0.29916,-0.2254 0.61106,-0.5322 0.47126,-0.4641 0.61925,-0.5783 1.02701,-0.8137 0.79465,-0.4623 0.98675,-0.5968 1.24199,-0.8547 0.12875,-0.1377 0.33998,-0.3085 0.45529,-0.3787 0.24409,-0.1481 0.28429,-0.2386 0.2863,-0.6148 -0.003,-0.1686 -0.0196,-0.2022 -0.1806,-0.3048 -0.0986,-0.061 -0.27754,-0.1283 -0.39565,-0.1447 -0.12449,-0.016 -0.23821,-0.045 -0.26049,-0.065 -0.0446,-0.04 0.0407,-0.1435 0.10782,-0.1294 0.11044,0.017 0.67252,-0.1601 0.96613,-0.3042 0.26967,-0.1321 0.31977,-0.1736 0.39796,-0.3365 0.10971,-0.2209 0.14218,-0.3847 0.0865,-0.4341 -0.0223,-0.02 -0.0441,-0.085 -0.0395,-0.1421 0.005,-0.1403 -0.39181,-0.4333 -0.66175,-0.4878 -0.11041,-0.017 -0.214,-0.051 -0.23255,-0.067 -0.0223,-0.019 0.0862,-0.09 0.23998,-0.1584 0.19076,-0.088 0.33649,-0.1923 0.47158,-0.3446 0.16784,-0.1893 0.18955,-0.2365 0.15408,-0.3609 -0.0497,-0.1833 -0.21617,-0.272 -0.48622,-0.2517 -0.25198,0.015 -0.2685,-0.026 -0.0549,-0.1478 0.12916,-0.078 0.16142,-0.122 0.19574,-0.2579 0.0574,-0.2143 -0.0946,-0.5811 -0.27651,-0.6826 -0.0875,-0.051 -0.12247,-0.1086 -0.1226,-0.1758 0.008,-0.1588 -0.14465,-0.2407 -0.40064,-0.2213 -0.133,0.01 -0.25672,0.01 -0.27156,-0.01 -0.0148,-0.013 0.0299,-0.094 0.0991,-0.1719 0.19427,-0.2191 0.2344,-0.3689 0.14355,-0.5357 -0.071,-0.1218 -0.13328,-0.1636 -0.41664,-0.2704 -0.18015,-0.066 -0.41083,-0.1126 -0.50511,-0.1035 -0.0974,0.013 -0.32469,0.037 -0.50979,0.059 l -0.33155,0.037 0.14535,-0.1041 c 0.39405,-0.2873 0.49309,-0.3916 0.60251,-0.6196 0.0621,-0.1299 0.14123,-0.2863 0.17611,-0.348 0.0916,-0.1706 0.12441,-0.6191 0.0513,-0.7236 -0.0848,-0.1286 -0.56708,-0.243 -0.79214,-0.1986 -0.30198,0.064 -0.29468,0 0.0252,-0.3425 0.26758,-0.2866 0.28964,-0.3266 0.2932,-0.5026 0.009,-0.3237 -0.15681,-0.3989 -0.66792,-0.2937 -0.1737,0.039 -0.17745,0.035 -0.10426,-0.047 0.10793,-0.1292 0.13377,-0.2927 0.0595,-0.3586 -0.0371,-0.033 -0.0686,-0.1546 -0.0759,-0.2735 -0.01,-0.2283 -0.11475,-0.3268 -0.44705,-0.4232 -0.12525,-0.031 -0.17236,-0.067 -0.17546,-0.1235 -0.008,-0.1331 -0.0937,-0.1636 -0.27439,-0.1095 l -0.1729,0.053 0.0391,-0.1635 c 0.1083,-0.4212 0.0353,-0.6981 -0.18141,-0.6782 -0.49272,0.047 -1.52658,0.3308 -1.70826,0.4684 -0.0943,0.069 -0.12899,0.07 -0.20134,-0.013 -0.0631,-0.056 -0.0663,-0.1123 -0.0219,-0.14 0.034,-0.024 0.18266,-0.176 0.33092,-0.3432 0.31971,-0.3529 0.45918,-0.6672 0.41392,-0.9527 -0.0469,-0.3135 -0.1715,-0.3449 -0.5747,-0.1445 -0.10917,0.056 -0.11549,0.056 -0.0753,-0.034 0.11058,-0.2668 0.11146,-0.3651 -0.004,-0.4672 -0.0631,-0.056 -0.1168,-0.1303 -0.11839,-0.1584 -0.002,-0.034 -0.028,-0.073 -0.0664,-0.1044 z m 3.25265,7.278 c 0.0351,0.031 10e-4,0.1247 -0.0779,0.1719 -0.051,0.035 -0.10992,0.042 -0.12849,0.026 -0.0371,-0.033 0.0971,-0.1989 0.17033,-0.2068 0.0216,-0.01 0.0301,-10e-5 0.0382,0.01 z m 5.25697,11.8897 c 0.046,0.041 0.0576,0.078 0.0587,0.098 -0.0133,-0.039 -0.0384,-0.063 -0.0587,-0.098 z m -42.297461,-10.6387 c 0.008,0.01 0.0156,0.014 0.0097,0.035 0.0025,0.042 -0.07202,0.089 -0.18232,0.1233 -0.10705,0.031 -0.173745,0.039 -0.16016,0.016 0.09945,-0.1448 0.282205,-0.2289 0.33101,-0.1728 z m -2.824167,49.0157 c 0.0078,0.01 0.007,0.033 0.01711,0.058 0.0071,0.052 -0.0068,0.1199 -0.03342,0.1499 -0.07577,0.085 -0.114762,-0.043 -0.0472,-0.1491 0.03432,-0.053 0.05323,-0.073 0.06492,-0.06 z"
     id="path8"
     inkscape:connector-curvature="0" />
  <path
     style="opacity:1;vector-effect:none;fill:none;fill-opacity:1;stroke:#000000;stroke-width:0.80000001;stroke-linecap:butt;stroke-linejoin:miter;stroke-miterlimit:4;stroke-dasharray:none;stroke-dashoffset:0;stroke-opacity:1"
     d="m 114.26203,1426.0855 c -0.30638,0.3455 -3.17346,4.3563 -3.17346,4.3563"
     id="path860"
     inkscape:connector-curvature="0" />
  <path
     style="opacity:1;vector-effect:none;fill:none;fill-opacity:1;stroke:#000000;stroke-width:0.80000001;stroke-linecap:butt;stroke-linejoin:miter;stroke-miterlimit:4;stroke-dasharray:none;stroke-dashoffset:0;stroke-opacity:1"
     d="m 116.94246,1422.7847 c 1.99232,-8.2311 4.82798,-16.5782 5.69245,-18.5272 0.86429,-1.9488 5.78874,-14.7388 5.78874,-14.7388"
     id="path862"
     inkscape:connector-curvature="0" />
  <path
     style="opacity:1;vector-effect:none;fill:none;fill-opacity:1;stroke:#000000;stroke-width:0.6;stroke-linecap:butt;stroke-linejoin:miter;stroke-miterlimit:4;stroke-dasharray:none;stroke-dashoffset:0;stroke-opacity:1"
     d="m 117.98533,1422.7223 c 4.65941,-3.027 23.43715,-6.2462 23.43715,-6.2462"
     id="path864"
     inkscape:connector-curvature="0" />
  <path
     style="opacity:1;vector-effect:none;fill:none;fill-opacity:1;stroke:#000000;stroke-width:0.80000001;stroke-linecap:butt;stroke-linejoin:miter;stroke-miterlimit:4;stroke-dasharray:none;stroke-dashoffset:0;stroke-opacity:1"
     d="m 115.51621,1423.0012 c -2.78957,-5.0662 -5.88684,-10.8988 -6.53995,-11.9717 -0.65311,-1.0728 -7.16046,-11.4111 -7.16046,-11.4111"
     id="path866"
     inkscape:connector-curvature="0" />
  <path
     style="opacity:1;vector-effect:none;fill:none;fill-opacity:1;stroke:#000000;stroke-width:0.6;stroke-linecap:butt;stroke-linejoin:miter;stroke-miterlimit:4;stroke-dasharray:none;stroke-dashoffset:0;stroke-opacity:1"
     d="m 119.27636,1411.524 c -2.76333,-8.9927 -5.73531,-19.2811 -5.73531,-19.2811"
     id="path868"
     inkscape:connector-curvature="0" />
  <path
     style="opacity:1;vector-effect:none;fill:none;fill-opacity:1;stroke:#000000;stroke-width:0.6;stroke-linecap:butt;stroke-linejoin:miter;stroke-miterlimit:4;stroke-dasharray:none;stroke-dashoffset:0;stroke-opacity:1"
     d="m 121.85267,1404.3045 c -2.85475,-8.3329 -3.42156,-14.5136 -3.42156,-14.5136"
     id="path870"
     inkscape:connector-curvature="0" />
  <path
     style="opacity:1;vector-effect:none;fill:none;fill-opacity:1;stroke:#000000;stroke-width:0.6;stroke-linecap:butt;stroke-linejoin:miter;stroke-miterlimit:4;stroke-dasharray:none;stroke-dashoffset:0;stroke-opacity:1"
     d="m 123.74053,1398.6963 c -2.16371,-7.7203 -1.88327,-10.6809 -1.88327,-10.6809"
     id="path872"
     inkscape:connector-curvature="0" />
  <path
     style="opacity:1;vector-effect:none;fill:none;fill-opacity:1;stroke:#000000;stroke-width:0.6;stroke-linecap:butt;stroke-linejoin:miter;stroke-miterlimit:4;stroke-dasharray:none;stroke-dashoffset:0;stroke-opacity:1"
     d="m 126.08868,1393.1258 c -0.70128,-2.9671 -1.14049,-4.8379 -1.14049,-4.8379"
     id="path874"
     inkscape:connector-curvature="0" />
  <path
     style="opacity:1;vector-effect:none;fill:none;fill-opacity:1;stroke:#000000;stroke-width:0.6;stroke-linecap:butt;stroke-linejoin:miter;stroke-miterlimit:4;stroke-dasharray:none;stroke-dashoffset:0;stroke-opacity:1"
     d="m 120.44313,1412.4353 c 4.52773,-4.1311 16.77569,-10.426 16.77569,-10.426"
     id="path876"
     inkscape:connector-curvature="0" />
  <path
     style="opacity:1;vector-effect:none;fill:none;fill-opacity:1;stroke:#000000;stroke-width:0.6;stroke-linecap:butt;stroke-linejoin:miter;stroke-miterlimit:4;stroke-dasharray:none;stroke-dashoffset:0;stroke-opacity:1"
     d="m 123.57866,1404.7243 c 2.15368,-1.1758 11.24043,-8.9165 11.24043,-8.9165"
     id="path878"
     inkscape:connector-curvature="0" />
  <path
     style="opacity:1;vector-effect:none;fill:none;fill-opacity:1;stroke:#000000;stroke-width:0.6;stroke-linecap:butt;stroke-linejoin:miter;stroke-miterlimit:4;stroke-dasharray:none;stroke-dashoffset:0;stroke-opacity:1"
     d="m 125.93328,1398.1723 c 1.0273,-0.3233 6.28131,-6.5259 6.28131,-6.5259"
     id="path880"
     inkscape:connector-curvature="0" />
  <path
     style="opacity:1;vector-effect:none;fill:none;fill-opacity:1;stroke:#000000;stroke-width:0.6;stroke-linecap:butt;stroke-linejoin:miter;stroke-miterlimit:4;stroke-dasharray:none;stroke-dashoffset:0;stroke-opacity:1"
     d="m 127.53049,1393.1702 c 1.17199,-1.1823 2.33616,-2.495 2.33616,-2.495"
     id="path882"
     inkscape:connector-curvature="0" />
  <path
     style="opacity:1;vector-effect:none;fill:none;fill-opacity:1;stroke:#000000;stroke-width:0.6;stroke-linecap:butt;stroke-linejoin:miter;stroke-miterlimit:4;stroke-dasharray:none;stroke-dashoffset:0;stroke-opacity:1"
     d="m 112.03037,1419.416 c -7.61836,-2.6832 -14.038761,-3.9337 -14.038761,-3.9337 v 0"
     id="path884"
     inkscape:connector-curvature="0" />
  <path
     style="opacity:1;vector-effect:none;fill:none;fill-opacity:1;stroke:#000000;stroke-width:0.6;stroke-linecap:butt;stroke-linejoin:miter;stroke-miterlimit:4;stroke-dasharray:none;stroke-dashoffset:0;stroke-opacity:1"
     d="m 109.62405,1414.1961 c -5.73068,-1.7498 -11.407986,-3.6989 -11.407986,-3.6989"
     id="path886"
     inkscape:connector-curvature="0" />
  <path
     style="opacity:1;vector-effect:none;fill:none;fill-opacity:1;stroke:#000000;stroke-width:0.6;stroke-linecap:butt;stroke-linejoin:miter;stroke-miterlimit:4;stroke-dasharray:none;stroke-dashoffset:0;stroke-opacity:1"
     d="m 106.4968,1408.954 c -5.83106,-2.3325 -8.201101,-2.5828 -8.201101,-2.5828"
     id="path888"
     inkscape:connector-curvature="0" />
  <path
     style="opacity:1;vector-effect:none;fill:none;fill-opacity:1;stroke:#000000;stroke-width:0.6;stroke-linecap:butt;stroke-linejoin:miter;stroke-miterlimit:4;stroke-dasharray:none;stroke-dashoffset:0;stroke-opacity:1"
     d="m 103.63032,1403.6963 c -1.6882,-0.88 -4.664426,-1.4211 -4.664426,-1.4211"
     id="path890"
     inkscape:connector-curvature="0" />
  <path
     style="opacity:1;vector-effect:none;fill:none;fill-opacity:1;stroke:#000000;stroke-width:0.6;stroke-linecap:butt;stroke-linejoin:miter;stroke-miterlimit:4;stroke-dasharray:none;stroke-dashoffset:0;stroke-opacity:1"
     d="m 104.93267,1402.5062 c 0.17483,-1.4498 0.25578,-4.4638 0.25578,-4.4638"
     id="path892"
     inkscape:connector-curvature="0" />
  <path
     style="opacity:1;vector-effect:none;fill:none;fill-opacity:1;stroke:#000000;stroke-width:0.6;stroke-linecap:butt;stroke-linejoin:miter;stroke-miterlimit:4;stroke-dasharray:none;stroke-dashoffset:0;stroke-opacity:1"
     d="m 107.85265,1407.5644 c 0.0341,-3.7963 0.0122,-9.6171 0.0122,-9.6171"
     id="path894"
     inkscape:connector-curvature="0" />
  <path
     style="opacity:1;vector-effect:none;fill:none;fill-opacity:1;stroke:#000000;stroke-width:0.6;stroke-linecap:butt;stroke-linejoin:miter;stroke-miterlimit:4;stroke-dasharray:none;stroke-dashoffset:0;stroke-opacity:1"
     d="m 111.02564,1412.4766 c -0.38436,-7.4999 -0.87578,-8.0592 -0.87578,-8.0592"
     id="path896"
     inkscape:connector-curvature="0"
     sodipodi:nodetypes="cc" />
  <path
     style="opacity:1;vector-effect:none;fill:none;fill-opacity:1;stroke:#000000;stroke-width:0.6;stroke-linecap:butt;stroke-linejoin:miter;stroke-miterlimit:4;stroke-dasharray:none;stroke-dashoffset:0;stroke-opacity:1"
     d="m 113.60794,1417.3588 c -1.07655,-9.2245 -0.5094,-9.5856 -0.5094,-9.5856"
     id="path898"
     inkscape:connector-curvature="0"
     sodipodi:nodetypes="cc" />
  <path
     style="opacity:1;vector-effect:none;fill:none;fill-opacity:1;stroke:#000000;stroke-width:0.80000001;stroke-linecap:butt;stroke-linejoin:miter;stroke-miterlimit:4;stroke-dasharray:none;stroke-dashoffset:0;stroke-opacity:1"
     d="m 119.90939,1410.476 -3.48252,11.2395"
     id="path900"
     inkscape:connector-curvature="0" />
  <path
     style="opacity:1;vector-effect:none;fill:none;fill-opacity:1;stroke:#000000;stroke-width:0.80000001;stroke-linecap:butt;stroke-linejoin:miter;stroke-miterlimit:4;stroke-dasharray:none;stroke-dashoffset:0;stroke-opacity:1"
     d="m 110.98413,1414.9278 3.72072,8.7294"
     id="path902"
     inkscape:connector-curvature="0" />
</svg>
