<?xml version="1.0" encoding="UTF-8" standalone="no"?>
<svg
   xmlns:dc="http://purl.org/dc/elements/1.1/"
   xmlns:cc="http://creativecommons.org/ns#"
   xmlns:rdf="http://www.w3.org/1999/02/22-rdf-syntax-ns#"
   xmlns:svg="http://www.w3.org/2000/svg"
   xmlns="http://www.w3.org/2000/svg"
   xmlns:sodipodi="http://sodipodi.sourceforge.net/DTD/sodipodi-0.dtd"
   xmlns:inkscape="http://www.inkscape.org/namespaces/inkscape"
   version="1.0"
   width="11in"
   height="8.5in"
   viewBox="0 0 792 612"
   preserveAspectRatio="xMidYMid meet"
   id="svg696"
   sodipodi:docname="oak_leaves.svg"
   inkscape:version="0.92.3 (2405546, 2018-03-11)"
   inkscape:export-filename="/home/bcrowell/Documents/tahquitz/figs/oak_leaves.png"
   inkscape:export-xdpi="300"
   inkscape:export-ydpi="300">
  <defs
     id="defs700" />
  <sodipodi:namedview
     pagecolor="#ffffff"
     bordercolor="#666666"
     borderopacity="1"
     objecttolerance="10"
     gridtolerance="10"
     guidetolerance="10"
     inkscape:pageopacity="0"
     inkscape:pageshadow="2"
     inkscape:window-width="1280"
     inkscape:window-height="996"
     id="namedview698"
     showgrid="false"
     showguides="false"
     inkscape:zoom="1.2855836"
     inkscape:cx="579.14877"
     inkscape:cy="678.81739"
     inkscape:window-x="0"
     inkscape:window-y="0"
     inkscape:window-maximized="1"
     inkscape:current-layer="svg696"
     units="in"
     inkscape:snap-global="false" />
  <metadata
     id="metadata2">
Created by potrace 1.15, written by Peter Selinger 2001-2017
<rdf:RDF>
  <cc:Work
     rdf:about="">
    <dc:format>image/svg+xml</dc:format>
    <dc:type
       rdf:resource="http://purl.org/dc/dcmitype/StillImage" />
    <dc:title />
  </cc:Work>
</rdf:RDF>
</metadata>
  <path
     style="fill:#000000;stroke:none;stroke-width:0.00544383"
     d="m 674.36411,97.608167 c -0.32557,0.01092 -0.76658,0.312318 -0.58075,0.676969 0.28174,0.43039 1.14217,0.07812 0.98031,-0.42987 -0.0672,-0.151654 -0.23334,-0.256317 -0.39956,-0.247099 z"
     id="path70"
     inkscape:connector-curvature="0" />
  <path
     style="fill:#000000;stroke:none;stroke-width:0.00544383"
     d="m 674.64587,101.15877 c -0.38432,0.10549 -0.65322,0.46222 -0.94791,0.71737 -0.3271,0.36998 -0.76526,0.63237 -1.06716,1.022 -0.20056,0.28532 0.11588,0.69966 0.44242,0.55736 0.29675,-0.091 0.41245,-0.41334 0.68845,-0.53886 0.4388,-0.34299 0.90816,-0.69793 1.19615,-1.18105 0.0851,-0.23322 -0.0149,-0.58467 -0.31195,-0.57682 z"
     id="path72"
     inkscape:connector-curvature="0" />
  <path
     style="fill:#000000;stroke:none;stroke-width:0.00544383"
     d="m 672.10566,97.913638 c -0.37171,-0.0048 -0.56537,0.601868 -0.1733,0.735129 0.31883,0.202906 0.89781,-0.147388 0.68398,-0.528966 -0.0974,-0.184487 -0.32584,-0.20548 -0.51068,-0.206163 z"
     id="path74"
     inkscape:connector-curvature="0" />
  <path
     style="fill:#000000;stroke:none;stroke-width:0.00544383"
     d="m 672.8006,102.86571 c -0.63201,0.2179 -1.10205,0.7397 -1.66685,1.07835 -0.47228,0.3572 -1.07188,0.60856 -1.40256,1.13594 -0.35991,0.4105 -0.82515,0.91592 -0.70203,1.50601 0.17901,0.367 0.76129,0.13942 0.73545,-0.23869 0.10714,-0.3176 0.38939,-0.53721 0.54991,-0.82253 0.27252,-0.18578 0.52253,-0.42844 0.78754,-0.61892 0.61496,-0.25512 1.08381,-0.74093 1.59466,-1.14512 0.2571,-0.14837 0.58876,-0.51405 0.33992,-0.80296 -0.0625,-0.06 -0.14902,-0.0953 -0.23604,-0.0921 z"
     id="path76"
     inkscape:connector-curvature="0" />
  <path
     style="fill:#000000;stroke:none;stroke-width:0.00544383"
     d="m 668.55835,77.823474 c -1.24444,0.02515 -2.48881,0.129973 -3.72349,0.275594 -0.71437,0.16867 -1.32506,0.633781 -1.82326,1.154049 -0.23041,0.304836 -0.37385,0.670848 -0.70493,0.891107 -0.39277,0.30533 -0.72918,0.682412 -0.93027,1.139453 -0.52745,0.847116 -0.99713,1.734199 -1.67704,2.474769 -0.94013,1.147474 -2.12477,2.065647 -3.17615,3.11123 -1.92388,1.847975 -3.95749,3.618985 -5.51809,5.801265 -0.61591,0.837356 -1.31779,1.614962 -2.14619,2.246147 -0.89562,0.841867 -1.78114,1.696589 -2.75232,2.452061 -0.9936,0.915037 -1.71603,2.085107 -2.78676,2.921561 -0.80949,0.68493 -1.75005,1.27069 -2.32268,2.19606 -0.51533,0.71576 -0.96131,1.66366 -0.65442,2.54903 0.16141,0.29608 0.66864,0.17146 0.65528,-0.17437 -0.0105,-0.27435 0.003,-0.54477 0.16695,-0.7763 0.4779,-1.11077 1.27528,-2.08537 2.30805,-2.72192 1.07557,-0.79052 1.90901,-1.843834 2.78084,-2.839375 1.05849,-1.062521 2.27429,-1.955603 3.33225,-3.017567 0.82148,-0.614758 1.52187,-1.378703 2.07145,-2.243757 1.25252,-1.590139 2.6399,-3.073823 4.14801,-4.419863 1.19532,-1.166668 2.45597,-2.264361 3.66817,-3.412065 0.76535,-0.800146 1.4586,-1.676615 2.06079,-2.603041 0.31154,-0.626137 0.71065,-1.198553 1.15914,-1.731792 0.54688,-0.494998 0.93589,-1.127862 1.43859,-1.660818 0.47418,-0.448939 1.16424,-0.400403 1.76293,-0.48557 0.87326,-0.0608 1.74992,-0.07319 2.62307,-0.108892 0.29862,-0.01751 0.64604,-0.234058 0.55533,-0.575748 -0.0478,-0.23894 -0.26633,-0.441877 -0.51525,-0.441248 z"
     id="path78"
     inkscape:connector-curvature="0" />
  <path
     style="fill:#000000;stroke:none;stroke-width:0.00544383"
     d="m 672.92075,107.4684 c -0.44748,0.1074 -0.66441,0.59763 -0.90143,0.94977 -0.45177,0.69125 -1.13834,1.18737 -1.70204,1.78181 -1.15749,1.05762 -2.16839,2.35278 -3.59718,3.04877 -1.25358,0.4701 -2.5115,0.96707 -3.61998,1.73216 -1.01526,0.58751 -2.08586,1.08615 -3.11218,1.64205 -0.9105,0.39124 -1.91074,0.56462 -2.81697,0.9935 -0.91671,0.37816 -1.86457,0.68766 -2.81728,0.96564 -1.07041,0.22016 -2.20027,0.22663 -3.25199,0.57887 -1.48882,0.47717 -2.96019,0.99505 -4.47233,1.33394 -1.78675,0.54711 -3.53295,1.21882 -5.29706,1.83141 -1.56414,0.64981 -3.0004,1.66867 -3.99452,3.05302 -0.4236,0.49947 -0.87789,1.14048 -0.73172,1.82931 0.1292,0.43446 0.65257,0.64525 1.05392,0.44547 1.4876,-0.42713 2.99973,-0.7386 4.53685,-0.9339 0.2835,-0.0776 0.64706,-0.0649 0.85644,-0.27328 0.17909,-0.31652 -0.20838,-0.65197 -0.52074,-0.54725 -1.60494,0.14695 -3.19491,0.45578 -4.75446,0.8557 -0.13443,0.0278 -0.52995,0.20534 -0.36596,-0.0572 0.32759,-0.49778 0.66873,-0.98695 1.11694,-1.3885 1.24258,-1.22757 2.78634,-2.13771 4.46277,-2.6175 0.9089,-0.32267 1.83604,-0.59128 2.7385,-0.93342 1.53994,-0.51927 3.13438,-0.85404 4.6679,-1.39296 1.17483,-0.3918 2.38151,-0.60912 3.60845,-0.74927 1.56322,-0.19229 2.98267,-0.91353 4.42924,-1.48462 0.78053,-0.25721 1.59865,-0.41851 2.32325,-0.8261 0.92919,-0.51813 1.88425,-0.99022 2.81692,-1.49987 0.94591,-0.59393 1.91912,-1.16787 3.00069,-1.47694 0.98657,-0.32786 1.81163,-0.98302 2.54151,-1.70474 0.94182,-0.93605 1.92865,-1.81562 2.86903,-2.75218 0.45007,-0.51379 0.8999,-1.04966 1.20243,-1.66579 0.11038,-0.23322 0.19701,-0.6076 -0.12504,-0.71046 -0.0457,-0.0177 -0.0949,-0.0277 -0.14396,-0.0274 z"
     id="path80"
     inkscape:connector-curvature="0" />
  <path
     style="fill:#000000;stroke:none;stroke-width:0.00544383"
     d="m 665.42879,61.230438 c -0.5882,0.06473 -0.83771,0.691782 -1.15646,1.101738 -0.38393,0.592216 -0.6863,1.246317 -0.82618,1.935534 -0.32707,1.079796 -0.96758,2.025877 -1.34391,3.087332 -0.2988,0.65467 -0.36882,1.406768 -0.64149,2.041879 -0.13776,0.652234 -0.38618,1.324534 -0.36289,2.016661 -0.0516,0.497057 -0.16726,0.994067 -0.24709,1.494181 -0.19565,0.555261 -0.56605,1.025155 -0.78623,1.571338 -0.42416,0.784427 -0.83995,1.642476 -0.79078,2.557677 0.0302,0.438317 0.23525,0.935403 0.71088,1.036241 0.51301,0.113862 1.0349,-0.05734 1.55022,0.0082 0.53321,0.03054 1.25784,0.09906 1.60029,-0.415836 0.14229,-0.394725 -0.34524,-0.673492 -0.68537,-0.577343 -0.68177,0.0055 -1.35992,0.258858 -2.03059,0.213925 -0.39193,-0.227209 -0.15004,-0.703742 -0.0683,-1.033221 0.32478,-1.103423 1.05066,-2.032075 1.44245,-3.104481 0.21126,-0.770293 0.32551,-1.563846 0.33343,-2.361432 0.0873,-0.769043 0.4819,-1.459118 0.63676,-2.214603 0.0779,-0.651302 0.5197,-1.167361 0.6792,-1.793166 0.30424,-0.699491 0.75197,-1.333311 0.9733,-2.0711 0.18684,-0.600601 0.36347,-1.200771 0.70262,-1.737659 0.20173,-0.400962 0.50431,-0.73716 0.78656,-1.07463 0.14823,-0.315152 -0.13151,-0.707915 -0.47644,-0.681222 z"
     id="path82"
     inkscape:connector-curvature="0" />
  <path
     style="fill:#000000;stroke:none;stroke-width:0.00544383"
     d="m 671.87111,106.67044 c -0.3604,-0.0382 -0.73636,0.46151 -0.40722,0.73566 0.32085,0.18897 0.92791,0.28204 1.07217,-0.17214 0.0396,-0.3616 -0.34855,-0.57829 -0.66495,-0.56352 z"
     id="path84"
     inkscape:connector-curvature="0" />
  <path
     style="fill:#000000;stroke:none;stroke-width:0.00544383"
     d="m 670.7749,98.202948 c -0.85893,0.116403 -1.67146,0.461304 -2.4831,0.733959 -0.34516,0.268056 0.0848,0.889283 0.45198,0.640288 0.77158,-0.28823 1.70235,-0.288913 2.35063,-0.846239 0.13988,-0.225168 -0.0502,-0.554206 -0.31951,-0.528008 z"
     id="path86"
     inkscape:connector-curvature="0" />
  <path
     style="fill:#000000;stroke:none;stroke-width:0.00544383"
     d="m 668.22417,98.972526 c -0.42218,-0.01807 -0.44236,0.70675 -0.017,0.704401 0.36491,0.09549 0.63456,-0.484344 0.27517,-0.660702 -0.0788,-0.04347 -0.17053,-0.04534 -0.25816,-0.0437 z"
     id="path88"
     inkscape:connector-curvature="0" />
  <path
     style="fill:#000000;stroke:none;stroke-width:0.00544383"
     d="m 668.02747,99.006231 c -0.34668,0.09518 -0.72424,0.198851 -1.01412,0.39287 -0.25259,0.375546 0.34971,0.791979 0.66049,0.509295 0.23509,-0.189526 0.72414,-0.117314 0.77851,-0.510784 0.0351,-0.228867 -0.20996,-0.419333 -0.42488,-0.391381 z"
     id="path90"
     inkscape:connector-curvature="0" />
  <path
     style="fill:#000000;stroke:none;stroke-width:0.00544383"
     d="m 662.69699,63.645817 c -0.52386,0.005 -1.03702,0.667757 -0.67516,1.132464 0.39547,0.280438 0.87105,-0.105596 1.07441,-0.451774 0.17145,-0.286685 -0.0645,-0.691243 -0.39925,-0.68069 z"
     id="path92"
     inkscape:connector-curvature="0" />
  <path
     style="fill:#000000;stroke:none;stroke-width:0.00544383"
     d="m 666.71755,96.401594 c -0.34433,0.01571 -0.88227,0.129473 -0.85357,0.574685 0.0931,0.386113 0.57141,0.308748 0.84815,0.199359 0.2062,0.0026 -0.18628,0.278961 -0.20616,0.378091 -0.37266,0.472242 -0.76751,0.925475 -1.15639,1.380201 -0.23548,0.293175 -0.1217,0.762442 0.23923,0.891107 0.31421,0.130297 0.76308,0.148714 1.0086,-0.111215 0.1324,-0.213572 -0.0438,-0.480915 -0.25848,-0.5514 0.41902,-0.394617 0.6627,-0.925235 1.07888,-1.321936 0.24692,-0.278825 0.53123,-0.767951 0.22519,-1.09727 -0.23443,-0.250345 -0.59547,-0.33105 -0.92545,-0.341622 z"
     id="path94"
     inkscape:connector-curvature="0" />
  <path
     style="fill:#000000;stroke:none;stroke-width:0.00544383"
     d="m 661.91593,64.469195 c -0.41306,0.02537 -0.9179,0.452436 -0.68974,0.889194 0.24351,0.319406 0.69115,0.109808 0.90207,-0.137478 0.26104,-0.239027 0.23985,-0.780178 -0.21233,-0.751716 z"
     id="path96"
     inkscape:connector-curvature="0" />
  <path
     style="fill:#000000;stroke:none;stroke-width:0.00544383"
     d="m 666.47758,99.198253 c -0.42403,-0.0021 -0.51919,0.716801 -0.0732,0.774682 0.33836,0.129215 0.83657,-0.259974 0.57033,-0.606582 -0.11469,-0.154973 -0.3222,-0.163266 -0.49717,-0.1681 z"
     id="path98"
     inkscape:connector-curvature="0" />
  <path
     style="fill:#000000;stroke:none;stroke-width:0.00544383"
     d="m 661.39748,64.90619 c -0.44997,-0.03487 -0.61823,0.772458 -0.13673,0.83635 0.43221,0.07453 0.70847,-0.670526 0.25614,-0.818169 -0.0384,-0.01272 -0.079,-0.01832 -0.11941,-0.01818 z"
     id="path100"
     inkscape:connector-curvature="0" />
  <path
     style="fill:#000000;stroke:none;stroke-width:0.00544383"
     d="m 661.17282,65.135745 c -0.66004,0.151893 -1.12074,0.704221 -1.64239,1.093443 -0.57215,0.596512 -0.99827,1.308661 -1.4994,1.959565 -0.13357,0.316192 -0.40632,0.570623 -0.71396,0.720669 0.0108,-0.305794 -0.0689,-0.776086 -0.4605,-0.77213 -0.47638,0.05203 -0.5757,0.613006 -0.57788,1.002642 -0.0746,0.382467 0.17766,0.879686 0.62094,0.825293 0.66305,-0.02191 1.18942,-0.510442 1.65293,-0.926833 0.28221,-0.434305 0.55864,-0.870293 0.89028,-1.269237 0.43073,-0.636152 0.99114,-1.171354 1.61175,-1.618649 0.22892,-0.195509 0.58257,-0.48706 0.46209,-0.826037 -0.063,-0.124443 -0.20667,-0.196914 -0.34386,-0.188726 z"
     id="path102"
     inkscape:connector-curvature="0" />
  <path
     style="fill:#000000;stroke:none;stroke-width:0.00544383"
     d="m 665.77477,96.698772 c -0.67617,0.116274 -1.25045,0.531884 -1.89726,0.737043 -0.29277,0.130306 -0.43878,0.606159 -0.0986,0.77213 0.45141,0.212846 0.8406,-0.230847 1.23209,-0.367565 0.39371,-0.19984 0.95275,-0.325992 1.12555,-0.777446 0.0154,-0.196688 -0.16791,-0.371828 -0.36182,-0.364162 z"
     id="path104"
     inkscape:connector-curvature="0" />
  <path
     style="fill:#000000;stroke:none;stroke-width:0.00544383"
     d="m 663.76853,98.47163 c -0.27157,0.03784 -0.48584,0.240396 -0.76288,0.265387 -0.76168,0.282545 -1.46229,0.71495 -2.25065,0.927889 -0.65329,0.269976 -1.27705,0.611234 -1.95529,0.815634 -0.53132,0.28406 -1.09513,0.50788 -1.69976,0.56734 -0.31941,0.0734 -0.76985,0.1887 -0.84911,0.55161 -0.002,0.36353 0.47124,0.4304 0.72924,0.2931 0.81932,-0.13835 1.62542,-0.36483 2.37074,-0.73446 0.87189,-0.36807 1.70408,-0.80833 2.61533,-1.07855 0.71922,-0.275671 1.46286,-0.553412 2.08712,-1.008704 0.20409,-0.231361 0.038,-0.627054 -0.28474,-0.599246 z"
     id="path106"
     inkscape:connector-curvature="0" />
  <path
     style="fill:#000000;stroke:none;stroke-width:0.00544383"
     d="m 657.14354,66.781652 c -0.39384,0.0067 -0.58371,0.451559 -0.51812,0.792651 -0.0195,0.344218 0.4971,0.555104 0.68484,0.236253 0.267,-0.230798 0.46194,-0.750594 0.0776,-0.969043 -0.0737,-0.0424 -0.1597,-0.06155 -0.24433,-0.05986 z"
     id="path108"
     inkscape:connector-curvature="0" />
  <path
     style="fill:#000000;stroke:none;stroke-width:0.00544383"
     d="m 664.53917,129.51643 c -0.29803,0.003 -0.77401,0.20013 -0.67229,0.56884 0.10935,0.29184 0.45624,0.34951 0.72864,0.37043 0.005,0.11417 0.0905,0.30987 -0.11547,0.24997 -1.15266,0.10231 -2.28801,0.56304 -3.43949,0.37526 -0.48174,0.0185 -0.98615,-0.12154 -1.43376,0.12675 -0.84856,0.35613 -1.59036,0.91799 -2.34682,1.43266 -0.5984,0.43962 -1.01974,1.06022 -1.46072,1.64291 -0.46472,0.41346 -0.92814,0.82828 -1.39177,1.24298 0.61004,-0.16181 1.40351,0.008 1.85164,-0.53822 0.65795,-0.90141 1.43181,-1.75036 2.42888,-2.27184 0.58805,-0.37509 1.2156,-0.87243 1.96557,-0.74276 0.69634,0.056 1.39917,0.0602 2.08594,-0.0737 0.74974,-0.0388 1.4398,-0.37122 2.18749,-0.42148 0.25073,-0.034 0.66043,-0.0869 0.62405,-0.42848 -0.0363,-0.2281 -0.20087,-0.41166 -0.1412,-0.65368 0.0275,-0.38068 -0.17609,-0.81008 -0.59361,-0.85688 -0.0907,-0.024 -0.18424,-0.0219 -0.27708,-0.0227 z"
     id="path110"
     inkscape:connector-curvature="0" />
  <path
     style="fill:#000000;stroke:none;stroke-width:0.00544383"
     d="m 663.00033,129.27805 c -0.40943,-0.005 -0.48496,0.67344 -0.0735,0.7448 0.33132,0.14687 0.89018,0.11837 0.96788,-0.31514 0.0175,-0.33432 -0.34695,-0.46439 -0.62392,-0.42083 -0.0903,0.002 -0.18073,-6.6e-4 -0.27049,-0.009 z"
     id="path112"
     inkscape:connector-curvature="0" />
  <path
     style="fill:#000000;stroke:none;stroke-width:0.00544383"
     d="m 653.67703,69.614142 c -0.40374,0.0029 -0.58854,0.698196 -0.14768,0.796904 0.37213,0.09506 0.78365,-0.477767 0.41881,-0.730982 -0.0792,-0.05149 -0.17754,-0.07128 -0.27113,-0.06592 z"
     id="path114"
     inkscape:connector-curvature="0" />
  <path
     style="fill:#000000;stroke:none;stroke-width:0.00544383"
     d="m 659.6662,126.17762 c -0.44608,0.0789 -0.96149,0.14453 -1.29758,0.46719 -0.10267,0.18255 0.0181,0.40477 0.18978,0.49282 -0.4178,0.38542 -0.94183,0.87759 -0.85028,1.50109 0.2081,0.54275 0.89255,0.51041 1.31488,0.78855 0.62257,0.35526 1.34894,0.18127 2.025,0.21106 0.47113,-0.0191 0.95362,0.0647 1.41731,0.0595 0.41361,-0.16957 0.18032,-0.81916 -0.21701,-0.83018 -0.88881,-0.1476 -1.80485,-0.0252 -2.688,-0.10899 -0.29599,-0.1148 -0.56885,-0.29885 -0.86952,-0.38936 -0.0659,-0.0692 0.15638,-0.26182 0.23859,-0.36852 0.37867,-0.43035 0.94339,-0.70867 1.29365,-1.16893 0.1284,-0.34027 -0.23138,-0.66804 -0.55682,-0.65422 z"
     id="path116"
     inkscape:connector-curvature="0" />
  <path
     style="fill:#000000;stroke:none;stroke-width:0.00544383"
     d="m 653.24079,69.981175 c -1.01805,0.18581 -1.60442,1.181765 -2.56165,1.508076 -0.64697,0.268136 -1.27211,0.592428 -1.83935,1.00055 -0.7267,0.419825 -1.30067,1.079694 -2.1081,1.364442 -0.67343,0.284048 -1.33256,0.654155 -1.78086,1.248306 -0.71389,0.714354 -1.29933,1.51124 -2.00998,2.226823 -0.59806,0.60875 -0.95802,1.398589 -1.41343,2.099819 -0.59304,0.683767 -1.21208,1.349615 -1.75532,2.07716 -0.89545,1.114576 -1.63806,2.377718 -2.73358,3.309109 -0.27137,0.229566 -0.57128,0.430768 -0.94026,0.430225 -0.27209,0.02175 -0.62868,0.259268 -0.44103,0.557886 0.26023,0.374896 0.81047,0.303654 1.19062,0.181284 0.5471,-0.228268 0.92361,-0.715164 1.37893,-1.073136 1.23227,-1.376138 2.19317,-2.971306 3.45135,-4.327002 0.56849,-0.621304 1.01295,-1.336218 1.46295,-2.042972 0.84741,-1.169678 1.91507,-2.159174 2.86686,-3.243057 0.48777,-0.38058 1.09186,-0.573385 1.59215,-0.938364 1.04958,-0.661381 2.01751,-1.469627 3.1879,-1.918472 0.60925,-0.263681 1.17133,-0.626006 1.65611,-1.078668 0.39482,-0.307714 0.94524,-0.521801 1.16255,-0.99892 0.0246,-0.203804 -0.1598,-0.402245 -0.36586,-0.383089 z"
     id="path118"
     inkscape:connector-curvature="0" />
  <path
     style="fill:#000000;stroke:none;stroke-width:0.00544383"
     d="m 656.346,101.17068 c -0.63362,0.12635 -1.18241,0.50813 -1.79189,0.70674 -0.39674,0.16625 -0.78737,0.35398 -1.15758,0.56564 -0.82195,0.2576 -1.58898,0.64507 -2.37776,0.98325 -0.99494,0.35393 -1.8548,0.97345 -2.73229,1.54251 -0.69182,0.34948 -1.42489,0.61412 -2.12699,0.9446 -0.74447,0.35782 -1.56958,0.4993 -2.35021,0.72457 -0.48455,0.13263 -0.99102,0.0997 -1.48262,0.14717 -0.33359,0.10757 -0.29676,0.65242 0.0545,0.70695 0.49083,0.13523 0.99675,-0.0519 1.48961,-0.0857 1.53278,-0.28578 2.98504,-0.88982 4.40642,-1.51194 0.97184,-0.51173 1.84836,-1.20502 2.89341,-1.57286 1.04566,-0.53686 2.15222,-0.93696 3.21241,-1.44337 0.76421,-0.35153 1.56845,-0.63409 2.31084,-1.0223 0.28129,-0.26512 -5.4e-4,-0.70736 -0.34789,-0.68527 z"
     id="path120"
     inkscape:connector-curvature="0" />
  <path
     style="fill:#000000;stroke:none;stroke-width:0.00544383"
     d="m 655.57972,134.61757 c -0.37426,0.11727 -0.77653,0.36354 -0.92301,0.74342 -0.084,0.31993 0.33652,0.6149 0.58798,0.36767 0.2714,-0.23252 0.52206,-0.55502 0.58648,-0.90716 -0.0178,-0.11865 -0.13077,-0.21314 -0.25145,-0.20393 z"
     id="path124"
     inkscape:connector-curvature="0" />
  <path
     style="fill:#000000;stroke:none;stroke-width:0.00725844"
     d="M 873.44141 180.28906 C 872.89935 180.342 872.64453 180.93368 872.13867 181.08594 C 870.62913 181.90828 869.13315 182.77686 867.55273 183.46484 C 866.87832 183.81335 866.18387 184.12315 865.5293 184.50586 C 865.02651 184.80407 864.61627 185.26793 864.08203 185.5 C 863.62744 185.536 863.11431 185.57007 862.82031 185.97656 C 862.24342 186.53768 861.48646 186.83671 860.79492 187.23047 C 859.04775 188.03631 857.11069 188.35727 855.32617 189.08984 C 853.957 189.6438 852.67068 190.37514 851.29492 190.91602 C 849.87268 191.52395 848.40728 192.14116 846.84375 192.23047 C 846.34275 192.11567 845.83189 192.13931 845.33008 192.19531 C 844.85198 192.08118 844.36977 191.93312 843.87305 192.05273 C 841.70578 192.18433 839.58737 191.47824 837.41797 191.45117 C 835.95309 191.3156 834.44133 191.33541 833.01172 191.70312 C 832.29883 191.99182 832.00567 192.76679 831.54102 193.32031 C 831.11664 193.92851 830.76846 194.58481 830.28906 195.14844 C 829.9195 195.72682 829.9777 196.44192 829.78906 197.08008 C 829.64317 197.76538 829.67722 198.46758 829.73242 199.1582 C 829.5736 198.66947 829.77159 197.94881 829.23047 197.65234 C 829.0129 197.61821 828.80849 197.55176 828.76172 197.29492 C 828.55636 196.92168 828.3635 196.49927 828.01367 196.24023 C 827.60395 195.98391 827.15935 196.48672 827.32031 196.89453 C 827.52378 197.48253 827.97016 197.96757 828.16406 198.56055 C 828.42738 199.18512 828.56609 199.84437 828.66406 200.50977 C 828.76213 200.704 828.76846 200.89119 828.75391 201.09375 C 828.69742 201.87998 830.41715 203.22578 829.16016 203.86719 C 829.20354 204.17282 829.23675 204.47934 829.23438 204.78711 C 829.35504 208.30146 829.96833 211.7778 830.11719 215.28516 C 830.32219 218.20329 831.064 221.04613 831.45117 223.9375 C 831.55451 225.4369 831.78476 226.9239 832.0332 228.40625 C 832.32804 230.22946 832.27533 232.0882 832.70508 233.89258 C 832.89717 234.67739 833.10491 235.46675 833.31641 236.24414 C 833.52449 236.64498 834.16937 236.55693 834.28906 236.15625 C 834.62128 236.45716 835.23998 236.17151 835.14648 235.70312 C 835.08742 234.00755 834.86705 232.32648 834.68555 230.64258 C 834.53077 229.83746 834.27097 229.05722 834.20117 228.23438 C 834.11171 227.40864 833.82369 226.63112 833.50977 225.87109 C 833.24703 225.15624 833.1765 224.39146 833.07812 223.64844 C 832.62142 222.00736 832.85295 220.29305 832.62305 218.61914 C 832.61905 217.38283 832.64736 216.14314 832.46094 214.91602 C 832.3332 213.77115 832.28799 212.62935 832.05859 211.49805 C 831.76135 209.70829 831.68111 207.90397 831.51172 206.10352 C 831.39585 205.16838 831.25166 204.24086 831.2832 203.30078 C 831.31254 203.30922 831.33992 203.32322 831.36914 203.33203 L 831.30859 201.67773 C 831.29994 201.66926 831.28974 201.66301 831.28125 201.6543 C 831.13414 200.89274 831.20909 200.10637 831.01172 199.35352 C 831.08785 198.16226 830.91518 196.86915 831.48633 195.7832 C 832.10082 194.85891 832.6352 193.86103 833.34375 193.01367 C 833.84646 192.78915 834.42 192.77042 834.96094 192.69141 C 836.34703 192.66794 837.74313 192.66285 839.11328 192.88672 C 840.80199 193.09769 842.48579 193.48277 844.19727 193.36328 C 844.79464 193.38661 845.37374 193.54826 845.9668 193.52734 C 846.59474 193.58694 847.24419 193.73391 847.875 193.51172 C 849.36364 193.15401 850.80001 192.61678 852.18359 191.96289 C 853.80231 191.27518 855.30721 190.33141 857.01562 189.875 C 858.8557 189.28104 860.80869 188.90628 862.44531 187.81836 C 863.21553 187.34164 864.00834 186.8965 864.71875 186.33789 C 866.13274 185.62577 867.3868 184.56831 868.91992 184.11914 C 870.39039 183.22089 872.04725 182.5927 873.44336 181.55469 C 873.77495 181.31025 874.14529 180.73374 873.74609 180.39258 C 873.65903 180.32724 873.55038 180.28866 873.44141 180.28906 z M 833.49414 230.75 C 833.52534 230.91863 833.61904 231.46718 833.5957 231.42188 C 833.47997 231.1989 833.44825 230.97096 833.49414 230.75 z M 833.61328 231.51367 C 833.61861 231.56274 833.62566 231.61114 833.63086 231.66016 C 833.61633 231.90116 833.61653 232.14377 833.63086 232.38477 C 833.56939 232.10103 833.51221 231.79558 833.61328 231.51367 z "
     transform="scale(0.75)"
     id="path126" />
  <path
     style="fill:#000000;stroke:none;stroke-width:0.00544383"
     d="m 648.67892,125.80431 c -0.31882,0.0284 -0.82336,-0.0483 -0.93672,0.35215 -0.0187,0.39158 0.4617,0.43804 0.74789,0.45018 0.84789,-0.0406 1.69253,0.0978 2.51873,0.17352 0.53693,0.0562 1.00768,0.33045 1.51076,0.49356 0.31786,0.13086 0.66897,-0.22017 0.52217,-0.53215 -0.1019,-0.24394 -0.40391,-0.20465 -0.58532,-0.35268 -0.93768,-0.3837 -1.96289,-0.48638 -2.96699,-0.52897 -0.27224,-0.0148 -0.53958,-0.0384 -0.81052,-0.0556 z"
     id="path128"
     inkscape:connector-curvature="0" />
  <path
     style="fill:#000000;stroke:none;stroke-width:0.00544383"
     d="m 640.21909,48.755039 c -0.39477,0.126067 -0.72107,0.438356 -1.00051,0.738425 -0.36049,0.441486 -0.47941,1.009286 -0.68495,1.527035 -0.1307,0.571479 -0.28519,1.136424 -0.42386,1.705356 -0.0966,0.689026 -0.10272,1.389106 -0.24886,2.070873 -0.0936,0.785551 -0.15803,1.569236 -0.42582,2.318624 -0.29814,0.74003 -0.35839,1.552295 -0.60074,2.313839 -0.26296,0.841371 -0.56195,1.676457 -0.65943,2.55881 -0.22637,1.108264 -0.21818,2.255853 -0.29854,3.371765 -0.0861,1.232118 -0.27252,2.472351 -0.17173,3.712865 0.0475,0.93465 -0.071,1.850541 -0.15834,2.776381 -0.0257,0.901522 -0.1098,1.79513 -0.33362,2.667989 -0.20212,0.930223 -0.53835,1.843045 -0.52004,2.808253 -0.10659,1.755429 -0.32341,3.496697 -0.52301,5.243068 -0.0408,0.687625 -0.0114,1.430997 0.33939,2.041541 0.15961,0.283597 0.6176,0.53723 0.86133,0.211374 0.22526,-0.287268 -0.11057,-0.578849 -0.13652,-0.872607 -0.19341,-0.873401 0.10572,-1.74241 0.13844,-2.618034 0.0991,-0.822036 0.2239,-1.64937 0.19575,-2.47499 0.0495,-0.713219 0.17435,-1.433233 0.23211,-2.152483 0.13345,-1.019729 0.46881,-2.013079 0.5852,-3.042261 0.18919,-1.169996 0.2281,-2.358917 0.31855,-3.535829 0.16607,-1.098915 -0.14935,-2.214442 0.0672,-3.307642 0.2236,-1.280187 0.1203,-2.587608 0.30607,-3.868427 0.17284,-1.720948 0.9373,-3.316083 1.2019,-5.02363 0.18736,-0.680162 0.4519,-1.341537 0.53652,-2.046135 0.25953,-0.831961 0.31106,-1.708828 0.40286,-2.567614 -0.0206,-0.840086 0.3247,-1.631797 0.60751,-2.404591 0.1233,-0.376391 0.3386,-0.713664 0.65222,-0.955802 0.27214,-0.316458 0.28642,-0.925693 -0.0941,-1.160109 -0.0514,-0.02422 -0.10813,-0.03743 -0.16501,-0.03604 z"
     id="path130"
     inkscape:connector-curvature="0" />
  <path
     style="fill:#000000;stroke:none;stroke-width:0.00544383"
     d="m 711.72961,48.719512 c -0.40495,0.0045 -0.44993,0.571211 -0.18894,0.790206 0.4331,0.713058 1.04755,1.314426 1.40019,2.074077 0.15817,0.408324 0.48383,0.726968 0.62855,1.143265 0.3316,0.654208 0.55845,1.358515 0.91411,1.997461 0.55018,1.511033 0.88393,3.085128 1.30877,4.636494 0.50554,2.262679 0.98173,4.544646 1.81801,6.713666 0.4308,1.475112 0.61014,3.018072 1.02682,4.506532 0.37772,1.65465 0.43501,3.38608 0.31044,5.07407 0.0343,1.48368 -0.20419,2.95599 -0.16384,4.44385 0.0243,1.6426 0.0552,3.29966 0.41594,4.90975 0.16263,0.79573 0.1924,1.62508 0.0105,2.42355 -0.1639,0.98355 -0.31085,1.97472 -0.32652,2.97513 -0.0134,0.83238 -0.26914,1.62999 -0.3541,2.45517 -0.19717,1.46435 -0.30785,2.9498 -0.74974,4.36892 -0.23856,0.5872 0.10457,1.33134 -0.4152,1.81284 -0.5851,0.81807 -1.55593,1.237797 -2.20475,1.985717 -0.16928,0.25913 0.10287,0.55543 0.37841,0.5362 0.432,0.0269 0.72991,-0.35848 1.08205,-0.54663 0.83581,-0.60388 1.80532,-1.270387 2.05187,-2.339237 0.0519,-0.46419 0.019,-0.95081 0.17151,-1.3937 0.38144,-1.19929 0.53124,-2.45545 0.64094,-3.70433 0.0437,-0.94826 0.40599,-1.85564 0.44304,-2.81295 0.0724,-0.7859 -0.0123,-1.58229 0.16023,-2.35956 0.17127,-0.99832 0.37874,-2.022 0.18099,-3.03369 -0.0334,-0.7969 -0.33257,-1.55293 -0.3241,-2.35187 -0.0697,-1.16845 -0.18269,-2.33576 -0.10707,-3.50053 -0.0358,-1.36082 0.24401,-2.71427 0.1588,-4.08086 0.13508,-2.00042 -0.048,-4.02535 -0.62342,-5.94956 -0.2948,-1.04266 -0.39714,-2.12743 -0.70446,-3.168114 -0.2413,-0.970432 -0.714,-1.867735 -0.93136,-2.845999 -0.22425,-0.81781 -0.35795,-1.657455 -0.61378,-2.467568 -0.3226,-1.188459 -0.49074,-2.415988 -0.90801,-3.575831 -0.29166,-1.046102 -0.4686,-2.145922 -0.99014,-3.122831 -0.71755,-1.578098 -1.48887,-3.143615 -2.46705,-4.579406 -0.31157,-0.340903 -0.52013,-0.86156 -0.98521,-1.013806 -0.0144,-0.0014 -0.029,-9.04e-4 -0.0435,-4.36e-4 z"
     id="path136"
     inkscape:connector-curvature="0" />
  <path
     style="fill:#000000;stroke:none;stroke-width:0.00544383"
     d="m 647.47628,125.68821 c -0.43998,-0.0147 -0.47677,0.72014 -0.0406,0.75831 0.29913,0.14155 0.78663,-0.1398 0.60743,-0.49452 -0.11024,-0.19289 -0.35689,-0.2643 -0.56682,-0.26379 z"
     id="path140"
     inkscape:connector-curvature="0" />
  <path
     style="fill:#000000;stroke:none;stroke-width:0.00544383"
     d="m 647.09085,125.63154 c -0.37044,-0.0254 -0.59082,0.56788 -0.20658,0.7179 0.315,0.17552 0.8857,-0.074 0.73513,-0.48367 -0.0748,-0.22126 -0.3331,-0.23098 -0.52855,-0.23423 z"
     id="path142"
     inkscape:connector-curvature="0" />
  <path
     style="fill:#000000;stroke:none;stroke-width:0.00544383"
     d="m 635.86318,50.821034 c -0.55242,0.115673 -0.96564,0.567232 -1.37691,0.916626 -0.50942,0.508237 -1.21684,0.775086 -1.72373,1.293546 -0.35969,0.304157 -0.64489,0.705092 -1.11099,0.855915 -0.54611,0.361759 -1.18114,0.676903 -1.52597,1.262287 -0.14703,0.234377 -0.26763,0.652896 0.068,0.786803 0.41513,0.167621 0.70901,-0.289692 1.00444,-0.490734 0.78894,-0.62605 1.75736,-1.008977 2.47121,-1.736557 0.70501,-0.616845 1.56764,-1.040306 2.23537,-1.705555 0.31199,-0.178648 0.74449,-0.530748 0.51599,-0.932149 -0.11845,-0.18161 -0.34912,-0.25637 -0.55746,-0.250182 z"
     id="path144"
     inkscape:connector-curvature="0" />
  <path
     style="fill:#000000;stroke:none;stroke-width:0.00544383"
     d="m 646.69288,125.6208 c -0.30683,-0.0229 -0.72412,0.27224 -0.50355,0.59924 0.22778,0.24709 0.67409,0.21683 0.9213,0.026 0.23428,-0.2891 -0.0727,-0.69421 -0.41775,-0.62519 z"
     id="path146"
     inkscape:connector-curvature="0" />
  <path
     style="fill:#000000;stroke:none;stroke-width:0.00544383"
     d="m 715.92199,67.437133 c -0.59679,0.14602 -0.74024,0.84538 -1.18723,1.18694 -0.79469,0.93711 -1.66731,1.80372 -2.61888,2.58078 -1.16408,1.02985 -2.3797,2.04952 -3.25853,3.34508 -0.15426,0.23638 -0.17522,0.67271 0.17969,0.72088 0.46605,0.0534 0.67388,-0.46771 0.9617,-0.72686 1.12025,-1.26134 2.38924,-2.37923 3.68507,-3.45157 0.96369,-0.90412 1.80426,-1.93973 2.53663,-3.03676 0.16182,-0.20754 0.10578,-0.55067 -0.17628,-0.61158 -0.0395,-0.009 -0.0822,-0.0152 -0.12217,-0.007 z"
     id="path148"
     inkscape:connector-curvature="0" />
  <path
     style="fill:#000000;stroke:none;stroke-width:0.00544383"
     d="m 646.12096,125.69257 c -0.33149,0.004 -0.84113,0.0673 -0.86102,0.49387 0.0883,0.36698 0.56331,0.36225 0.85167,0.2486 0.32186,0.001 0.53398,-0.41999 0.27995,-0.64338 -0.0717,-0.0684 -0.17212,-0.10301 -0.2706,-0.0991 z"
     id="path150"
     inkscape:connector-curvature="0" />
  <path
     style="fill:#000000;stroke:none;stroke-width:0.00544383"
     d="m 645.18998,125.77773 c -0.42303,0.007 -0.46982,0.73574 -0.0416,0.77617 0.40958,0.0874 0.65287,-0.5682 0.25996,-0.74299 -0.0685,-0.0309 -0.14452,-0.0337 -0.21839,-0.0332 z"
     id="path156"
     inkscape:connector-curvature="0" />
  <path
     style="fill:#000000;stroke:none;stroke-width:0.00544383"
     d="m 716.95387,82.619983 c -0.57636,0.22773 -0.89416,0.80819 -1.38977,1.15349 -1.4044,1.23098 -3.01955,2.21137 -4.37367,3.51062 -0.86475,0.78367 -1.76133,1.56984 -2.41385,2.545 -0.20661,0.25076 -0.17102,0.76916 0.21718,0.80012 0.41722,0.008 0.56362,-0.4802 0.83837,-0.70302 0.8935,-1.01989 1.94858,-1.87644 2.97284,-2.75817 1.24598,-1.0037 2.58925,-1.9049 3.67203,-3.09756 0.3228,-0.34178 0.78129,-0.66399 0.85783,-1.15883 -0.0196,-0.17788 -0.20216,-0.33089 -0.38096,-0.29165 z"
     id="path158"
     inkscape:connector-curvature="0" />
  <path
     style="fill:#000000;stroke:none;stroke-width:0.00544383"
     d="m 706.64069,43.242832 c -0.43179,0.0199 -0.46993,0.631859 -0.1664,0.848684 0.10097,0.09369 0.34888,0.156927 0.19224,0.322058 -0.0541,0.132799 -0.007,0.335436 -0.20638,0.289947 -0.3423,0.09064 -0.39919,0.510123 -0.3009,0.799243 0.17472,1.168846 0.33958,2.340516 0.27283,3.523602 -0.0402,1.715984 0.087,3.436398 0,5.1492 -0.11946,0.235849 -0.18035,0.577849 0.0876,0.738425 0.03,0.782614 0.0439,1.585985 0.11865,2.37136 0.0667,1.263894 0.0331,2.529043 0.059,3.800781 0.009,1.003164 0.10194,2.003165 0.0704,3.006845 0.0966,1.557841 0.22879,3.115559 0.22898,4.675446 -0.0346,1.10193 0.0765,2.20089 0.0545,3.29837 0.0487,1.24285 -0.006,2.52905 -0.0165,3.75511 -0.23289,0.0356 -0.46039,0.22746 -0.68605,0.0668 -0.97812,-0.22175 -1.73163,-0.93527 -2.58526,-1.41805 -0.46014,-0.26617 -0.92219,-0.52078 -1.33671,-0.85482 -0.31781,-0.18352 -0.74996,-0.4395 -1.10991,-0.22911 -0.27698,0.14693 -0.21924,0.59764 0.11271,0.6338 0.69456,0.33264 1.25074,0.90259 1.95763,1.21618 0.66185,0.5485 1.40703,0.99718 2.17829,1.369 0.48586,0.16816 1.00652,0.30765 1.52012,0.1883 -0.009,0.76427 0.0298,1.52692 -0.0189,2.29119 -0.009,0.84168 0.0111,1.66964 -0.0628,2.50394 0.0209,1.53629 -0.0761,3.07578 0.0184,4.60674 -0.0496,1.66953 0.16783,3.32987 0.27513,4.98961 0.0635,1.19168 0.1416,2.38443 0.11887,3.5824 0.007,0.24706 0.10883,0.55447 -0.046,0.7649 -0.65262,0.24057 -1.37545,0.33701 -2.06684,0.28049 -0.34798,-0.0678 -0.73234,-0.49129 -1.08239,-0.21117 -0.22329,0.17079 -0.17067,0.51455 0.0556,0.65869 0.42681,0.46855 1.1123,0.64772 1.72959,0.59052 0.3593,-0.0593 0.70087,-0.20737 1.07345,-0.17969 0.13463,0.0222 0.32945,-0.0896 0.40478,-0.0904 -0.0131,1.40527 -0.0513,2.83945 0.22002,4.222817 0.11712,1.1402 0.0411,2.29801 0.0771,3.44781 -0.0505,0.40845 7.6e-4,0.81964 -0.0193,1.22269 0.0726,0.25375 0.17872,0.49602 0.12284,0.76777 -0.0223,0.33134 0.0391,0.69872 -0.0445,1.00859 -0.20799,0.30813 -0.0321,0.7041 -0.0438,1.04539 0.006,0.86487 -0.0352,1.7428 0.0229,2.61325 0.0484,0.89715 0.10186,1.81456 0.37522,2.6747 0.26757,0.44991 1.05454,0.10555 0.94767,-0.39414 -0.071,-0.16893 -0.10808,-0.33331 -0.0933,-0.51174 -0.18677,-0.88313 -0.23758,-1.80445 -0.29463,-2.7065 -0.0453,-0.65832 0.0709,-1.3109 0.15382,-1.95765 0.0202,-0.62682 -0.1119,-1.24922 -0.10757,-1.86749 0.058,-0.29172 -0.0439,-0.59096 0.0896,-0.87218 0.1296,-0.41814 -0.23378,-0.79019 -0.15024,-1.21561 0.1101,-1.18222 0.0335,-2.37605 -0.16497,-3.54287 -0.0929,-0.743377 -0.16056,-1.490837 -0.14242,-2.238537 0.17077,1.791857 0.38756,3.577477 0.49622,5.372587 0.0131,0.31204 0.18948,0.59021 0.24774,0.88186 0.0379,0.64061 -0.0625,1.28826 -0.0592,1.93904 0.01,0.39961 0.012,0.80411 -0.002,1.20246 -0.15805,0.89247 -0.0297,1.80938 0.12678,2.69286 0.0619,0.32183 0.13952,0.74568 0.52875,0.8087 0.31323,0.10617 0.64023,-0.22265 0.50079,-0.5362 -0.14026,-1.09124 -0.10826,-2.1873 -0.0439,-3.28393 0.0445,-1.36162 0.0702,-2.72277 -0.0485,-4.08023 -0.0544,-0.29124 -0.47809,-0.3679 -0.40291,-0.70224 -0.10285,-1.1646 -0.29189,-2.3191 -0.42381,-3.479217 -0.0832,-1.11649 -0.15224,-2.23977 -0.3369,-3.34313 0.03,-0.70549 -0.23179,-1.38391 -0.24588,-2.08858 -0.0574,-0.54864 -0.20649,-1.08387 -0.14923,-1.63778 -0.0344,-0.99448 -0.20016,-1.97236 -0.12792,-2.96656 -0.0113,-0.42687 0.0248,-0.93629 -0.26452,-1.28176 -0.0773,-0.10471 -0.30032,0.0382 -0.27719,-0.10133 -0.0356,-1.2803 -0.16476,-2.56443 -0.0314,-3.83296 0.002,-1.46378 -0.002,-2.93289 0.0441,-4.39285 -0.0749,-0.19972 0.16369,-0.40637 0.0105,-0.59499 0.0484,-0.69502 0.0779,-1.39708 -0.0103,-2.09088 -0.0337,-0.46779 0.0982,-0.93015 -0.069,-1.38254 -0.0211,-0.37566 0.077,-0.74808 0.0448,-1.12906 -0.0267,-2.0118 -0.029,-4.02463 -0.045,-6.03542 -0.0311,-0.69046 -0.13887,-1.483674 -0.13791,-2.104269 0.17117,0.24678 0.48881,0.0243 0.51621,-0.212224 0.27826,-0.908995 0.0394,-1.866243 -0.0249,-2.788525 -0.27089,-2.143931 -0.59554,-4.294534 -0.64872,-6.448832 -0.16201,-2.377799 0.003,-4.768189 -0.13046,-7.14941 -0.003,-1.350429 -0.0802,-2.704592 0.0175,-4.048632 -0.005,-0.173222 -0.0341,-0.347022 -0.0138,-0.520248 0.25197,0.196642 0.44786,0.445591 0.72227,0.613282 0.48429,0.502033 0.79178,1.173649 1.39934,1.556807 0.38312,0.219302 0.55886,0.660886 0.92374,0.885153 0.29118,0.221802 0.35388,0.619626 0.63381,0.859954 0.13284,0.301209 0.54562,0.53363 0.83177,0.290905 0.26942,-0.292617 -0.0169,-0.68555 -0.269,-0.875585 -0.22286,-0.35996 -0.44588,-0.73845 -0.75512,-1.036985 -0.4722,-0.637427 -1.18415,-1.036646 -1.66912,-1.665568 -0.43379,-0.502221 -0.91509,-0.967586 -1.43853,-1.370321 -0.33818,-0.37653 -0.71213,-0.798973 -1.20009,-0.958624 h -0.006 z"
     id="path160"
     inkscape:connector-curvature="0" />
  <path
     style="fill:#000000;stroke:none;stroke-width:0.00544383"
     d="m 644.42104,125.86907 c -0.44194,-0.0259 -0.4966,0.73125 -0.0532,0.76298 0.40276,0.12075 0.68415,-0.52218 0.29782,-0.71322 -0.0744,-0.0417 -0.16053,-0.0533 -0.24466,-0.0498 z"
     id="path162"
     inkscape:connector-curvature="0" />
  <path
     style="fill:#000000;stroke:none;stroke-width:0.00544383"
     d="m 641.25767,105.75785 c -0.37854,-0.004 -0.44205,0.50496 -0.19628,0.71663 0.18788,0.23224 0.61912,0.23765 0.71823,-0.0806 0.0524,-0.2663 -0.23385,-0.65307 -0.52195,-0.63604 z"
     id="path164"
     inkscape:connector-curvature="0" />
  <path
     style="fill:#000000;stroke:none;stroke-width:0.00544383"
     d="m 643.99894,125.86439 c -0.4129,0.0416 -0.94855,-0.0787 -1.26048,0.25454 -0.15474,0.32062 0.23496,0.60304 0.5315,0.53177 0.34717,-0.0339 0.74474,0.0191 1.05326,-0.14209 0.24484,-0.2423 -0.0209,-0.64553 -0.32428,-0.64422 z"
     id="path168"
     inkscape:connector-curvature="0" />
  <path
     style="fill:#000000;stroke:none;stroke-width:0.00544383"
     d="m 716.52123,87.580143 c -0.43465,0.0976 -0.71841,0.51101 -1.0255,0.80562 -0.81233,0.77979 -1.69545,1.48719 -2.49147,2.28676 -0.84604,0.85087 -1.7068,1.72592 -2.29452,2.77982 -0.16283,0.28086 0.10387,0.63825 0.41956,0.55768 0.38336,-0.0658 0.51069,-0.49607 0.77608,-0.7263 0.72805,-0.901 1.47445,-1.79042 2.39474,-2.50198 0.92124,-0.82075 1.80211,-1.70698 2.52871,-2.70401 0.0903,-0.21626 -0.0598,-0.50021 -0.3076,-0.49759 z"
     id="path170"
     inkscape:connector-curvature="0" />
  <path
     style="fill:#000000;stroke:none;stroke-width:0.00544383"
     d="m 712.77318,63.592535 c -0.58147,0.224629 -0.88721,0.840105 -1.33748,1.2398 -0.92432,0.943965 -1.67388,2.034309 -2.47367,3.080478 -0.28259,0.43325 -0.61017,0.88704 -0.69233,1.40424 0.0349,0.35206 0.57577,0.45078 0.71695,0.11401 1.33744,-1.63744 2.57391,-3.356574 3.91178,-4.991014 0.20354,-0.213888 0.3358,-0.68097 -0.007,-0.827526 -0.0375,-0.01416 -0.0778,-0.02166 -0.11792,-0.01999 z"
     id="path172"
     inkscape:connector-curvature="0" />
  <path
     style="fill:#000000;stroke:none;stroke-width:0.00544383"
     d="m 714.463,76.545653 c -0.5568,0.10093 -0.71185,0.73254 -1.06485,1.09058 -1.05227,1.44389 -2.42343,2.71576 -3.08149,4.40832 -0.0449,0.42486 0.59282,0.58172 0.80615,0.24146 0.31509,-0.34451 0.4361,-0.81978 0.76019,-1.16001 0.85152,-1.24006 1.90625,-2.33313 2.71716,-3.59983 0.13027,-0.26539 0.34956,-0.7021 0.0464,-0.92917 -0.0546,-0.0341 -0.11912,-0.0522 -0.18352,-0.0514 z"
     id="path174"
     inkscape:connector-curvature="0" />
  <path
     style="fill:#000000;stroke:none;stroke-width:0.00544383"
     d="m 711.30707,59.232901 c -0.36005,0.05884 -0.73133,0.495629 -0.46985,0.843581 0.41128,0.230977 0.98841,-0.330456 0.73141,-0.729919 -0.0647,-0.07393 -0.16309,-0.11791 -0.26156,-0.113662 z"
     id="path176"
     inkscape:connector-curvature="0" />
  <path
     style="fill:#000000;stroke:none;stroke-width:0.00544383"
     d="m 710.88592,59.583773 c -0.4691,0.03333 -0.60508,0.587058 -0.97255,0.80137 -0.38567,0.257355 -0.70434,0.595953 -0.91874,1.007435 -0.2968,0.45585 -0.64262,1.005723 -0.51239,1.568919 0.1932,0.360504 0.78464,0.143181 0.78393,-0.236147 0.1496,-0.567469 0.53748,-1.013277 0.94756,-1.409122 0.34715,-0.427357 0.79826,-0.795475 1.05102,-1.287911 0.0672,-0.237328 -0.12656,-0.482882 -0.37883,-0.444544 z"
     id="path178"
     inkscape:connector-curvature="0" />
  <path
     style="fill:#000000;stroke:none;stroke-width:0.00544383"
     d="m 715.35475,94.954073 c -0.48278,0.15023 -0.81934,0.56298 -1.23883,0.82378 -0.65666,0.57435 -1.30221,1.1619 -1.96453,1.72897 -0.39271,0.41508 -0.81014,0.80852 -1.21996,1.20307 -0.11068,0.22654 -0.32447,0.51132 -0.19267,0.76192 0.19353,0.26813 0.60669,0.13418 0.74587,-0.12227 0.602,-0.56802 1.23883,-1.09828 1.81873,-1.69068 0.73484,-0.70631 1.52114,-1.35947 2.2987,-2.01463 0.23572,-0.24441 0.16066,-0.72538 -0.24731,-0.69016 z"
     id="path180"
     inkscape:connector-curvature="0" />
  <path
     style="fill:#000000;stroke:none;stroke-width:0.00544383"
     d="m 635.34176,84.664727 c -0.38302,0.01017 -0.43302,0.553959 -0.16874,0.754161 0.18638,0.338783 0.86183,0.313463 0.85581,-0.135671 -0.007,-0.236542 -0.26051,-0.34821 -0.37979,-0.522905 -0.0868,-0.06804 -0.19725,-0.102042 -0.30728,-0.09558 z"
     id="path182"
     inkscape:connector-curvature="0" />
  <path
     style="fill:#000000;stroke:none;stroke-width:0.00544383"
     d="m 629.31081,46.003142 c -0.39109,0.02069 -0.53645,0.460504 -0.85432,0.622425 0.18878,0.0726 0.64957,0.255742 0.4555,0.528221 -0.17351,0.22459 -0.51287,0.562485 -0.23913,0.843581 0.43814,0.342066 1.02685,-0.0046 1.31651,-0.382344 0.34749,-0.346327 0.21234,-0.905882 -0.0877,-1.234324 -0.13951,-0.191585 -0.34332,-0.366995 -0.59085,-0.377559 z"
     id="path186"
     inkscape:connector-curvature="0" />
  <path
     style="fill:#000000;stroke:none;stroke-width:0.00544383"
     d="m 715.28532,100.95589 c -0.42844,-0.008 -0.44709,0.7064 -0.0369,0.76235 0.3923,0.0901 0.61404,-0.49272 0.28006,-0.69919 -0.0708,-0.0489 -0.15827,-0.066 -0.24316,-0.0632 z"
     id="path188"
     inkscape:connector-curvature="0" />
  <path
     style="fill:#000000;stroke:none;stroke-width:0.00544383"
     d="m 628.17845,47.453518 c -0.46473,0.0063 -0.62708,0.577083 -0.50823,0.953414 0.18087,1.055815 0.4191,2.103858 0.70589,3.134277 0.22111,0.599864 0.41782,1.23956 0.79701,1.755597 0.28621,0.323371 0.11496,0.872715 0.51153,1.131933 0.26611,0.224311 0.63914,0.01938 0.72279,-0.283675 0.21273,-0.472586 -0.17426,-0.913869 -0.35895,-1.321084 -0.43682,-0.588274 -0.54012,-1.337583 -0.71463,-2.033895 -0.10564,-0.290855 0.002,-0.619504 -0.19091,-0.88685 -0.26323,-0.479617 -0.10247,-1.072079 -0.3542,-1.556589 -0.1385,-0.178143 0.0238,-0.371355 -0.0706,-0.560864 -0.0761,-0.232479 -0.30299,-0.352921 -0.53971,-0.332264 z"
     id="path190"
     inkscape:connector-curvature="0" />
  <path
     style="fill:#000000;stroke:none;stroke-width:0.00544383"
     d="m 706.09907,44.865347 c -0.42108,0.120478 -0.54541,0.60298 -0.74299,0.937466 -0.0993,0.281003 0.23661,0.622752 0.49643,0.406479 0.27503,-0.30445 0.62236,-0.652023 0.6271,-1.08313 -0.0471,-0.15877 -0.21332,-0.283814 -0.38054,-0.260815 z"
     id="path192"
     inkscape:connector-curvature="0" />
  <path
     style="fill:#000000;stroke:none;stroke-width:0.00544383"
     d="m 713.88747,101.76864 c -0.25915,0.0163 -0.5159,0.25219 -0.56076,0.49653 0.008,0.40115 0.61216,0.50297 0.80626,0.17704 0.24309,-0.23034 0.1253,-0.6897 -0.2455,-0.67357 z"
     id="path194"
     inkscape:connector-curvature="0" />
  <path
     style="fill:#000000;stroke:none;stroke-width:0.00544383"
     d="m 705.48898,45.99728 c -0.47127,-6.15e-4 -0.74048,0.794074 -0.26092,0.988076 0.43798,0.06778 0.79728,-0.591753 0.48931,-0.911415 -0.0642,-0.05092 -0.14633,-0.07928 -0.22839,-0.07666 z"
     id="path196"
     inkscape:connector-curvature="0" />
  <path
     style="fill:#000000;stroke:none;stroke-width:0.00544383"
     d="m 705.80498,53.166119 c -0.44852,0.05304 -0.43227,0.704593 -0.10165,0.903016 0.21306,0.310867 0.51242,0.751191 0.94831,0.649537 0.37268,-0.201473 0.17906,-0.699327 -0.0511,-0.934381 -0.22838,-0.236458 -0.44399,-0.572513 -0.79552,-0.618172 z"
     id="path198"
     inkscape:connector-curvature="0" />
  <path
     style="fill:#000000;stroke:none;stroke-width:0.00544383"
     d="m 707.99303,65.439607 c -0.38303,0.05271 -0.40463,0.523228 -0.32041,0.818115 0.0924,0.387299 -0.0582,0.9912 0.41962,1.162391 0.37273,0.0574 0.4752,-0.403632 0.41913,-0.682706 0.0296,-0.325235 -0.1345,-0.63107 -0.13174,-0.955009 -0.0427,-0.177045 -0.18864,-0.354723 -0.3866,-0.342791 z"
     id="path200"
     inkscape:connector-curvature="0" />
  <path
     style="fill:#000000;stroke:none;stroke-width:0.00544383"
     d="m 708.14051,66.896682 c -0.45635,0.120786 -0.54122,0.952871 -0.0233,1.036241 0.57082,0.0222 0.60817,-1.055347 0.0233,-1.036241 z"
     id="path202"
     inkscape:connector-curvature="0" />
  <path
     style="fill:#000000;stroke:none;stroke-width:0.00544383"
     d="m 708.2311,67.766633 c -0.4154,0.0619 -0.39773,0.57473 -0.36491,0.89174 -0.01,1.22329 0.0159,2.45192 0.0863,3.67055 0.072,0.29889 0.55122,0.43891 0.68015,0.10962 0.0697,-0.37092 -0.0109,-0.77297 0.10134,-1.12534 -0.16949,-0.23605 0.0121,-0.4867 -0.0168,-0.74524 0,-0.40288 -0.0551,-0.82293 0.0848,-1.20338 -0.0216,-0.19857 -0.19508,-0.35348 -0.12929,-0.56384 -0.0321,-0.34197 -0.007,-0.80593 -0.32759,-1.01359 -0.0364,-0.0134 -0.0752,-0.0209 -0.11408,-0.0205 z"
     id="path204"
     inkscape:connector-curvature="0" />
  <path
     style="fill:#000000;stroke:none;stroke-width:0.00544383"
     d="m 705.12461,46.491797 c -0.46481,0.100189 -0.59538,0.639754 -0.97316,0.871901 -0.77186,0.792103 -1.06483,1.913313 -1.80872,2.72953 -0.2904,0.397359 -0.5199,0.835496 -0.71865,1.283765 -0.25149,0.908243 -0.60311,1.792687 -1.11928,2.585604 -0.78795,1.291417 -1.49144,2.640364 -2.09782,4.027882 -0.56245,1.639692 -1.11688,3.288736 -1.5224,4.973414 -0.0418,0.506475 -0.12588,1.00158 -0.1541,1.508454 -0.12568,0.698828 -0.13527,1.416566 -0.37241,2.093452 -0.18578,0.856774 -0.32405,1.727464 -0.3958,2.602064 0.007,0.72993 -0.10251,1.43928 -0.25676,2.15427 -0.0315,0.93646 -0.36589,1.83812 -0.36867,2.7725 -0.13538,1.39796 -0.24213,2.8015 -0.24387,4.20825 -0.0573,0.70355 0.0632,1.40013 -0.005,2.10661 -0.004,0.90805 -0.1812,1.80474 -0.17836,2.71523 -0.0421,0.64951 -0.0753,1.29195 0.0491,1.93602 0.20281,1.50194 0.43927,3.00424 0.75728,4.48449 0.36192,1.11264 0.45539,2.29833 0.8842,3.3908 0.1839,0.81764 0.67325,1.51239 1.03879,2.25132 0.22974,0.42565 0.37482,0.89198 0.61796,1.31194 0.20358,0.28216 0.69295,0.15486 0.72109,-0.1983 0.0987,-0.36151 -0.18384,-0.66157 -0.26762,-0.99275 -0.22524,-0.44777 -0.56214,-0.83067 -0.73598,-1.30567 -0.22102,-0.36781 -0.39793,-0.76198 -0.46351,-1.18578 -0.29348,-0.75864 -0.51921,-1.54158 -0.61856,-2.34983 -0.24973,-1.11403 -0.50737,-2.22677 -0.6492,-3.36112 -0.24167,-1.47834 -0.48924,-2.98029 -0.29593,-4.47829 0.0314,-0.90774 0.18589,-1.80871 0.13611,-2.7184 0.0475,-0.9188 -0.0209,-1.83433 0.0634,-2.75596 -0.0151,-1.17654 0.23964,-2.34103 0.3111,-3.51595 0.16411,-1.53891 0.4802,-3.06776 0.48318,-4.62125 0.16817,-1.687811 0.64011,-3.329367 0.76498,-5.023129 0.17809,-1.251626 0.47893,-2.478167 0.92205,-3.663287 0.47581,-1.517005 1.04021,-3.011773 1.81085,-4.40204 0.58398,-1.110582 1.3575,-2.119544 1.77772,-3.314097 0.2418,-0.6535 0.45932,-1.317818 0.86955,-1.890914 0.51021,-0.770125 0.95626,-1.579251 1.43178,-2.369446 0.30003,-0.47658 0.74156,-0.872543 0.96591,-1.392497 0.073,-0.2364 -0.0955,-0.501814 -0.35874,-0.468786 z"
     id="path206"
     inkscape:connector-curvature="0" />
  <path
     style="fill:#000000;stroke:none;stroke-width:0.00544383"
     d="m 708.15263,67.499653 c -0.45392,0.0104 -0.40756,0.78769 0.039,0.76692 0.40657,0.0285 0.52663,-0.60534 0.15045,-0.73917 -0.0598,-0.0251 -0.12531,-0.0297 -0.18947,-0.0277 z"
     id="path208"
     inkscape:connector-curvature="0" />
  <path
     style="fill:#000000;stroke:none;stroke-width:0.00544383"
     d="m 704.89845,52.259488 c -0.35553,-0.01196 -0.44123,0.492282 -0.18223,0.677501 0.29258,0.286017 0.5785,0.772711 1.04559,0.714928 0.35612,-0.149127 0.21603,-0.65441 -0.0748,-0.795628 -0.25108,-0.209082 -0.44556,-0.534484 -0.78851,-0.596801 z"
     id="path212"
     inkscape:connector-curvature="0" />
  <path
     style="fill:#000000;stroke:none;stroke-width:0.00544383"
     d="m 708.27129,72.438853 c -0.48038,0.073 -0.52436,0.95028 -0.0356,1.02838 0.53606,0.004 0.59304,-1.01614 0.0356,-1.02838 z"
     id="path214"
     inkscape:connector-curvature="0" />
  <path
     style="fill:#000000;stroke:none;stroke-width:0.00544383"
     d="m 708.27682,72.930183 c -0.44964,0.006 -0.4653,0.82196 10e-4,0.7985 0.47077,-0.0107 0.50785,-0.82238 -10e-4,-0.7985 z"
     id="path216"
     inkscape:connector-curvature="0" />
  <path
     style="fill:#000000;stroke:none;stroke-width:0.00544383"
     d="m 708.28362,73.231193 c -0.49096,0.007 -0.50792,0.88186 -0.0151,0.89631 0.5256,-0.001 0.57771,-0.91535 0.0151,-0.89631 z"
     id="path218"
     inkscape:connector-curvature="0" />
  <path
     style="fill:#000000;stroke:none;stroke-width:0.00544383"
     d="m 702.14092,59.036201 c -0.42826,-0.04416 -0.52375,0.611659 -0.15768,0.761816 0.23463,0.130583 0.50465,0.1153 0.73067,0.266344 0.72721,0.237215 1.47546,0.437703 2.23069,0.54098 0.48148,0.02385 1.01283,0.05474 1.45017,-0.174691 0.2741,-0.206763 0.17374,-0.764513 -0.21617,-0.732152 -0.75395,0.09619 -1.51447,0.01898 -2.24228,-0.189684 -0.61525,-0.05572 -1.17171,-0.361382 -1.77009,-0.472613 -0.008,0.0016 -0.0169,-6.43e-4 -0.0253,0 z"
     id="path220"
     inkscape:connector-curvature="0" />
  <path
     style="fill:#000000;stroke:none;stroke-width:0.00544383"
     d="m 708.3018,74.304223 c -0.4033,0.0313 -0.44918,0.52376 -0.37947,0.83369 0.054,1.3712 -0.0495,2.76107 -0.0226,4.14028 -0.0131,1.06798 -0.1396,2.15676 -0.0708,3.22111 0.19063,0.3651 0.78117,0.10382 0.71237,-0.27783 0.0589,-0.58794 0.0441,-1.1674 0.099,-1.74415 0.0108,-1.76029 0.15242,-3.50507 0.0659,-5.26585 -0.025,-0.28791 0.0275,-0.89361 -0.40431,-0.90725 z"
     id="path222"
     inkscape:connector-curvature="0" />
  <path
     style="fill:#000000;stroke:none;stroke-width:0.00544383"
     d="m 704.49145,51.884268 c -0.3865,0.0069 -0.41053,0.563551 -0.10633,0.714821 0.27461,0.209962 0.67834,-0.08695 0.56979,-0.408925 -0.0606,-0.179626 -0.2775,-0.309258 -0.46346,-0.305896 z"
     id="path224"
     inkscape:connector-curvature="0" />
  <path
     style="fill:#000000;stroke:none;stroke-width:0.00544383"
     d="m 703.877,51.299907 c -0.37479,0.02178 -0.39878,0.517382 -0.17661,0.735342 0.22644,0.220717 0.55345,0.604146 0.90174,0.385534 0.28001,-0.186295 0.0972,-0.551102 -0.1076,-0.714396 -0.14805,-0.193893 -0.353,-0.410192 -0.61753,-0.40648 z"
     id="path226"
     inkscape:connector-curvature="0" />
  <path
     style="fill:#000000;stroke:none;stroke-width:0.00544383"
     d="m 703.3358,50.925219 c -0.36614,0.01486 -0.40101,0.536861 -0.12312,0.70185 0.1878,0.242551 0.63677,0.438577 0.84358,0.112066 0.18957,-0.36447 -0.21846,-0.667303 -0.52695,-0.757245 -0.057,-0.03741 -0.12466,-0.06134 -0.19351,-0.05667 z"
     id="path228"
     inkscape:connector-curvature="0" />
  <path
     style="fill:#000000;stroke:none;stroke-width:0.00544383"
     d="m 708.179,82.183843 c -0.44427,0.11176 -0.38585,0.65789 -0.40154,1.00944 0.0233,0.65461 -0.0245,1.3072 -0.0373,1.95744 0.0485,0.3063 0.5134,0.47914 0.67644,0.16704 0.22858,-0.60187 0.0863,-1.26847 0.14353,-1.87983 0.009,-0.39266 0.21007,-0.9078 -0.17044,-1.20146 -0.06,-0.0427 -0.13762,-0.0673 -0.21073,-0.0526 z"
     id="path230"
     inkscape:connector-curvature="0" />
  <path
     style="fill:#000000;stroke:none;stroke-width:0.00544383"
     d="m 702.8651,50.502897 c -0.44574,0.02763 -0.39195,0.719061 0.003,0.787335 0.17676,0.25053 0.67536,0.276348 0.72673,-0.08612 0.0177,-0.379041 -0.3914,-0.661834 -0.72992,-0.701212 z"
     id="path232"
     inkscape:connector-curvature="0" />
  <path
     style="fill:#000000;stroke:none;stroke-width:0.00544383"
     d="m 708.08788,84.897673 c -0.41562,0.0642 -0.46532,0.58894 -0.32291,0.90705 -0.10001,0.69691 -0.12557,1.41169 -0.0813,2.11204 0.0505,0.28523 0.45671,0.49276 0.65549,0.23402 0.33102,-0.79926 0.004,-1.67494 0.17799,-2.50203 0.0461,-0.29881 -0.0542,-0.74973 -0.42923,-0.75108 z"
     id="path234"
     inkscape:connector-curvature="0" />
  <path
     style="fill:#000000;stroke:none;stroke-width:0.00544383"
     d="m 699.67142,66.482334 c -0.42103,0.0038 -0.45961,0.593921 -0.16342,0.797967 0.3144,0.241802 0.64241,0.476332 0.99063,0.669522 0.31192,0.23174 0.68571,0.3868 0.95047,0.67197 0.97638,0.52392 2.0346,1.03963 3.16951,1.01243 0.30007,-0.0136 0.74326,-0.23527 0.59393,-0.59669 -0.10744,-0.27155 -0.44204,-0.33966 -0.6892,-0.22935 -0.56225,0.0313 -1.06227,-0.2557 -1.5805,-0.43512 -0.95289,-0.41135 -1.82381,-0.99882 -2.6474,-1.625023 -0.19891,-0.09949 -0.40359,-0.230765 -0.62402,-0.265706 z"
     id="path238"
     inkscape:connector-curvature="0" />
  <path
     style="fill:#000000;stroke:none;stroke-width:0.00544383"
     d="m 700.34,82.362143 c -0.33501,-0.0169 -0.67974,0.37298 -0.44083,0.68016 0.23891,0.37091 0.71279,0.46282 1.01009,0.77064 0.51731,0.2166 1.04119,0.46499 1.60773,0.56799 0.36686,0.0385 0.72704,0.18373 1.09728,0.0738 1.14557,-0.0983 2.43486,-0.0924 3.36762,-0.87356 0.26905,-0.19187 0.1002,-0.69552 -0.24551,-0.62105 -0.72346,0.13884 -1.42039,0.44337 -2.15403,0.49505 -0.79651,0.0784 -1.62307,0.0776 -2.39347,-0.17926 -0.32442,-0.0195 -0.60377,-0.16675 -0.84553,-0.3806 -0.30749,-0.22504 -0.595,-0.52343 -1.00335,-0.53316 z"
     id="path240"
     inkscape:connector-curvature="0" />
  <path
     style="fill:#000000;stroke:none;stroke-width:0.00544383"
     d="m 710.09657,111.67661 c -0.39445,-0.0512 -0.85934,0.46124 -0.51706,0.79808 0.32606,0.32643 1.08258,0.12198 1.01625,-0.39479 -0.0306,-0.23845 -0.26493,-0.40939 -0.49919,-0.40329 z"
     id="path242"
     inkscape:connector-curvature="0" />
  <path
     style="fill:#000000;stroke:none;stroke-width:0.00544383"
     d="m 613.55465,45.175829 c -0.52417,-0.03424 -0.85935,0.694415 -0.48909,1.068139 0.41439,0.648497 1.13178,0.995989 1.72618,1.43953 0.5461,0.528816 1.11169,1.047458 1.79446,1.397827 0.37155,0.15179 0.63683,0.430907 0.93373,0.686138 0.6315,0.459722 1.36619,0.752333 1.99811,1.212615 0.47968,0.26213 0.92872,0.586902 1.41407,0.832647 0.59813,0.177253 1.18727,-0.410601 1.17648,-0.997857 0.0539,-0.242333 0.0581,-0.522046 0.24773,-0.706635 -0.13186,-0.272469 0.11565,-0.538579 0.11111,-0.817424 0.24143,-0.64967 0.44716,-1.310565 0.53375,-1.995396 0.0598,-0.548257 -0.92562,-0.726936 -1.02008,-0.167143 -0.0164,0.355118 0.0705,0.770211 -0.22455,1.039643 -0.18422,0.425955 -0.15123,0.921136 -0.4185,1.316301 -0.17613,0.402414 -0.15457,0.93339 -0.35236,1.285253 -0.10795,-0.09583 -0.22005,-0.281083 -0.39584,-0.298985 -0.31309,-0.319093 -0.72215,-0.522272 -1.06028,-0.814554 -0.31665,-0.220994 -0.67147,-0.415477 -0.99668,-0.593717 -0.40574,-0.11558 -0.51731,-0.640915 -0.94027,-0.746986 -0.44222,-0.206742 -0.88282,-0.438502 -1.21047,-0.805143 -0.24583,-0.290218 -0.45956,-0.629681 -0.84091,-0.761772 -0.42224,-0.234856 -0.7909,-0.552472 -1.17107,-0.832142 -0.23528,-0.264441 -0.3965,-0.736988 -0.81552,-0.740339 z"
     id="path244"
     inkscape:connector-curvature="0" />
  <path
     style="fill:#000000;stroke:none;stroke-width:0.00544383"
     d="m 701.90818,58.891812 c -0.42347,-0.01488 -0.44629,0.698982 -0.04,0.748419 0.38676,0.06929 0.63205,-0.55549 0.24104,-0.715139 -0.0632,-0.02683 -0.13286,-0.03519 -0.20106,-0.03328 z"
     id="path246"
     inkscape:connector-curvature="0" />
  <path
     style="fill:#000000;stroke:none;stroke-width:0.00544383"
     d="m 703.18355,90.018903 c -0.37713,0.0345 -0.3939,0.52077 -0.26082,0.79063 0.24163,0.73133 0.76667,1.51216 1.60295,1.58552 0.6861,0.11167 1.41178,0.0486 2.06185,-0.19128 0.29774,-0.16095 0.42911,-0.65226 0.091,-0.84539 -0.8028,-0.0653 -1.66718,0.38535 -2.41314,-0.065 -0.27041,-0.1347 -0.3329,-0.46733 -0.55353,-0.65251 -0.0849,-0.25265 -0.18942,-0.63896 -0.52832,-0.62201 z"
     id="path248"
     inkscape:connector-curvature="0" />
  <path
     style="fill:#000000;stroke:none;stroke-width:0.00544383"
     d="m 701.23206,58.627489 c -0.43226,-0.02818 -0.57596,0.717712 -0.12525,0.792651 0.42565,0.154592 0.7768,-0.545655 0.34534,-0.749483 -0.0677,-0.03412 -0.14484,-0.04569 -0.22009,-0.04317 z"
     id="path250"
     inkscape:connector-curvature="0" />
  <path
     style="fill:#000000;stroke:none;stroke-width:0.00544383"
     d="m 700.37253,73.005573 c -0.32463,-0.0234 -0.74851,0.28588 -0.54853,0.63422 0.26718,0.34885 0.74875,0.0234 1.06378,0.26039 0.30991,0.10714 0.8297,-0.0263 0.76735,-0.43752 -0.0987,-0.40402 -0.5794,-0.32436 -0.88218,-0.41818 -0.12308,-0.0551 -0.26889,-0.0275 -0.40042,-0.0389 z"
     id="path256"
     inkscape:connector-curvature="0" />
  <path
     style="fill:#000000;stroke:none;stroke-width:0.00544383"
     d="m 698.54428,97.011783 c -0.46251,-0.0184 -0.63703,0.62564 -0.34396,0.92587 0.43142,0.63273 0.91426,1.22946 1.33276,1.87262 0.74071,1.047497 1.36071,2.229077 2.42569,2.994937 0.57636,0.45173 1.21575,0.81144 1.7749,1.2846 0.3482,0.2179 0.63444,0.52109 0.95214,0.77 0.30074,0.15128 0.70459,-0.16339 0.54682,-0.49238 -0.13578,-0.34284 -0.38996,-0.63962 -0.67537,-0.86857 -0.26423,-0.18008 -0.60352,-0.27739 -0.75097,-0.58255 -0.37658,-0.4369 -1.02735,-0.49966 -1.37638,-0.96968 -1.13797,-1.0808 -1.89377,-2.480677 -2.80404,-3.743447 -0.15518,-0.27131 -0.41245,-0.46633 -0.5186,-0.76441 -0.13405,-0.19407 -0.31697,-0.39434 -0.56299,-0.42699 z"
     id="path260"
     inkscape:connector-curvature="0" />
  <path
     style="fill:#000000;stroke:none;stroke-width:0.00544383"
     d="m 620.63376,71.073237 c -0.43657,0.03842 -0.39986,0.698922 -0.053,0.848152 0.31518,0.164529 0.61945,-0.24208 0.47602,-0.534069 -0.0577,-0.17894 -0.22658,-0.330755 -0.42306,-0.314083 z"
     id="path264"
     inkscape:connector-curvature="0" />
  <path
     style="fill:#000000;stroke:none;stroke-width:0.00544383"
     d="m 620.52658,70.266019 c -0.55279,0.08834 -0.46016,1.079631 0.10335,1.054316 0.48357,-0.138069 0.4153,-1.046057 -0.10335,-1.054316 z"
     id="path266"
     inkscape:connector-curvature="0" />
  <path
     style="fill:#000000;stroke:none;stroke-width:0.00544383"
     d="m 620.65056,70.869731 c -0.44431,0.0037 -0.41792,0.734321 -0.007,0.782019 0.50665,0.05149 0.48962,-0.797618 0.007,-0.782019 z"
     id="path268"
     inkscape:connector-curvature="0" />
  <path
     style="fill:#000000;stroke:none;stroke-width:0.00544383"
     d="m 620.69106,71.406246 c -0.53083,0.0392 -0.47456,0.982979 0.0541,0.962664 0.5393,-0.03254 0.47192,-0.974447 -0.0541,-0.962664 z"
     id="path270"
     inkscape:connector-curvature="0" />
  <path
     style="fill:#000000;stroke:none;stroke-width:0.00544383"
     d="m 620.17635,69.277625 c -0.37554,0.03222 -0.39837,0.501485 -0.25742,0.766601 0.0353,0.305028 0.41065,0.518406 0.66262,0.309511 0.19958,-0.226105 0.114,-0.594091 7.6e-4,-0.846026 -0.0796,-0.145967 -0.23863,-0.239818 -0.40594,-0.230086 z"
     id="path272"
     inkscape:connector-curvature="0" />
  <path
     style="fill:#000000;stroke:none;stroke-width:0.00544383"
     d="m 620.33073,69.917487 c -0.36966,0.0023 -0.4221,0.524951 -0.15406,0.710993 0.25804,0.266437 0.73974,-0.07307 0.56416,-0.405841 -0.0667,-0.16432 -0.22665,-0.304004 -0.4101,-0.305152 z"
     id="path274"
     inkscape:connector-curvature="0" />
  <path
     style="fill:#000000;stroke:none;stroke-width:0.00544383"
     d="m 619.49608,67.450966 c -0.343,-0.01615 -0.58465,0.480494 -0.30143,0.710036 0.18053,0.525732 0.41724,1.035052 0.60648,1.554362 0.23381,0.334458 0.82267,0.06598 0.7179,-0.332584 -0.0666,-0.265544 -0.27937,-0.476332 -0.25805,-0.766389 -0.0472,-0.330741 -0.31603,-0.581318 -0.33184,-0.917157 -0.0766,-0.163145 -0.2559,-0.257062 -0.43306,-0.248268 z"
     id="path276"
     inkscape:connector-curvature="0" />
  <path
     style="fill:#000000;stroke:none;stroke-width:0.00544383"
     d="m 620.65874,74.552607 c -0.37665,0.02936 -0.47242,0.544303 -0.34789,0.824123 0.27047,0.373117 0.89976,-0.05084 0.72598,-0.453794 -0.0254,-0.188804 -0.17258,-0.379046 -0.37809,-0.370329 z"
     id="path278"
     inkscape:connector-curvature="0" />
  <path
     style="fill:#000000;stroke:none;stroke-width:0.00544383"
     d="m 619.0878,65.844506 c -0.35117,-0.0045 -0.52914,0.444795 -0.3564,0.720775 0.10353,0.410665 0.21114,0.830189 0.37277,1.219226 0.16617,0.268287 0.63829,0.21226 0.68207,-0.121742 0.12604,-0.519243 -0.15826,-1.012065 -0.24167,-1.513214 -0.0574,-0.215142 -0.23713,-0.330779 -0.45677,-0.305045 z"
     id="path280"
     inkscape:connector-curvature="0" />
  <path
     style="fill:#000000;stroke:none;stroke-width:0.00544383"
     d="m 620.85108,77.224866 c -0.299,0.09107 -0.23151,0.479146 -0.2371,0.720031 0.0126,0.302095 0.34429,0.642463 0.63859,0.416474 0.30842,-0.283552 -0.003,-0.696877 -0.14195,-0.98244 -0.0462,-0.09573 -0.14957,-0.175951 -0.25954,-0.154065 z"
     id="path282"
     inkscape:connector-curvature="0" />
  <path
     style="fill:#000000;stroke:none;stroke-width:0.00544383"
     d="m 620.96475,77.897158 c -0.42667,-0.0042 -0.43986,0.740135 -0.0142,0.752247 0.39223,0.04746 0.59597,-0.577592 0.20957,-0.727155 -0.0621,-0.02546 -0.12949,-0.02453 -0.19532,-0.02509 z"
     id="path284"
     inkscape:connector-curvature="0" />
  <path
     style="fill:#000000;stroke:none;stroke-width:0.00544383"
     d="m 620.9488,78.532767 c -0.32118,0.02547 -0.37748,0.409713 -0.50154,0.635822 -0.0584,0.352601 -0.35137,0.591458 -0.60222,0.821571 -0.21701,0.233251 -0.68071,0.175618 -0.75618,0.53779 -0.0732,0.291556 0.24672,0.481199 0.50483,0.431147 0.80076,-0.04603 1.3547,-0.780162 1.61603,-1.473448 0.0892,-0.276389 0.29933,-0.636509 -10e-4,-0.859635 -0.0718,-0.06031 -0.1652,-0.09773 -0.25976,-0.09325 z"
     id="path286"
     inkscape:connector-curvature="0" />
  <path
     style="fill:#000000;stroke:none;stroke-width:0.00544383"
     d="m 617.94162,62.897291 c -0.40908,0.03262 -0.42575,0.573411 -0.21882,0.831672 0.1323,0.236634 0.10608,0.553333 0.30674,0.752141 0.11801,0.479742 0.42516,0.895078 0.47032,1.398234 0.0435,0.314084 0.35108,0.733389 0.69649,0.516355 0.29989,-0.20278 0.24418,-0.622831 0.0847,-0.895857 -0.28462,-0.859825 -0.55678,-1.747511 -1.0623,-2.504727 -0.0753,-0.06635 -0.17658,-0.103653 -0.27718,-0.09782 z"
     id="path288"
     inkscape:connector-curvature="0" />
  <path
     style="fill:#000000;stroke:none;stroke-width:0.00544383"
     d="m 617.72418,62.443178 c -0.38959,-0.0048 -0.43959,0.565374 -0.14077,0.738 0.29835,0.210355 0.71196,-0.186372 0.52195,-0.499939 -0.0662,-0.145481 -0.21936,-0.247716 -0.38118,-0.238061 z"
     id="path290"
     inkscape:connector-curvature="0" />
  <path
     style="fill:#000000;stroke:none;stroke-width:0.00544383"
     d="m 616.06732,54.468823 c -0.28069,0.03008 -0.64364,0.198049 -0.57777,0.537365 0.0351,0.36314 0.19275,0.705395 0.17118,1.075369 0.0777,0.811228 0.36891,1.581997 0.53466,2.371934 0.0183,0.496051 0.18908,0.952777 0.25491,1.437149 0.17723,0.560819 0.20234,1.165297 0.3781,1.722248 0.0163,0.239741 0.21284,0.420566 0.2153,0.666869 0.0933,0.286389 0.36764,0.734871 0.72333,0.567348 0.31744,-0.176651 0.17578,-0.577974 0.12674,-0.855914 -0.0896,-0.420372 -0.27548,-0.815714 -0.43168,-1.20955 0.091,-0.488448 -0.24113,-0.933422 -0.18873,-1.423263 -0.10113,-0.582927 -0.31122,-1.143175 -0.36309,-1.734262 -0.20926,-0.404149 -0.0467,-0.886779 -0.23792,-1.298567 -0.0757,-0.464291 -0.14029,-0.948984 -0.28116,-1.392937 0.0871,-0.224305 -0.0714,-0.483875 -0.32387,-0.463789 z"
     id="path292"
     inkscape:connector-curvature="0" />
  <path
     style="fill:#000000;stroke:none;stroke-width:0.00544383"
     d="m 614.36538,47.148578 c -0.54416,-0.0061 -0.79041,0.754794 -0.44071,1.130445 0.26834,0.51927 0.43075,1.077149 0.5733,1.640271 0.22772,0.516829 0.2289,1.054735 0.2706,1.615923 0.0183,0.271958 0.23519,0.447382 0.41179,0.617534 0.0483,0.317209 -0.0177,0.658786 0.13992,0.959794 0.0858,0.298283 0.47766,0.480784 0.71535,0.229449 0.31716,-0.329241 0.0789,-0.826259 0.19287,-1.224209 0.0416,-0.295333 0.036,-0.793577 -0.35426,-0.832749 -0.0268,-0.355963 -0.0304,-0.798398 -0.11941,-1.180205 -0.16542,-0.748862 -0.38414,-1.495014 -0.69495,-2.195722 -0.19443,-0.279036 -0.27725,-0.743826 -0.6945,-0.760531 z"
     id="path294"
     inkscape:connector-curvature="0" />
  <path
     style="fill:#000000;stroke:none;stroke-width:0.00544383"
     d="m 615.79269,52.870337 c -0.26916,0.01309 -0.42195,0.307867 -0.51536,0.51408 -0.0532,0.395823 0.0732,0.786917 0.0761,1.181374 0.0562,0.356265 0.57241,0.63096 0.81742,0.28931 0.11484,-0.227134 0.14905,-0.47599 0.0333,-0.708867 0.0624,-0.347357 0.0704,-0.787764 -0.1412,-1.110349 -0.0675,-0.08358 -0.15414,-0.173842 -0.27027,-0.165548 z"
     id="path298"
     inkscape:connector-curvature="0" />
  <path
     style="fill:#000000;stroke:none;stroke-width:0.00544383"
     d="m 612.85323,75.674439 c -0.18612,0.285232 -0.62077,0.647072 -0.37245,1.021675 0.16464,0.282727 0.38519,0.534508 0.66184,0.72142 0.48428,0.456979 0.90896,0.958321 1.38948,1.430911 0.48839,0.478382 1.13369,0.732029 1.70992,1.078239 0.50931,0.210187 0.97164,0.494335 1.46845,0.724497 0.56578,0.08485 1.19596,0.447429 1.75159,0.138753 0.29149,-0.235712 0.0202,-0.780265 -0.34673,-0.656874 -0.44063,-0.144276 -0.90625,-0.169337 -1.32125,-0.392783 -0.54147,-0.176464 -0.99916,-0.541694 -1.52793,-0.739787 -0.24122,-0.193526 -0.55576,-0.2725 -0.76918,-0.505721 -0.58609,-0.477176 -1.08962,-1.046226 -1.62016,-1.58151 -0.28045,-0.353932 -0.70323,-0.614005 -0.78977,-1.08841 -0.0823,-0.159896 -0.0694,-0.491302 -0.23381,-0.15041 z"
     id="path300"
     inkscape:connector-curvature="0" />
  <path
     style="fill:#000000;stroke:none;stroke-width:0.00544383"
     d="m 618.35958,106.50159 c -0.3961,0.14345 -0.31258,0.64524 -0.37788,0.97234 -0.0226,0.61027 -0.17964,1.20136 -0.40574,1.75542 -0.14281,0.60638 -0.45186,1.16077 -0.82433,1.65006 -0.14129,0.39524 0.44125,0.70986 0.71227,0.40137 0.74502,-0.50604 0.7991,-1.49535 1.13427,-2.25398 0.211,-0.67668 0.29378,-1.39809 0.24561,-2.10374 -0.0271,-0.23846 -0.23422,-0.45926 -0.4842,-0.42147 z"
     id="path304"
     inkscape:connector-curvature="0" />
  <path
     style="fill:#000000;stroke:none;stroke-width:0.00544383"
     d="m 616.28231,110.31014 c -0.40445,8.7e-4 -0.5207,0.64963 -0.13429,0.78255 0.29979,0.20506 0.8789,0.31546 1.04039,-0.10504 0.0722,-0.46933 -0.53545,-0.68222 -0.9061,-0.67751 z"
     id="path306"
     inkscape:connector-curvature="0" />
  <path
     style="fill:#000000;stroke:none;stroke-width:0.00544383"
     d="m 589.80586,89.850715 c -0.43979,0.0087 -0.57787,0.693816 -0.16821,0.867929 0.40861,0.222924 0.78452,0.493233 1.19562,0.711206 0.21194,0.106135 0.20187,0.330116 0.13567,0.525244 -0.0861,0.388543 -0.12553,0.977887 0.30983,1.168403 0.16198,0.05785 0.33696,-0.05588 0.45114,-0.119191 0.26278,0.299007 0.85594,0.08407 0.76873,-0.340132 -0.0327,-0.151766 -0.0427,-0.323158 0.14161,-0.172452 0.73855,0.397904 1.29585,1.069199 2.07739,1.39997 0.94871,0.506667 1.62466,1.373288 2.52978,1.943298 1.28036,0.911133 2.45992,1.967796 3.53423,3.106383 -0.12738,0.254333 0.0401,0.501663 0.24732,0.647411 0.4681,0.319526 0.98634,0.568946 1.38668,0.982226 0.60953,0.62931 1.30029,1.17245 1.99188,1.7092 0.18407,0.16108 0.46797,0.33291 0.67794,0.11448 0.0981,-0.049 0.11036,-0.26358 0.15566,-0.26177 0.34596,0.38645 0.72349,0.74097 1.16819,1.01083 0.83296,0.80052 1.90133,1.47582 2.29321,2.62405 0.39108,0.76656 0.71468,1.61999 1.4411,2.14043 0.63468,0.474 1.32218,0.86632 1.98721,1.2913 0.78804,0.41386 1.48036,0.99477 2.28419,1.37781 0.43712,0.14156 0.89743,0.25651 1.35246,0.29835 0.29063,-0.0234 0.47373,-0.45059 0.18532,-0.61382 -0.67254,-0.3263 -1.41059,-0.5196 -2.0139,-0.98042 -0.89434,-0.56393 -1.81649,-1.0531 -2.6408,-1.72129 -0.65308,-0.45434 -1.29557,-1.02104 -1.50756,-1.82272 -0.23227,-0.45597 -0.52332,-0.88083 -0.78712,-1.318 -0.9939,-1.37673 -2.59236,-2.13426 -3.68076,-3.41994 -0.59315,-0.50366 -1.28021,-0.87332 -1.96913,-1.221777 -0.51962,-0.264954 -1.05944,-0.511519 -1.46111,-0.948841 -0.24004,-0.250493 -0.57637,-0.404426 -0.72269,-0.730026 -0.54256,-0.657283 -1.23523,-1.169341 -1.81667,-1.791146 -1.11675,-0.985505 -2.39985,-1.758957 -3.58459,-2.657276 -1.13897,-0.754777 -2.17875,-1.662247 -3.34352,-2.367525 -0.0398,-0.393412 -0.4878,-0.797071 -0.86538,-0.514611 -0.27622,-0.01134 -0.45925,-0.301388 -0.70268,-0.414193 -0.31291,-0.226088 -0.65226,-0.477313 -1.05104,-0.50339 z"
     id="path308"
     inkscape:connector-curvature="0" />
  <path
     style="fill:#000000;stroke:none;stroke-width:0.00544383"
     d="m 610.18002,74.13592 c -0.35001,-0.0518 -0.57336,0.451225 -0.28208,0.662403 0.18381,0.397054 0.86556,0.105008 0.7078,-0.302068 -0.0287,-0.205105 -0.21947,-0.364075 -0.42572,-0.360335 z"
     id="path310"
     inkscape:connector-curvature="0" />
  <path
     style="fill:#000000;stroke:none;stroke-width:0.00544383"
     d="m 606.97358,70.199141 c -0.40577,0.03244 -0.39344,0.631947 -0.0623,0.77011 0.40527,0.367936 0.85347,0.715251 1.08172,1.231137 0.21561,0.373406 0.39128,0.777103 0.66444,1.110665 0.38311,0.258218 0.47857,0.752379 0.84082,1.034327 0.14412,0.34126 0.70442,0.579197 0.92417,0.182028 0.13115,-0.382037 -0.27977,-0.691698 -0.44791,-0.984393 -0.48535,-0.589991 -0.8135,-1.274372 -1.16418,-1.947086 -0.26189,-0.277984 -0.55945,-0.520577 -0.79861,-0.817956 -0.29602,-0.261138 -0.64324,-0.511119 -1.03815,-0.578832 z"
     id="path312"
     inkscape:connector-curvature="0" />
  <path
     style="fill:#000000;stroke:none;stroke-width:0.00544383"
     d="m 619.61867,145.8982 c -0.34776,0.006 -0.40876,0.45479 -0.20733,0.67208 0.31417,0.31519 0.72405,0.57406 0.89557,0.99615 0.21502,0.28375 0.8078,0.19421 0.76543,-0.22019 -0.12593,-0.66409 -0.77252,-1.03004 -1.26504,-1.40306 -0.0587,-0.028 -0.12316,-0.0468 -0.18863,-0.045 z"
     id="path314"
     inkscape:connector-curvature="0" />
  <path
     style="fill:#000000;stroke:none;stroke-width:0.00544383"
     d="m 596.78874,128.02172 c -0.46216,0.0436 -0.53922,0.66416 -0.311,0.98711 0.55524,0.62553 0.74304,1.46162 1.12868,2.18759 0.0932,0.19329 0.19112,0.38022 0.28118,0.57452 -0.78576,-0.1019 -1.62079,-0.4778 -2.40804,-0.14609 -0.44354,0.16536 -0.45023,0.89258 0.0171,1.0356 0.22141,0.20273 0.31939,0.51451 0.56733,0.69338 0.63198,0.82294 1.15776,1.73121 1.84076,2.51173 0.80023,0.71146 1.43766,1.57532 2.17352,2.34676 0.96197,0.84417 1.95712,1.66933 2.71615,2.7119 0.82811,0.65056 1.53511,1.46707 2.47083,1.9797 0.97211,0.549 1.99567,1.03998 3.08061,1.31844 0.81805,0.17608 1.66414,0.30595 2.39478,0.73019 0.59621,0.31269 1.29412,0.26728 1.94036,0.38576 1.2125,0.14262 2.4416,-0.11842 3.64541,0.0858 0.87385,0.16603 1.71096,0.43676 2.53585,0.77511 0.26056,0.12758 0.61361,0.48601 0.88834,0.19478 0.20863,-0.21813 0.10556,-0.58606 -0.16501,-0.69483 -0.50365,-0.43968 -1.19338,-0.50626 -1.7761,-0.79299 -0.55211,-0.2512 -1.17118,-0.24861 -1.74938,-0.42017 -0.41044,-0.12238 -0.83422,-0.1049 -1.25414,-0.0787 -0.73163,-0.18031 -1.47065,0.19669 -2.20196,0.004 -0.50307,-0.062 -1.01096,-0.12876 -1.49474,-0.26929 -0.46615,-0.30434 -1.03065,-0.37998 -1.5382,-0.59383 -0.20261,-0.1218 -0.44854,-0.002 -0.63263,-0.1463 -1.38648,-0.21105 -2.64456,-0.92631 -3.77964,-1.71365 -1.0024,-0.73101 -1.89485,-1.6032 -2.67438,-2.56663 -0.87676,-0.91411 -1.94725,-1.62883 -2.70847,-2.65511 -0.61165,-0.73376 -1.35554,-1.35832 -1.84094,-2.19287 -0.30424,-0.43373 -0.6327,-0.85252 -0.84774,-1.33728 -0.12574,-0.19071 -0.40928,-0.3873 -0.43561,-0.5648 0.30511,0.0611 0.57421,0.22525 0.89334,0.23689 0.26414,0.0158 0.47853,0.31203 0.75108,0.20042 0.0932,-0.10475 0.14778,-0.0346 0.23094,0.0362 0.38899,0.17049 0.71507,-0.21287 0.9533,-0.46294 -0.49571,-0.57584 -0.82497,-1.25642 -1.17956,-1.90949 -0.24372,-0.55644 -0.51753,-1.09734 -0.71142,-1.6727 -0.079,-0.25498 -0.35877,-0.34813 -0.4371,-0.59223 -0.0737,-0.12876 -0.21852,-0.19711 -0.36352,-0.18628 z"
     id="path316"
     inkscape:connector-curvature="0" />
  <path
     style="fill:#000000;stroke:none;stroke-width:0.00544383"
     d="m 606.82717,69.967353 c -0.49976,0.02378 -0.42162,0.904677 0.0594,0.876861 0.49458,-0.04629 0.43767,-0.896459 -0.0594,-0.876861 z"
     id="path318"
     inkscape:connector-curvature="0" />
  <path
     style="fill:#000000;stroke:none;stroke-width:0.00544383"
     d="m 596.74557,62.303042 c -0.38846,0.0074 -0.72962,0.598321 -0.31749,0.828163 0.65001,0.225626 1.03421,0.839533 1.56302,1.242838 0.47147,0.518082 1.24902,0.457397 1.78983,0.850589 0.48729,0.570019 1.25452,0.788587 1.90704,1.114815 0.52437,0.230668 0.74782,0.802 1.15914,1.174584 0.37048,0.355221 0.72018,0.744402 1.1547,1.014004 0.40519,0.34391 0.79324,0.705211 1.2256,1.017953 0.23522,0.225631 0.4712,0.430528 0.75523,0.589996 0.24368,0.15188 0.40373,0.55262 0.75671,0.458153 0.36675,-0.09813 0.33805,-0.626102 0.0458,-0.797461 -0.74271,-0.701936 -1.50748,-1.378527 -2.32358,-1.993161 -0.49532,-0.44301 -1.04056,-0.877204 -1.36124,-1.466088 -0.27109,-0.174411 -0.55546,-0.342823 -0.77787,-0.569369 -0.23942,-0.237225 -0.56571,-0.330396 -0.827,-0.538854 -0.85973,-0.377761 -1.4839,-1.202132 -2.43345,-1.384773 -0.60455,-0.166512 -0.89932,-0.770443 -1.37425,-1.131295 -0.2191,-0.231244 -0.53591,-0.296394 -0.82923,-0.401588 -0.0372,-0.0063 -0.0752,-0.01047 -0.11291,-0.0085 z"
     id="path320"
     inkscape:connector-curvature="0" />
  <path
     style="fill:#000000;stroke:none;stroke-width:0.00544383"
     d="m 609.33165,93.707964 c -0.42175,-0.03467 -0.44962,0.614018 -0.0869,0.721838 0.33613,0.280218 0.90507,-0.221476 0.59542,-0.567136 -0.12211,-0.149978 -0.33029,-0.161988 -0.50855,-0.154702 z"
     id="path322"
     inkscape:connector-curvature="0" />
  <path
     style="fill:#000000;stroke:none;stroke-width:0.00544383"
     d="m 607.1907,92.822916 c -0.38457,3.81e-4 -0.47831,0.63261 -0.0988,0.729601 0.58104,0.256151 1.21575,0.397538 1.75276,0.743848 0.33079,0.111877 0.79497,-0.235825 0.57809,-0.587445 -0.17165,-0.309556 -0.58363,-0.288134 -0.83784,-0.484415 -0.30277,-0.06527 -0.60054,-0.146068 -0.86442,-0.307385 -0.17017,-0.05836 -0.35012,-0.08967 -0.52981,-0.0942 z"
     id="path324"
     inkscape:connector-curvature="0" />
  <path
     style="fill:#000000;stroke:none;stroke-width:0.00544383"
     d="m 606.9621,92.803672 c -0.43841,0.0114 -0.40144,0.768706 0.0489,0.705145 0.38562,0.06468 0.57097,-0.591956 0.16374,-0.685794 -0.0693,-0.01788 -0.14141,-0.02182 -0.21265,-0.01935 z"
     id="path326"
     inkscape:connector-curvature="0" />
  <path
     style="fill:#000000;stroke:none;stroke-width:0.00544383"
     d="m 601.49148,88.544622 c -0.3918,-0.0037 -0.44966,0.555276 -0.16364,0.743529 1.33168,1.108154 2.74604,2.114713 4.04013,3.261405 0.31137,0.189307 0.62516,0.385295 0.89387,0.622637 0.24462,0.120176 0.57348,0.396693 0.81977,0.126314 0.22279,-0.200853 0.10794,-0.561568 -0.1597,-0.661071 -0.70268,-0.503045 -1.36941,-1.048161 -2.04484,-1.578447 -0.2564,-0.289119 -0.52282,-0.564441 -0.86534,-0.75494 -0.61453,-0.483527 -1.22987,-0.974741 -1.86816,-1.43099 -0.20535,-0.121886 -0.41832,-0.282023 -0.65209,-0.328437 z"
     id="path328"
     inkscape:connector-curvature="0" />
  <path
     style="fill:#000000;stroke:none;stroke-width:0.00544383"
     d="m 610.04584,126.54614 c -0.37985,0.083 -0.31807,0.56752 -0.14078,0.81051 0.0925,0.30984 0.55487,0.57326 0.79074,0.25752 0.26174,-0.43142 -0.17618,-1.06434 -0.64996,-1.06803 z"
     id="path330"
     inkscape:connector-curvature="0" />
  <path
     style="fill:#000000;stroke:none;stroke-width:0.00544383"
     d="m 608.67042,124.28504 c -0.41915,0.004 -0.48733,0.59828 -0.20075,0.82253 0.15753,0.33459 0.33622,0.67107 0.51515,0.98606 0.34846,0.29827 0.50022,0.8575 0.9717,0.99062 0.39465,0.0309 0.57665,-0.55628 0.23987,-0.76235 -0.27434,-0.44912 -0.67436,-0.80026 -0.87729,-1.29301 -0.18106,-0.24591 -0.28864,-0.71447 -0.64868,-0.74385 z"
     id="path332"
     inkscape:connector-curvature="0" />
  <path
     style="fill:#000000;stroke:none;stroke-width:0.00544383"
     d="m 605.77764,102.34547 c -0.31538,-0.0257 -0.82605,0.13525 -0.71323,0.54395 0.19273,0.53166 1.17023,0.39649 1.13725,-0.1968 -0.002,-0.21726 -0.22249,-0.35741 -0.42402,-0.34715 z"
     id="path334"
     inkscape:connector-curvature="0" />
  <path
     style="fill:#000000;stroke:none;stroke-width:0.00544383"
     d="m 608.10519,122.64583 c -0.24647,0.0648 -0.49779,0.1932 -0.75288,0.16747 -0.42567,0.20008 -0.2361,0.85191 0.15343,0.98031 0.31256,0.2451 -0.004,0.81354 0.39329,0.98074 0.23513,0.0535 0.44308,-0.11934 0.67484,-0.11739 0.3112,-0.11088 0.39519,-0.57673 0.11792,-0.76756 -0.024,-0.24231 -0.0563,-0.54266 -0.24604,-0.69334 0.099,-0.23805 -0.0694,-0.55092 -0.34056,-0.55023 z"
     id="path336"
     inkscape:connector-curvature="0" />
  <path
     style="fill:#000000;stroke:none;stroke-width:0.00544383"
     d="m 604.96809,101.97354 c -0.4319,0.0579 -0.37873,0.6755 -0.0634,0.85411 0.239,0.26597 0.81005,0.0662 0.68282,-0.32419 -0.10171,-0.25343 -0.33533,-0.50671 -0.61944,-0.52992 z"
     id="path338"
     inkscape:connector-curvature="0" />
  <path
     style="fill:#000000;stroke:none;stroke-width:0.00544383"
     d="m 607.24216,122.04138 c -0.36666,0.0119 -0.85385,0.34633 -0.67134,0.75575 0.15715,0.19413 0.36869,0.32709 0.53365,0.50537 0.28489,0.17201 0.69616,-0.13096 0.53715,-0.45401 -0.0404,-0.1219 -0.17919,-0.20548 -0.0493,-0.31366 0.13375,-0.25138 -0.0738,-0.52203 -0.35012,-0.49345 z"
     id="path344"
     inkscape:connector-curvature="0" />
  <path
     style="fill:#000000;stroke:none;stroke-width:0.00544383"
     d="m 596.78108,84.025396 c -0.42543,-0.0045 -0.51171,0.635273 -0.15676,0.813428 0.84032,0.78898 1.75227,1.505426 2.50332,2.38387 0.36752,0.407049 0.7956,0.747943 1.13664,1.175306 0.20355,0.200395 0.4625,0.322203 0.64698,0.539385 0.24185,0.22799 0.77494,0.221309 0.83582,-0.162357 -0.003,-0.423031 -0.50003,-0.541016 -0.68888,-0.857084 -0.78878,-0.645832 -1.37994,-1.485892 -2.13329,-2.168386 -0.61732,-0.628317 -1.2425,-1.295457 -2.02528,-1.711722 -0.0388,-0.0091 -0.0787,-0.01399 -0.11855,-0.01244 z"
     id="path348"
     inkscape:connector-curvature="0" />
  <path
     style="fill:#000000;stroke:none;stroke-width:0.00544383"
     d="m 605.58371,121.16941 c -0.38284,-0.008 -0.45543,0.54329 -0.16672,0.7279 0.21706,0.25041 0.64084,0.5666 0.94044,0.25783 0.25238,-0.33019 -0.10226,-0.71603 -0.40733,-0.84666 -0.11034,-0.0701 -0.2307,-0.14304 -0.36639,-0.13907 z"
     id="path350"
     inkscape:connector-curvature="0" />
  <path
     style="fill:#000000;stroke:none;stroke-width:0.00544383"
     d="m 605.05634,118.67705 c -0.38913,0.0544 -0.38415,0.55203 -0.23775,0.82487 0.1287,0.38749 0.74656,0.21566 0.72333,-0.16917 0.0158,-0.28143 -0.17438,-0.64459 -0.48558,-0.6557 z"
     id="path354"
     inkscape:connector-curvature="0" />
  <path
     style="fill:#000000;stroke:none;stroke-width:0.00544383"
     d="m 605.18552,119.36422 c -0.45032,0.0613 -0.43283,0.61372 -0.40978,0.95065 -0.0175,0.12553 0.0607,0.43483 -0.15396,0.22467 -0.29514,-0.16568 -0.76218,-0.37373 -1.02879,-0.0635 -0.18128,0.30729 0.15168,0.59524 0.41381,0.69865 0.20408,0.1727 0.59219,0.13742 0.70341,0.38583 0.003,0.31751 0.18358,0.77011 0.57281,0.69805 0.29354,-0.12296 0.28999,-0.50366 0.48494,-0.70962 0.0902,-0.3057 -0.21481,-0.5606 -0.13854,-0.86696 -0.0334,-0.42707 0.0691,-0.99224 -0.30642,-1.29291 -0.0434,-0.0179 -0.0906,-0.0266 -0.13748,-0.0249 z"
     id="path356"
     inkscape:connector-curvature="0" />
  <path
     style="fill:#000000;stroke:none;stroke-width:0.00544383"
     d="m 589.96343,62.69017 c -0.52944,0.04129 -0.54365,0.877117 -0.0873,1.050701 0.58866,0.239813 1.28424,0.02177 1.8274,0.41254 0.73947,0.405283 1.45752,0.892945 2.29953,1.056422 0.69132,0.207956 1.27498,0.689507 1.98674,0.828077 0.52075,0.04227 0.73071,-0.545829 0.88494,-0.937677 0.0752,-0.227999 0.34435,-0.431773 0.19819,-0.693131 -0.16356,-0.293218 -0.23646,-0.629629 -0.41158,-0.92258 -0.0514,-0.513338 -0.94237,-0.623275 -1.02699,-0.07708 -0.0817,0.443941 0.34075,0.761533 0.40499,1.16181 -0.0436,0.14798 -0.15987,0.439132 -0.33368,0.259998 -0.78875,-0.461532 -1.66295,-0.73377 -2.49892,-1.088374 -0.76698,-0.409517 -1.52882,-0.994583 -2.44455,-0.958959 -0.26414,-0.03588 -0.52974,-0.09423 -0.79878,-0.09174 z"
     id="path358"
     inkscape:connector-curvature="0" />
  <path
     style="fill:#000000;stroke:none;stroke-width:0.00544383"
     d="m 593.77836,114.42161 c -0.40404,0.0286 -0.43244,0.55986 -0.21488,0.81137 0.57276,0.7405 1.33449,1.31676 2.10555,1.83155 0.73219,0.44906 1.55657,0.70809 2.2814,1.17133 0.59847,0.35429 1.23978,0.6264 1.87484,0.89892 0.53881,0.10182 1.04438,0.30766 1.56201,0.48186 0.15893,0.028 0.21273,0.12475 0.15236,0.26953 -0.0415,0.23283 0.21695,0.38096 0.40127,0.38065 0.11154,0.30928 0.58901,0.32327 0.7464,0.0632 0.29745,0.22761 0.62308,0.53925 1.02784,0.50865 0.3578,-0.0168 0.38633,-0.49409 0.14003,-0.67718 -0.41632,-0.28368 -0.78577,-0.62412 -1.18754,-0.9313 -0.65591,-0.46545 -1.49127,-0.57096 -2.20316,-0.90397 -0.51128,-0.21185 -1.04425,-0.37655 -1.54107,-0.61745 -0.64714,-0.3805 -1.30672,-0.73818 -1.98702,-1.05343 -1.10719,-0.50308 -2.01598,-1.33483 -2.8852,-2.16319 -0.0825,-0.0468 -0.17741,-0.0752 -0.27283,-0.0705 z"
     id="path362"
     inkscape:connector-curvature="0" />
  <path
     style="fill:#000000;stroke:none;stroke-width:0.00544383"
     d="m 592.23336,78.484814 c -0.39448,0.03313 -0.52105,0.593305 -0.25688,0.850173 0.23254,0.524685 0.55576,1.002471 0.92939,1.432581 0.34826,0.460426 0.68172,0.938 1.07344,1.362058 0.78111,0.613194 1.2633,1.512236 2.02797,2.143567 0.24602,0.162008 0.54189,0.553441 0.86035,0.339541 0.29098,-0.218838 0.14541,-0.624623 -0.0557,-0.850386 -0.32306,-0.40888 -0.80419,-0.671113 -1.05846,-1.138418 -0.64948,-0.755594 -1.31904,-1.493662 -1.92852,-2.281197 -0.34276,-0.2938 -0.52008,-0.723572 -0.80753,-1.06665 -0.21693,-0.281742 -0.39265,-0.694776 -0.76161,-0.790737 -0.007,0.0011 -0.015,-0.0015 -0.0224,-5.44e-4 z"
     id="path364"
     inkscape:connector-curvature="0" />
  <path
     style="fill:#000000;stroke:none;stroke-width:0.00544383"
     d="m 594.63162,72.625152 c -0.33479,0.0036 -0.41288,0.410384 -0.35513,0.669846 -0.12891,0.623157 -0.82731,0.798982 -1.37579,0.793069 -0.53644,0.01725 -1.05289,0.215621 -1.58472,0.21958 -0.59141,-0.02966 -1.18812,-0.207448 -1.78965,-0.247111 -0.74489,-0.05612 -1.53749,0.113413 -2.2325,-0.212756 -0.29873,-0.212528 -0.76092,-0.269976 -1.00392,0.05742 -0.18438,0.218746 -0.0389,0.532246 0.13227,0.685688 0.0167,0.414761 0.46631,0.596489 0.65507,0.9246 0.18782,0.216114 0.45405,0.334663 0.5901,0.597758 0.4823,0.640794 1.0036,1.249452 1.54416,1.83818 0.79913,0.877086 1.46325,1.89012 2.38284,2.650105 0.27678,0.30776 0.92958,0.158275 0.92226,-0.290692 -0.0817,-0.407268 -0.59304,-0.519591 -0.71014,-0.914074 -0.31639,-0.480021 -0.74194,-0.871236 -1.07016,-1.338415 -0.33792,-0.507509 -0.81176,-0.906488 -1.15775,-1.411042 -0.48725,-0.581318 -0.90245,-1.247824 -1.51355,-1.710227 0.47925,-0.0471 0.9599,-0.06707 1.4319,0.04922 0.70178,0.09081 1.41026,0.180682 2.11137,0.238178 0.33157,-0.06759 0.63739,-0.228511 0.98191,-0.23636 0.79544,-0.11929 1.78455,-0.0968 2.31798,-0.816255 0.29724,-0.357483 0.474,-0.976762 0.0907,-1.326507 -0.0728,-0.140196 -0.20314,-0.238111 -0.36725,-0.220199 z"
     id="path366"
     inkscape:connector-curvature="0" />
  <path
     style="fill:#000000;stroke:none;stroke-width:0.00544383"
     d="m 593.93573,71.467914 c -0.51911,-0.0082 -0.53275,0.848325 -0.0417,0.914499 0.44725,0.07884 0.70915,-0.621403 0.30856,-0.845813 -0.0791,-0.05221 -0.17383,-0.06795 -0.26687,-0.06869 z"
     id="path368"
     inkscape:connector-curvature="0" />
  <path
     style="fill:#000000;stroke:none;stroke-width:0.00544383"
     d="m 593.60176,71.167122 c -0.44762,-0.01471 -0.64249,0.743634 -0.17076,0.859954 0.31365,0.19772 0.82223,-0.122128 0.64496,-0.499195 -0.0607,-0.203261 -0.25619,-0.370694 -0.4742,-0.360759 z"
     id="path370"
     inkscape:connector-curvature="0" />
  <path
     style="fill:#000000;stroke:none;stroke-width:0.00544383"
     d="m 589.5964,64.865893 c -0.40868,0.08253 -0.38182,0.575318 -0.55374,0.861443 0.33312,0.631609 0.73409,1.226663 1.02914,1.877372 0.65791,1.093956 1.47629,2.09352 2.12668,3.185173 0.23438,0.264447 0.0438,0.772603 0.41935,0.955434 0.3766,0.217868 0.84958,-0.170027 0.77702,-0.581277 0.0132,-0.543063 -0.31464,-1.009645 -0.65687,-1.39817 -0.31171,-0.612099 -0.75195,-1.138886 -1.08786,-1.735477 -0.32113,-0.400825 -0.60036,-0.823345 -0.8295,-1.28228 -0.25909,-0.346086 -0.26264,-0.805391 -0.56428,-1.12544 -0.16896,-0.19107 -0.25843,-0.418579 -0.36797,-0.642266 -0.0666,-0.0889 -0.18375,-0.130759 -0.29197,-0.114512 z"
     id="path372"
     inkscape:connector-curvature="0" />
  <path
     style="fill:#000000;stroke:none;stroke-width:0.00544383"
     d="m 589.64956,60.6515 c -0.30778,-0.0055 -0.48012,0.361508 -0.3177,0.612749 0.11695,0.419833 0.12288,0.874116 0.30909,1.27898 0.55737,0.06194 1.05306,-0.436033 1.04432,-0.985311 0.0661,-0.332253 -0.10548,-0.717123 -0.46283,-0.781168 -0.17862,-0.09273 -0.37343,-0.126903 -0.57288,-0.12525 z"
     id="path374"
     inkscape:connector-curvature="0" />
  <path
     style="fill:#000000;stroke:none;stroke-width:0.00544383"
     d="m 595.15165,125.58348 c -0.4315,0.0167 -0.47803,0.59947 -0.22742,0.85793 0.40556,0.79416 1.00128,1.48936 1.6257,2.11416 0.35915,0.15765 0.66997,-0.35052 0.44316,-0.63731 -0.33576,-0.69424 -0.89677,-1.24517 -1.31928,-1.88322 -0.13885,-0.17506 -0.26246,-0.45393 -0.52216,-0.45156 z"
     id="path378"
     inkscape:connector-curvature="0" />
  <path
     style="fill:#000000;stroke:none;stroke-width:0.00544383"
     d="m 586.65577,110.39095 c -0.38363,0.0101 -0.49271,0.60933 -0.15257,0.77 0.96943,0.88182 2.22084,1.35801 3.26055,2.14 0.39595,0.2006 0.80497,0.37529 1.19074,0.59351 0.40728,0.14166 0.83984,0.2374 1.17818,0.52067 0.31893,0.20838 0.73101,0.59536 1.13533,0.37054 0.26821,-0.17221 0.24072,-0.59442 -0.0373,-0.74459 -0.38475,-0.32726 -0.8357,-0.59133 -1.12237,-1.01647 -0.19869,-0.18786 -0.5249,-0.096 -0.7245,-0.21998 -0.10612,-0.2735 -0.4799,-0.50528 -0.71663,-0.23721 -0.0568,0.21357 -0.27781,0.0137 -0.40733,-0.0289 -0.50579,-0.32576 -0.98209,-0.69615 -1.51886,-0.97442 -0.58717,-0.35985 -1.17715,-0.71688 -1.74924,-1.09668 -0.10435,-0.05 -0.21977,-0.0804 -0.33599,-0.0764 z"
     id="path380"
     inkscape:connector-curvature="0" />
  <path
     style="fill:#000000;stroke:none;stroke-width:0.00544383"
     d="m 587.6312,91.020075 c -0.32244,0.134943 -0.28448,0.559418 -0.12217,0.805196 -0.35295,-0.09719 -0.85491,0.237022 -0.66378,0.627636 0.29694,0.327569 0.85299,0.336208 1.09503,0.746931 0.30276,0.333932 0.84693,-0.06797 0.76544,-0.462726 0.0282,-0.506005 0.0383,-1.124882 -0.43934,-1.441338 -0.17931,-0.137728 -0.407,-0.295049 -0.63518,-0.275699 z"
     id="path382"
     inkscape:connector-curvature="0" />
  <path
     style="fill:#000000;stroke:none;stroke-width:0.00544383"
     d="m 587.27406,90.336831 c -0.47836,-0.0013 -0.6041,0.731746 -0.19968,0.940549 0.22917,0.259039 0.6791,0.386255 0.93246,0.08931 0.27852,-0.187336 0.29552,-0.671545 -0.0407,-0.809556 -0.20235,-0.138633 -0.44504,-0.225153 -0.69206,-0.220306 z"
     id="path384"
     inkscape:connector-curvature="0" />
  <path
     style="fill:#000000;stroke:none;stroke-width:0.00544383"
     d="m 590.51685,112.19486 c -0.37138,0.007 -0.42747,0.56351 -0.10696,0.70291 0.34722,0.24565 0.80576,-0.31811 0.44167,-0.58415 -0.0888,-0.0856 -0.2129,-0.12391 -0.33471,-0.11876 z"
     id="path386"
     inkscape:connector-curvature="0" />
  <path
     style="fill:#000000;stroke:none;stroke-width:0.00544383"
     d="m 578.99072,89.613398 c -0.31818,-0.01067 -0.83632,0.007 -0.86293,0.431785 0.16236,0.5632 0.85135,0.683677 1.19382,1.105913 0.61523,0.462099 1.14723,1.028211 1.45505,1.741782 0.41433,0.846988 0.82802,1.699214 1.35348,2.482478 0.24547,0.538005 0.54775,1.217366 0.15475,1.759886 -0.2234,0.34342 -0.28655,0.774542 -0.17992,1.158294 0.0478,0.620832 0.11026,1.258054 0.10569,1.886094 -0.1,0.36576 -0.35536,0.76231 -0.73024,0.87399 -0.38594,8.4e-4 -0.76713,-0.10702 -1.15636,-0.0525 -0.48284,0.039 -0.97092,-0.0138 -1.44998,-0.004 -0.3482,0.0678 -0.45582,0.62958 -0.0765,0.73853 0.61293,0.20284 1.27213,0.0851 1.90459,0.14684 0.60995,0.0536 1.36245,0.10155 1.78236,-0.44156 0.38856,-0.47465 0.77668,-1.05372 0.67155,-1.699218 -0.082,-0.549395 -0.0298,-1.117452 -0.13486,-1.657145 -0.0446,-0.50286 0.41733,-0.859702 0.46166,-1.352132 0.0957,-0.543084 -0.1829,-1.059374 -0.34659,-1.561742 -0.2626,-0.644737 -0.80169,-1.130392 -1.0263,-1.797002 -0.27842,-0.646476 -0.59266,-1.284038 -0.96816,-1.878174 -0.15378,-0.154327 -0.0658,-0.118006 0.0915,-0.04987 0.54983,0.216814 1.12763,0.335708 1.71204,0.397442 0.53979,0.135475 1.03461,0.422645 1.59477,0.492177 0.78131,0.122255 1.57208,0.1177 2.35573,0.197977 0.27741,0.02396 0.63926,-0.176264 0.53492,-0.499195 -0.22123,-0.52698 -0.8881,-0.522797 -1.36457,-0.444224 -0.39253,-0.0437 -0.78216,-0.108969 -1.17755,-0.117702 -0.82045,-0.16438 -1.58272,-0.557572 -2.4208,-0.649856 -0.69372,-0.18897 -1.41027,-0.416879 -1.93947,-0.929916 -0.45342,-0.295279 -1.01916,-0.277643 -1.53767,-0.278784 z"
     id="path390"
     inkscape:connector-curvature="0" />
  <path
     style="fill:#000000;stroke:none;stroke-width:0.00544383"
     d="m 588.56026,110.45071 c -0.41778,1e-4 -0.41906,0.62391 -0.0803,0.75618 0.26161,0.28996 0.89346,0.0387 0.71493,-0.37735 -0.10999,-0.23867 -0.3831,-0.36547 -0.63466,-0.37883 z"
     id="path396"
     inkscape:connector-curvature="0" />
  <path
     style="fill:#000000;stroke:none;stroke-width:0.00544383"
     d="m 587.22663,109.38958 c -0.3996,0.0449 -0.37853,0.61088 -0.0914,0.78968 0.2551,0.2597 0.67073,0.6025 1.04315,0.38096 0.25543,-0.23599 0.0145,-0.59035 -0.21258,-0.74016 -0.18832,-0.21608 -0.43312,-0.43971 -0.73914,-0.43048 z"
     id="path400"
     inkscape:connector-curvature="0" />
  <path
     style="fill:#000000;stroke:none;stroke-width:0.00544383"
     d="m 578.72044,102.47125 c -0.3766,0.0358 -0.88161,0.36346 -0.69813,0.79818 0.1656,0.27713 0.46648,0.45475 0.71982,0.63072 0.11226,0.0358 0.18504,-0.13413 0.26294,-0.002 0.48076,0.35162 1.01808,0.63229 1.41869,1.08154 0.34869,0.23021 0.68108,0.48239 0.94289,0.80956 0.53246,0.42406 1.20426,0.65715 1.60765,1.22818 0.56305,0.7133 1.34272,1.23008 1.96731,1.87926 0.24799,0.15877 0.47229,0.36559 0.77239,0.43206 0.38002,0.16819 0.82711,0.15055 1.14805,0.43396 0.2287,0.2486 0.62805,-0.002 0.56331,-0.30983 -0.0549,-0.41218 -0.56564,-0.46654 -0.83269,-0.68587 -0.44069,-0.17478 -1.01165,-0.16334 -1.2797,-0.61625 -0.18014,-0.13854 -0.27558,-0.4138 -0.53106,-0.42864 -0.42333,-0.50127 -1.00469,-0.86623 -1.30737,-1.46568 -0.18588,-0.31567 -0.52575,-0.45662 -0.83848,-0.60212 -0.28488,-0.23434 -0.59209,-0.44931 -0.85357,-0.7061 -0.35026,-0.4306 -0.85657,-0.68834 -1.23779,-1.08978 -0.41177,-0.39086 -1.01409,-0.56178 -1.29168,-1.08999 -0.13605,-0.15362 -0.3154,-0.30344 -0.53258,-0.29685 z"
     id="path402"
     inkscape:connector-curvature="0" />
  <path
     style="fill:#000000;stroke:none;stroke-width:0.00544383"
     d="m 578.62252,100.88914 c -0.33166,-0.0413 -0.7348,0.34961 -0.47687,0.66017 0.26388,0.35108 1.00953,0.22384 0.9734,-0.27209 -0.0105,-0.24944 -0.26506,-0.40272 -0.49653,-0.38808 z"
     id="path468"
     inkscape:connector-curvature="0" />
  <path
     style="fill:#000000;stroke:none;stroke-width:0.00544383"
     d="m 577.70579,100.63491 c -0.43923,0.007 -0.64872,0.71439 -0.19469,0.87995 0.36514,0.20987 1.01566,-0.0959 0.82998,-0.56108 -0.12327,-0.14319 -0.30617,-0.23606 -0.46932,-0.31079 -0.0548,-0.009 -0.1106,-0.01 -0.16597,-0.008 z"
     id="path494"
     inkscape:connector-curvature="0" />
  <path
     style="opacity:1;vector-effect:none;fill:none;fill-opacity:1;stroke:#000000;stroke-width:0.75;stroke-linecap:butt;stroke-linejoin:miter;stroke-miterlimit:4;stroke-dasharray:none;stroke-dashoffset:0;stroke-opacity:1"
     d="m 622.34179,147.81006 c -0.67282,-11.6529 1.80231,-20.31584 2.42109,-25.47235 0.61878,-5.15651 1.44382,-14.43823 1.44382,-20.00726 0,-5.569035 0.61878,-22.48239 0.82505,-27.020122 0.20625,-4.537729 -0.20627,-12.788147 -0.61879,-18.357178 -0.41252,-5.569032 -1.44382,-17.119617 -1.44382,-17.119617"
     id="path4020"
     inkscape:connector-curvature="0" />
  <path
     style="opacity:1;vector-effect:none;fill:none;fill-opacity:1;stroke:#000000;stroke-width:0.75;stroke-linecap:butt;stroke-linejoin:miter;stroke-miterlimit:4;stroke-dasharray:none;stroke-dashoffset:0;stroke-opacity:1"
     d="m 621.9811,47.12827 2.98804,-8.5323 3.50643,8.456678"
     id="path4022"
     inkscape:connector-curvature="0" />
  <path
     style="opacity:1;vector-effect:none;fill:none;fill-opacity:1;stroke:#000000;stroke-width:0.75;stroke-linecap:butt;stroke-linejoin:miter;stroke-miterlimit:4;stroke-dasharray:none;stroke-dashoffset:0;stroke-opacity:1"
     d="m 625.79418,103.56801 c 12.58189,-11.138063 21.24483,-13.819448 24.75125,-18.769703 3.50643,-4.950247 13.61319,-21.244824 13.61319,-21.244824"
     id="path4024"
     inkscape:connector-curvature="0" />
  <path
     style="opacity:1;vector-effect:none;fill:none;fill-opacity:1;stroke:#000000;stroke-width:0.75;stroke-linecap:butt;stroke-linejoin:miter;stroke-miterlimit:4;stroke-dasharray:none;stroke-dashoffset:0;stroke-opacity:1"
     d="m 624.55662,117.38746 c 12.58189,-1.44383 18.56344,-3.30017 24.13247,-4.33147 5.56903,-1.0313 7.8379,-4.12521 10.72554,-5.56904 2.88765,-1.44381 17.53214,-9.075453 17.53214,-9.075453"
     id="path4026"
     inkscape:connector-curvature="0" />
  <path
     style="opacity:1;vector-effect:none;fill:none;fill-opacity:1;stroke:#000000;stroke-width:0.75;stroke-linecap:butt;stroke-linejoin:miter;stroke-miterlimit:4;stroke-dasharray:none;stroke-dashoffset:0;stroke-opacity:1"
     d="m 622.28776,139.66359 c 3.91894,-2.47513 14.0257,-5.15651 17.11961,-6.18782 3.09391,-1.0313 10.10676,-2.26887 12.16936,-2.68138 2.06261,-0.41252 12.37563,-0.41252 12.37563,-0.41252"
     id="path4028"
     inkscape:connector-curvature="0" />
  <path
     style="opacity:1;vector-effect:none;fill:none;fill-opacity:1;stroke:#000000;stroke-width:0.75;stroke-linecap:butt;stroke-linejoin:miter;stroke-miterlimit:4;stroke-dasharray:none;stroke-dashoffset:0;stroke-opacity:1"
     d="m 622.08149,141.10741 c -8.66293,-2.47512 -8.25042,-2.47513 -12.99441,-5.56903 -5.36276,-4.33147 -6.18781,-5.77529 -7.63163,-6.60034 -1.44383,-0.82504 -4.74399,-2.88764 -4.74399,-2.88764"
     id="path4030"
     inkscape:connector-curvature="0"
     sodipodi:nodetypes="cccc" />
  <path
     style="opacity:1;vector-effect:none;fill:none;fill-opacity:1;stroke:#000000;stroke-width:0.75;stroke-linecap:butt;stroke-linejoin:miter;stroke-miterlimit:4;stroke-dasharray:none;stroke-dashoffset:0;stroke-opacity:1"
     d="m 624.1441,122.33771 c -10.93181,-5.56903 -18.15092,-11.55058 -22.27613,-13.81945 -4.12521,-2.26886 -9.9005,-8.662938 -12.58189,-9.69424 -2.68138,-1.031302 -9.9005,-8.662942 -9.9005,-8.662942 v 0"
     id="path4032"
     inkscape:connector-curvature="0" />
  <path
     style="opacity:1;vector-effect:none;fill:none;fill-opacity:1;stroke:#000000;stroke-width:0.75;stroke-linecap:butt;stroke-linejoin:miter;stroke-miterlimit:4;stroke-dasharray:none;stroke-dashoffset:0;stroke-opacity:1"
     d="m 625.58792,94.492553 c -8.45668,-6.187815 -12.37563,-9.075465 -16.91335,-13.406933 -4.53773,-4.331467 -10.10676,-10.106761 -11.75685,-11.550584 -1.65009,-1.443823 -8.8692,-5.981553 -8.8692,-5.981553"
     id="path4034"
     inkscape:connector-curvature="0" />
  <path
     style="opacity:1;vector-effect:none;fill:none;fill-opacity:1;stroke:#000000;stroke-width:0.39999998;stroke-linecap:butt;stroke-linejoin:miter;stroke-miterlimit:4;stroke-dasharray:none;stroke-dashoffset:0;stroke-opacity:1"
     d="m 629.71313,68.709994 c 1.03131,-5.156511 4.33147,-12.994407 4.95025,-13.819449 0.61878,-0.825041 4.33147,-4.53773 4.33147,-4.53773"
     id="path4036"
     inkscape:connector-curvature="0" />
  <path
     style="opacity:1;vector-effect:none;fill:none;fill-opacity:1;stroke:#000000;stroke-width:0.39999998;stroke-linecap:butt;stroke-linejoin:miter;stroke-miterlimit:4;stroke-dasharray:none;stroke-dashoffset:0;stroke-opacity:1"
     d="m 624.35036,64.172265 c -3.91895,-6.187814 -8.66294,-15.263273 -8.66294,-15.263273"
     id="path4038"
     inkscape:connector-curvature="0" />
  <text
     xml:space="preserve"
     style="font-style:normal;font-variant:normal;font-weight:normal;font-stretch:normal;font-size:10px;line-height:1.25;font-family:'Liberation Sans';-inkscape-font-specification:'Liberation Sans';font-variant-ligatures:normal;font-variant-position:normal;font-variant-caps:normal;font-variant-numeric:normal;font-variant-alternates:normal;font-feature-settings:normal;text-indent:0;text-align:start;text-decoration:none;text-decoration-line:none;text-decoration-style:solid;text-decoration-color:#000000;letter-spacing:0px;word-spacing:0px;text-transform:none;writing-mode:lr-tb;direction:ltr;text-orientation:mixed;dominant-baseline:auto;baseline-shift:baseline;text-anchor:start;white-space:normal;shape-padding:0;opacity:1;vector-effect:none;fill:#000000;fill-opacity:1;stroke:none;stroke-width:0.74999994;stroke-linecap:butt;stroke-linejoin:miter;stroke-miterlimit:4;stroke-dasharray:none;stroke-dashoffset:0;stroke-opacity:1"
     x="637.06476"
     y="163.37106"
     id="text966"><tspan
       sodipodi:role="line"
       id="tspan964"
       x="637.06476"
       y="163.37106"
       style="stroke-width:0.74999994">black oak,</tspan><tspan
       sodipodi:role="line"
       x="637.06476"
       y="175.87106"
       style="stroke-width:0.74999994"
       id="tspan968">Quercus kelloggii</tspan></text>
  <text
     xml:space="preserve"
     style="font-style:normal;font-variant:normal;font-weight:normal;font-stretch:normal;font-size:10px;line-height:1.25;font-family:'Liberation Sans';-inkscape-font-specification:'Liberation Sans';font-variant-ligatures:normal;font-variant-position:normal;font-variant-caps:normal;font-variant-numeric:normal;font-variant-alternates:normal;font-feature-settings:normal;text-indent:0;text-align:start;text-decoration:none;text-decoration-line:none;text-decoration-style:solid;text-decoration-color:#000000;letter-spacing:0px;word-spacing:0px;text-transform:none;writing-mode:lr-tb;direction:ltr;text-orientation:mixed;dominant-baseline:auto;baseline-shift:baseline;text-anchor:start;white-space:normal;shape-padding:0;opacity:1;vector-effect:none;fill:#000000;fill-opacity:1;stroke:none;stroke-width:0.74999994;stroke-linecap:butt;stroke-linejoin:miter;stroke-miterlimit:4;stroke-dasharray:none;stroke-dashoffset:0;stroke-opacity:1"
     x="687.23651"
     y="121.95019"
     id="text972"><tspan
       sodipodi:role="line"
       id="tspan970"
       x="687.23651"
       y="121.95019"
       style="stroke-width:0.74999994">live oak,</tspan><tspan
       sodipodi:role="line"
       x="687.23651"
       y="134.4502"
       style="stroke-width:0.74999994"
       id="tspan974">Q. chrysolepis</tspan><tspan
       sodipodi:role="line"
       x="687.23651"
       y="146.9502"
       style="stroke-width:0.74999994"
       id="tspan976">or wislizeni</tspan></text>
</svg>
