<?xml version="1.0" encoding="UTF-8" standalone="no"?>
<!-- Created with Inkscape (http://www.inkscape.org/) -->

<svg
   xmlns:dc="http://purl.org/dc/elements/1.1/"
   xmlns:cc="http://creativecommons.org/ns#"
   xmlns:rdf="http://www.w3.org/1999/02/22-rdf-syntax-ns#"
   xmlns:svg="http://www.w3.org/2000/svg"
   xmlns="http://www.w3.org/2000/svg"
   xmlns:xlink="http://www.w3.org/1999/xlink"
   xmlns:sodipodi="http://sodipodi.sourceforge.net/DTD/sodipodi-0.dtd"
   xmlns:inkscape="http://www.inkscape.org/namespaces/inkscape"
   width="210mm"
   height="297mm"
   viewBox="0 0 210 297"
   version="1.1"
   id="svg8"
   inkscape:version="0.92.5 (2060ec1f9f, 2020-04-08)"
   sodipodi:docname="diagram.svg"
   inkscape:export-filename="/home/bcrowell/a/diagram.png"
   inkscape:export-xdpi="300"
   inkscape:export-ydpi="300">
  <defs
     id="defs2" />
  <sodipodi:namedview
     id="base"
     pagecolor="#ffffff"
     bordercolor="#666666"
     borderopacity="1.0"
     inkscape:pageopacity="0.0"
     inkscape:pageshadow="2"
     inkscape:zoom="0.4459111"
     inkscape:cx="392.47493"
     inkscape:cy="629.21957"
     inkscape:document-units="mm"
     inkscape:current-layer="layer1"
     showgrid="false"
     inkscape:snap-global="false"
     inkscape:window-width="1280"
     inkscape:window-height="998"
     inkscape:window-x="0"
     inkscape:window-y="0"
     inkscape:window-maximized="1" />
  <metadata
     id="metadata5">
    <rdf:RDF>
      <cc:Work
         rdf:about="">
        <dc:format>image/svg+xml</dc:format>
        <dc:type
           rdf:resource="http://purl.org/dc/dcmitype/StillImage" />
        <dc:title />
      </cc:Work>
    </rdf:RDF>
  </metadata>
  <g
     inkscape:label="Layer 1"
     inkscape:groupmode="layer"
     id="layer1">
    <image
       sodipodi:absref="traitor_horn_close_up_bitmap/sketch.jpg"
       xlink:href="traitor_horn_close_up_bitmap/sketch.jpg"
       y="54.745888"
       x="20.032574"
       id="image877"
       preserveAspectRatio="none"
       height="225.53386"
       width="175.80984" />
    <path
       style="opacity:1;vector-effect:none;fill:none;fill-opacity:1;stroke:#676767;stroke-width:1.05833328;stroke-linecap:butt;stroke-linejoin:miter;stroke-miterlimit:4;stroke-dasharray:none;stroke-dashoffset:0;stroke-opacity:1;marker:none;marker-start:none;marker-mid:none;marker-end:none"
       d="M 92.614762,189.23055 C 104.10685,180.53528 104.1071,137.85302 104.1071,137.85302"
       id="path841"
       inkscape:connector-curvature="0"
       sodipodi:nodetypes="cc" />
    <path
       style="opacity:1;vector-effect:none;fill:#ffffff;fill-opacity:1;stroke:none;stroke-width:0.37059367;stroke-linecap:butt;stroke-linejoin:miter;stroke-miterlimit:4;stroke-dasharray:none;stroke-dashoffset:0;stroke-opacity:1;marker:none;marker-start:none;marker-mid:none;marker-end:none"
       d="m 121.86908,188.88505 7.1176,6.0895 -2.92613,7.51302 -1.81894,4.58689 0.47451,1.42352 2.60978,2.21436 1.18627,1.50261 -5.69408,1.0281 -0.15817,-5.21957 1.18627,-6.64309 -1.26535,-6.95943 z"
       id="path1266"
       inkscape:connector-curvature="0"
       sodipodi:nodetypes="cccccccccccc" />
    <path
       style="opacity:1;vector-effect:none;fill:#ffffff;fill-opacity:1;stroke:none;stroke-width:0.37059367;stroke-linecap:butt;stroke-linejoin:miter;stroke-miterlimit:4;stroke-dasharray:none;stroke-dashoffset:0;stroke-opacity:1;marker:none;marker-start:none;marker-mid:none;marker-end:none"
       d="m 125.26971,163.73621 0.94901,4.66598 2.21436,-0.86993 0.63268,-3.16338 -1.58169,0.23725 h -1.18627 z"
       id="path1264"
       inkscape:connector-curvature="0" />
    <path
       style="opacity:1;vector-effect:none;fill:#ffffff;fill-opacity:1;stroke:none;stroke-width:0.37059367;stroke-linecap:butt;stroke-linejoin:miter;stroke-miterlimit:4;stroke-dasharray:none;stroke-dashoffset:0;stroke-opacity:1;marker:none;marker-start:none;marker-mid:none;marker-end:none"
       d="m 81.687065,55.07159 24.517415,37.51052 24.17847,24.40443 5.98813,-0.45193 -2.71161,-33.556097 -34.798914,-24.178468 -12.65415,-3.954422 z"
       id="path1262"
       inkscape:connector-curvature="0"
       sodipodi:nodetypes="cccccccc" />
    <path
       style="opacity:1;vector-effect:none;fill:none;fill-opacity:1;stroke:#000000;stroke-width:1.76388884;stroke-linecap:butt;stroke-linejoin:miter;stroke-miterlimit:4;stroke-dasharray:none;stroke-dashoffset:0;stroke-opacity:1;marker:none;marker-start:none;marker-mid:none;marker-end:none"
       d="m 134.22439,117.89041 c -2.37265,-8.92569 -1.92072,-20.224043 -3.50249,-22.596696 -1.58177,-2.372654 -1.58177,-2.372654 -1.58177,-2.372654"
       id="path1256"
       inkscape:connector-curvature="0" />
    <path
       style="opacity:1;vector-effect:none;fill:none;fill-opacity:1;stroke:#000000;stroke-width:1.76388884;stroke-linecap:butt;stroke-linejoin:miter;stroke-miterlimit:4;stroke-dasharray:none;stroke-dashoffset:0;stroke-opacity:1;marker:none;marker-start:none;marker-mid:none;marker-end:none"
       d="M 108.80311,76.312487 C 104.17078,72.358064 79.314412,55.07159 79.314412,55.07159"
       id="path1260"
       inkscape:connector-curvature="0" />
    <path
       style="opacity:1;vector-effect:none;fill:#ffffff;fill-opacity:1;stroke:none;stroke-width:0.37059367;stroke-linecap:butt;stroke-linejoin:miter;stroke-miterlimit:4;stroke-dasharray:none;stroke-dashoffset:0;stroke-opacity:1;marker:none;marker-start:none;marker-mid:none;marker-end:none"
       d="m 143.0637,157.64671 -2.92612,2.68887 1.42352,0.55359 2.68887,-2.84704 z"
       id="path1268"
       inkscape:connector-curvature="0" />
    <g
       id="g1277"
       transform="translate(0,31.152698)">
      <path
         sodipodi:nodetypes="ccccccccccccccccccc"
         inkscape:connector-curvature="0"
         id="path1270"
         d="m 161.66571,117.37893 -1.68753,3.03756 -2.02504,2.16004 0.0675,1.55253 7.35765,1.21503 2.22754,-1.68754 4.45509,-1.08002 3.44257,-2.43004 1.01251,-1.68754 v -3.57757 l -2.49754,-11.13772 -3.64508,-5.535112 -4.79259,-10.125199 -1.89004,0.742514 -0.74252,1.485029 -0.135,1.417529 3.71258,6.277623 -0.74252,9.990196 z"
         style="opacity:1;vector-effect:none;fill:#ffffff;fill-opacity:1;stroke:none;stroke-width:0.37059367;stroke-linecap:butt;stroke-linejoin:miter;stroke-miterlimit:4;stroke-dasharray:none;stroke-dashoffset:0;stroke-opacity:1;marker:none;marker-start:none;marker-mid:none;marker-end:none" />
      <path
         sodipodi:nodetypes="csccsssccscsssssscssssccccccsssssccc"
         inkscape:connector-curvature="0"
         id="path1096"
         d="m 165.19584,114.26861 c 0,0 0.67851,1.76412 0.67851,3.79964 0,2.03552 -6.78507,5.02095 -7.59928,5.69945 -0.81421,0.67851 -4.20674,4.88525 -4.47814,6.10657 -0.27141,1.22131 1.76411,3.66393 2.17122,6.10656 0.4071,2.44262 1.49271,6.64936 1.49271,8.82058 0,2.17122 -1.22131,4.74955 -2.17122,5.56376 -0.94991,0.81421 1.08561,1.35701 1.62842,1.62841 0.5428,0.27141 4.47814,-3.25683 4.47814,-3.25683 0,0 2.03552,-3.52823 2.03552,-4.34244 0,-0.81421 -2.30692,-1.62842 -2.30692,-1.62842 0,0 -0.2714,-3.52823 -0.1357,-5.83515 0.1357,-2.30693 -1.89982,-4.74955 -2.30693,-6.10657 -0.4071,-1.35701 2.03552,-1.35701 3.66394,-2.44262 1.62842,-1.08561 4.34244,-4.07104 6.92077,-4.47814 2.57832,-0.40711 6.51366,-2.03552 7.46357,-5.42806 0.94991,-3.39253 -0.2714,-11.12751 -1.08561,-13.84153 -0.81421,-2.71403 -2.57832,-6.242265 -4.61384,-8.142083 0,0 -1.22132,0.542805 -1.22132,-0.949909 0,-1.492715 0.37791,-3.592541 0.37791,-4.949555 0,-1.357013 -2.24837,-2.85247 -3.49904,-2.885342 -1.90724,-0.05013 -3.97995,1.14056 -4.07104,2.521446 -0.18566,2.814621 -0.73528,3.69235 -0.73528,3.69235 l 0.86899,0.5901 -0.26941,2.116611 0.1357,0.678507 2.57833,0.678507 0.81421,0.678506 c 0,0 -0.27141,-0.407104 -1.08562,0.814208 -0.8142,1.221314 -0.5428,6.920764 -0.9499,7.463574 -0.40711,0.54281 -1.76412,4.47814 -2.03552,5.69946 -0.27141,1.22131 -0.40711,4.61384 -0.81421,5.15665 -0.40711,0.5428 -1.62842,2.98543 -2.17122,2.98543 -0.54281,0 -2.71403,1.62841 -2.71403,1.62841 h 1.49271 l -0.2714,1.22132"
         style="opacity:1;vector-effect:none;fill:none;fill-opacity:1;stroke:#000000;stroke-width:0.37059367;stroke-linecap:butt;stroke-linejoin:miter;stroke-miterlimit:4;stroke-dasharray:none;stroke-dashoffset:0;stroke-opacity:1;marker:none;marker-start:none;marker-mid:none;marker-end:none" />
      <path
         inkscape:connector-curvature="0"
         id="path1272"
         d="m 156.89886,125.55534 -1.4512,2.02493 1.88994,2.26119 1.95744,-0.27 2.76741,-1.28246 v -2.53117 z"
         style="opacity:1;vector-effect:none;fill:#ffffff;fill-opacity:1;stroke:none;stroke-width:0.37059367;stroke-linecap:butt;stroke-linejoin:miter;stroke-miterlimit:4;stroke-dasharray:none;stroke-dashoffset:0;stroke-opacity:1;marker:none;marker-start:none;marker-mid:none;marker-end:none" />
    </g>
    <g
       id="g850"
       transform="translate(0,31.152698)">
      <g
         id="g1285">
        <g
           id="g1254"
           transform="rotate(12.664604,105.43933,1374.7596)">
          <path
             sodipodi:nodetypes="csccccsccsscccccssscsccsc"
             inkscape:connector-curvature="0"
             id="path1242"
             d="m -169.43933,91.08016 c 4.9329,2.52381 6.42424,4.015153 7.34199,2.52381 0.91775,-1.491342 1.95022,-2.638528 2.17965,-3.556275 0.22944,-0.917749 0.22944,-3.670996 0.45888,-4.12987 0.22943,-0.458873 0.91775,-3.441557 0.91775,-3.441557 l 0.57359,-0.573593 c 0,0 1.2619,1.147185 1.2619,0.573593 0,-0.573593 -1.83549,-1.950215 -1.83549,-1.950215 l -2.63853,-0.114718 c 0,0 -0.5736,0.688311 -0.5736,1.261904 0,0.573592 -0.11471,4.01515 -0.22943,4.588742 -0.11472,0.573593 -1.60606,3.212121 -1.60606,3.212121 l -3.0974,-2.064935 -2.29437,-2.294371 -2.63853,-1.376622 1.46636,-1.653719 c 0,0 -0.3918,-2.047953 -0.48612,-3.280322 -0.11211,-1.464831 -2.5863,-4.472883 -4.99539,-4.128727 -2.40909,0.344155 -3.0974,2.179654 -3.0974,3.441557 0,1.261904 1.37662,2.638526 1.60606,3.556276 0.22943,0.917749 0.45887,1.950214 -0.22944,2.409089 -0.68831,0.458875 -3.90043,1.835497 -3.90043,1.835497 l -1.60606,-0.114718 c 0,0 1.72078,-2.982683 1.60606,-4.129868 -0.11472,-1.147186 1.95021,-3.097401 1.95021,-3.097401"
             style="opacity:1;vector-effect:none;fill:none;fill-opacity:1;stroke:#000000;stroke-width:0.37059367;stroke-linecap:butt;stroke-linejoin:miter;stroke-miterlimit:4;stroke-dasharray:none;stroke-dashoffset:0;stroke-opacity:1;marker:none;marker-start:none;marker-mid:none;marker-end:none" />
          <path
             sodipodi:nodetypes="ccscccccccccssccccccc"
             inkscape:connector-curvature="0"
             id="path1244"
             d="m -178.15794,74.33125 -1.72078,-0.573593 c 0,0 -1.95022,1.720778 -1.95022,2.294371 0,0.573593 -1.83549,4.818182 -1.83549,4.818182 0,0 -2.75325,3.785711 -2.86797,4.932897 -0.11471,1.147185 -1.03246,1.147185 -0.57359,2.179653 0.45888,1.032468 2.98268,2.179653 3.55628,2.409089 0.57359,0.229439 3.21212,0.688311 3.21212,0.688311 l 0.91774,3.212121 c 0,0 1.49135,8.718609 1.37663,9.292199 -0.11472,0.5736 1.03247,6.19481 1.14718,6.7684 0.11472,0.57359 1.95022,2.63853 1.14719,5.27705 -0.80303,2.63853 1.60606,7.57143 1.60606,9.17749 0,1.60606 -1.03247,4.9329 -1.03247,7.34199 0,2.40909 0.5714,2.53159 2.40909,9.75108 0,0 -0.25897,1.26989 0.1999,1.38461 0.45888,0.11472 7.94855,-2.42265 7.26024,-3.68455 -0.68832,-1.26191 -3.21555,-0.45331 -3.67442,-0.79746 -0.45888,-0.34416 -1.03247,-1.8355 -1.37663,-4.81818 -0.34415,-2.98269 -0.34415,-5.73593 0.68831,-7.57143 1.03247,-1.8355 1.14719,-9.40692 1.14719,-9.40692"
             style="opacity:1;vector-effect:none;fill:none;fill-opacity:1;stroke:#000000;stroke-width:0.37059367;stroke-linecap:butt;stroke-linejoin:miter;stroke-miterlimit:4;stroke-dasharray:none;stroke-dashoffset:0;stroke-opacity:1;marker:none;marker-start:none;marker-mid:none;marker-end:none" />
          <path
             inkscape:connector-curvature="0"
             id="path1246"
             d="m -171.16011,111.84422 c 2.52381,2.75325 8.6039,8.37446 8.6039,8.37446 l 2.17965,0.45887"
             style="opacity:1;vector-effect:none;fill:none;fill-opacity:1;stroke:#000000;stroke-width:0.37059367;stroke-linecap:butt;stroke-linejoin:miter;stroke-miterlimit:4;stroke-dasharray:none;stroke-dashoffset:0;stroke-opacity:1;marker:none;marker-start:none;marker-mid:none;marker-end:none" />
          <path
             inkscape:connector-curvature="0"
             id="path1248"
             d="m -160.83544,121.5953 c -0.45887,1.95022 -0.57359,3.55628 -1.49134,5.27706 -0.91775,1.72077 -3.44156,4.24458 -3.55627,5.96536 -0.11472,1.72078 0.34415,4.01515 1.37662,4.81818 1.03247,0.80303 1.2619,2.29437 2.75324,2.40909 1.49135,0.11472 2.17966,1.2619 1.72078,-1.03247 -0.45887,-2.29437 -1.60606,-5.85064 -1.14718,-6.88311 0.45887,-1.03247 5.62121,-8.25974 5.96536,-8.83333 0.34416,-0.57359 2.52381,-1.14719 1.8355,-2.98268 -0.68831,-1.8355 -2.52381,-3.78572 -3.78571,-5.39178 -1.26191,-1.60606 -1.95022,-3.55627 -2.86797,-4.81818 -0.91774,-1.2619 -5.50649,-5.16233 -5.50649,-5.16233 l -1.60606,-11.242422"
             style="opacity:1;vector-effect:none;fill:none;fill-opacity:1;stroke:#000000;stroke-width:0.37059367;stroke-linecap:butt;stroke-linejoin:miter;stroke-miterlimit:4;stroke-dasharray:none;stroke-dashoffset:0;stroke-opacity:1;marker:none;marker-start:none;marker-mid:none;marker-end:none" />
        </g>
        <path
           style="opacity:1;vector-effect:none;fill:none;fill-opacity:1;stroke:#000000;stroke-width:1.76388884;stroke-linecap:butt;stroke-linejoin:miter;stroke-miterlimit:4;stroke-dasharray:none;stroke-dashoffset:0;stroke-opacity:1;marker:none;marker-start:none;marker-mid:none;marker-end:none"
           d="m 126.54151,57.700957 c -1.69475,-2.711603 -5.76215,-5.649174 -5.76215,-5.649174"
           id="path1258"
           inkscape:connector-curvature="0" />
      </g>
      <path
         inkscape:connector-curvature="0"
         id="path840"
         d="m 104.53722,108.02652 -0.0611,2.47444 -0.18329,1.55798 3.23815,-0.18329 1.03865,-0.2444 -0.76372,-2.47443 z"
         style="opacity:1;vector-effect:none;fill:#ffffff;fill-opacity:1;stroke:none;stroke-width:0.37059367;stroke-linecap:butt;stroke-linejoin:miter;stroke-miterlimit:4;stroke-dasharray:none;stroke-dashoffset:0;stroke-opacity:1;marker:none;marker-start:none;marker-mid:none;marker-end:none" />
    </g>
    <ellipse
       style="opacity:1;vector-effect:none;fill:none;fill-opacity:1;fill-rule:evenodd;stroke:#000000;stroke-width:0.70555556;stroke-linecap:butt;stroke-linejoin:miter;stroke-miterlimit:4;stroke-dasharray:none;stroke-dashoffset:0;stroke-opacity:1"
       id="path835"
       cx="84.037758"
       cy="184.83641"
       rx="1.3097889"
       ry="0.84502524" />
    <path
       style="opacity:1;vector-effect:none;fill:none;fill-opacity:1;stroke:#000000;stroke-width:0.37059367;stroke-linecap:butt;stroke-linejoin:miter;stroke-miterlimit:4;stroke-dasharray:none;stroke-dashoffset:0;stroke-opacity:1;marker:none;marker-start:none;marker-mid:none;marker-end:none"
       d="m 84.587023,185.68145 c 2.281569,3.4646 6.844702,5.32366 7.267215,4.73214 0.422514,-0.59152 0.0845,-0.33801 -1.183034,-1.01403 -1.267539,-0.67602 -6.084181,-4.73214 -6.084181,-4.73214 z"
       id="path837"
       inkscape:connector-curvature="0" />
    <path
       style="opacity:1;vector-effect:none;fill:none;fill-opacity:1;stroke:#676767;stroke-width:1.05833328;stroke-linecap:butt;stroke-linejoin:miter;stroke-miterlimit:4;stroke-dasharray:none;stroke-dashoffset:0;stroke-opacity:1;marker:none;marker-start:none;marker-mid:none;marker-end:none"
       d="M 91.779541,190.24438 C 77.677995,218.20846 14.101544,261.46912 14.101544,261.46912"
       id="path839"
       inkscape:connector-curvature="0"
       sodipodi:nodetypes="cc" />
    <g
       id="g988"
       transform="translate(127.43321,-88.059022)">
      <path
         inkscape:connector-curvature="0"
         id="path904"
         d="m -10.276872,145.48954 c -1.541531,1.76175 -2.422406,2.86284 -2.422406,3.81712 0,0.95429 -0.954281,3.30328 -1.908562,4.33097 -0.95428,1.02769 -2.275593,1.98197 -2.275593,1.98197"
         style="opacity:1;vector-effect:none;fill:none;fill-opacity:1;stroke:#000000;stroke-width:0.37099999;stroke-linecap:butt;stroke-linejoin:miter;stroke-miterlimit:4;stroke-dasharray:none;stroke-dashoffset:0;stroke-opacity:1;marker:none;marker-start:none;marker-mid:none;marker-end:none" />
      <path
         inkscape:connector-curvature="0"
         id="path906"
         d="m -11.010934,139.76385 c 3.6703111,0.0734 5.3586543,0.58725 6.0927167,1.24791 0.7340621,0.66066 0.8074684,1.54153 0.4404373,3.22987 -0.367031,1.68835 -4.0373426,7.12041 -4.0373426,7.48744 0,0.36703 -4.4777804,6.01931 -4.4777804,6.01931"
         style="opacity:1;vector-effect:none;fill:none;fill-opacity:1;stroke:#000000;stroke-width:0.37099999;stroke-linecap:butt;stroke-linejoin:miter;stroke-miterlimit:4;stroke-dasharray:none;stroke-dashoffset:0;stroke-opacity:1;marker:none;marker-start:none;marker-mid:none;marker-end:none" />
      <path
         inkscape:connector-curvature="0"
         id="path908"
         d="m -19.819682,143.06713 c -0.293625,0.66066 -2.862843,2.78944 -2.862843,2.78944 v 0"
         style="opacity:1;vector-effect:none;fill:none;fill-opacity:1;stroke:#000000;stroke-width:0.37099999;stroke-linecap:butt;stroke-linejoin:miter;stroke-miterlimit:4;stroke-dasharray:none;stroke-dashoffset:0;stroke-opacity:1;marker:none;marker-start:none;marker-mid:none;marker-end:none" />
      <path
         inkscape:connector-curvature="0"
         id="path910"
         d="m -24.444274,143.8746 c 1.614937,2.20219 1.761749,3.45009 1.981968,4.698 0.220219,1.24791 0.146812,1.61494 1.101093,3.45009 0.954281,1.83516 1.76175,3.37669 1.76175,3.37669"
         style="opacity:1;vector-effect:none;fill:none;fill-opacity:1;stroke:#000000;stroke-width:0.37099999;stroke-linecap:butt;stroke-linejoin:miter;stroke-miterlimit:4;stroke-dasharray:none;stroke-dashoffset:0;stroke-opacity:1;marker:none;marker-start:none;marker-mid:none;marker-end:none" />
      <path
         inkscape:connector-curvature="0"
         id="path912"
         d="m -21.434619,160.3176 c -1.101093,-2.78944 -1.394718,-3.96394 -1.468124,-4.40437 -0.07341,-0.44044 -2.349,-3.00966 -2.862843,-4.55119 -0.513844,-1.54153 -3.743718,-4.33097 -3.89053,-5.72569 -0.146812,-1.39472 0.293624,-1.98197 0.220218,-3.00965 -0.07341,-1.02769 -0.880875,-2.56922 0.146812,-3.37669 1.027689,-0.80747 3.376687,-1.39472 3.376687,-1.39472"
         style="opacity:1;vector-effect:none;fill:none;fill-opacity:1;stroke:#000000;stroke-width:0.37099999;stroke-linecap:butt;stroke-linejoin:miter;stroke-miterlimit:4;stroke-dasharray:none;stroke-dashoffset:0;stroke-opacity:1;marker:none;marker-start:none;marker-mid:none;marker-end:none" />
      <path
         inkscape:connector-curvature="0"
         id="path914"
         d="m -27.747555,126.1837 c -0.660657,2.42241 -0.807469,3.74372 -0.734063,4.99162 0.07341,1.24791 -0.36703,3.74372 0.220221,4.698 0.587248,0.95428 4.25756,2.71603 4.624591,3.00966 0.367032,0.29362 2.055375,2.12878 2.495812,2.27559 0.440437,0.14681 2.275593,0.66066 2.569218,0.36703 0.293625,-0.29362 0.807469,-1.32131 0.807469,-1.32131"
         style="opacity:1;vector-effect:none;fill:none;fill-opacity:1;stroke:#000000;stroke-width:0.37099999;stroke-linecap:butt;stroke-linejoin:miter;stroke-miterlimit:4;stroke-dasharray:none;stroke-dashoffset:0;stroke-opacity:1;marker:none;marker-start:none;marker-mid:none;marker-end:none" />
      <path
         inkscape:connector-curvature="0"
         id="path916"
         d="m -24.664493,130.66148 c -0.146812,0.51384 -0.954281,2.49581 -0.954281,2.49581 l 1.027687,1.54153 c 0,0 1.027687,1.46813 1.835156,1.83516 0.807468,0.36703 3.083062,0.73406 3.083062,0.73406 l 2.055374,1.68835 -0.660656,0.58724"
         style="opacity:1;vector-effect:none;fill:none;fill-opacity:1;stroke:#000000;stroke-width:0.37099999;stroke-linecap:butt;stroke-linejoin:miter;stroke-miterlimit:4;stroke-dasharray:none;stroke-dashoffset:0;stroke-opacity:1;marker:none;marker-start:none;marker-mid:none;marker-end:none" />
      <path
         inkscape:connector-curvature="0"
         id="path918"
         d="m -12.992903,131.02851 c 0.220219,0.88088 0.220219,2.78944 0,3.37669 -0.220218,0.58725 -2.12878,1.61494 -2.12878,1.61494 l 0.954281,0.51384 v 0"
         style="opacity:1;vector-effect:none;fill:none;fill-opacity:1;stroke:#000000;stroke-width:0.37099999;stroke-linecap:butt;stroke-linejoin:miter;stroke-miterlimit:4;stroke-dasharray:none;stroke-dashoffset:0;stroke-opacity:1;marker:none;marker-start:none;marker-mid:none;marker-end:none" />
      <path
         inkscape:connector-curvature="0"
         id="path920"
         d="m -15.048277,136.7542 c 0,0 -0.440437,0.73406 -0.146812,1.2479 0.293625,0.51385 1.027687,1.68835 1.54153,1.1011 0.513844,-0.58725 1.247906,-2.05538 1.247906,-2.05538 0,0 0.220219,-0.58725 0.660656,-0.95428 0.440438,-0.36703 1.394719,-0.58725 1.394719,-1.90856 0,-1.32131 -0.220219,-5.50547 -0.220219,-5.50547"
         style="opacity:1;vector-effect:none;fill:none;fill-opacity:1;stroke:#000000;stroke-width:0.37099999;stroke-linecap:butt;stroke-linejoin:miter;stroke-miterlimit:4;stroke-dasharray:none;stroke-dashoffset:0;stroke-opacity:1;marker:none;marker-start:none;marker-mid:none;marker-end:none" />
    </g>
    <path
       style="opacity:1;vector-effect:none;fill:#ffffff;fill-opacity:1;stroke:none;stroke-width:0.37059367;stroke-linecap:butt;stroke-linejoin:miter;stroke-miterlimit:4;stroke-dasharray:none;stroke-dashoffset:0;stroke-opacity:1;marker:none;marker-start:none;marker-mid:none;marker-end:none"
       d="m 78.963191,52.977942 4.120973,3.323367 3.057498,-0.132935 0.930542,-3.057497 z"
       id="path990"
       inkscape:connector-curvature="0" />
    <text
       xml:space="preserve"
       style="font-style:normal;font-variant:normal;font-weight:bold;font-stretch:normal;font-size:3.17499995px;line-height:100%;font-family:'Liberation Sans';-inkscape-font-specification:'Liberation Sans Bold';font-variant-ligatures:normal;font-variant-position:normal;font-variant-caps:normal;font-variant-numeric:normal;font-variant-alternates:normal;font-feature-settings:normal;text-indent:0;text-align:start;text-decoration:none;text-decoration-line:none;text-decoration-style:solid;text-decoration-color:#000000;letter-spacing:0px;word-spacing:0px;text-transform:none;writing-mode:lr-tb;direction:ltr;text-orientation:mixed;dominant-baseline:auto;baseline-shift:baseline;text-anchor:start;white-space:normal;shape-padding:0;opacity:1;vector-effect:none;fill:#000000;fill-opacity:1;stroke:none;stroke-width:0.28222221px;stroke-linecap:butt;stroke-linejoin:miter;stroke-miterlimit:4;stroke-dasharray:none;stroke-dashoffset:0;stroke-opacity:1"
       x="37.517117"
       y="82.881699"
       id="text852"><tspan
         sodipodi:role="line"
         id="tspan850"
         x="37.517117"
         y="82.881699"
         style="stroke-width:0.28222221px">Don't route the rope</tspan><tspan
         sodipodi:role="line"
         x="37.517117"
         y="86.056702"
         style="stroke-width:0.28222221px"
         id="tspan854">over this overhang. The</tspan><tspan
         sodipodi:role="line"
         x="37.517117"
         y="89.231697"
         style="stroke-width:0.28222221px"
         id="tspan856">follower gets tugged off the</tspan><tspan
         sodipodi:role="line"
         x="37.517117"
         y="92.4067"
         style="stroke-width:0.28222221px"
         id="tspan858">wall, is exposed to a crushing</tspan><tspan
         sodipodi:role="line"
         x="37.517117"
         y="95.581696"
         style="stroke-width:0.28222221px"
         id="tspan860">pendulum swing, and can</tspan><tspan
         sodipodi:role="line"
         x="37.517117"
         y="98.756699"
         style="stroke-width:0.28222221px"
         id="tspan862">get left hanging in space.</tspan><tspan
         sodipodi:role="line"
         x="37.517117"
         y="101.9317"
         style="stroke-width:0.28222221px"
         id="tspan895">Prusiking over the lip is</tspan><tspan
         sodipodi:role="line"
         x="37.517117"
         y="105.1067"
         style="stroke-width:0.28222221px"
         id="tspan897">hard if they can't unweight</tspan><tspan
         sodipodi:role="line"
         x="37.517117"
         y="108.2817"
         style="stroke-width:0.28222221px"
         id="tspan903">the rope.</tspan></text>
    <text
       xml:space="preserve"
       style="font-style:normal;font-variant:normal;font-weight:bold;font-stretch:normal;font-size:3.17499995px;line-height:100%;font-family:'Liberation Sans';-inkscape-font-specification:'Liberation Sans Bold';font-variant-ligatures:normal;font-variant-position:normal;font-variant-caps:normal;font-variant-numeric:normal;font-variant-alternates:normal;font-feature-settings:normal;text-indent:0;text-align:start;text-decoration:none;text-decoration-line:none;text-decoration-style:solid;text-decoration-color:#000000;letter-spacing:0px;word-spacing:0px;text-transform:none;writing-mode:lr-tb;direction:ltr;text-orientation:mixed;dominant-baseline:auto;baseline-shift:baseline;text-anchor:start;white-space:normal;shape-padding:0;opacity:1;vector-effect:none;fill:#000000;fill-opacity:1;stroke:none;stroke-width:0.28222221px;stroke-linecap:butt;stroke-linejoin:miter;stroke-miterlimit:4;stroke-dasharray:none;stroke-dashoffset:0;stroke-opacity:1"
       x="122.10116"
       y="43.02261"
       id="text866"><tspan
         sodipodi:role="line"
         x="122.10116"
         y="43.02261"
         style="stroke-width:0.28222221px"
         id="tspan868">Belay here, not higher up. Route the rope</tspan><tspan
         sodipodi:role="line"
         x="122.10116"
         y="46.197609"
         style="stroke-width:0.28222221px"
         id="tspan872">here so the follower is protected. The</tspan><tspan
         sodipodi:role="line"
         x="122.10116"
         y="49.372608"
         style="stroke-width:0.28222221px"
         id="tspan874">follower couldn't see you climbing and</tspan><tspan
         sodipodi:role="line"
         x="122.10116"
         y="52.547607"
         style="stroke-width:0.28222221px"
         id="tspan876">doesn't know where the route goes.</tspan></text>
    <path
       style="opacity:1;vector-effect:none;fill:#ffffff;fill-opacity:1;stroke:none;stroke-width:0.37059367;stroke-linecap:butt;stroke-linejoin:miter;stroke-miterlimit:4;stroke-dasharray:none;stroke-dashoffset:0;stroke-opacity:1;marker:none;marker-start:none;marker-mid:none;marker-end:none"
       d="m 125.92005,170.75263 2.6678,0.0254 -0.76223,6.98709 -1.39742,3.02351 -3.12513,0.0254 z"
       id="path894"
       inkscape:connector-curvature="0" />
    <text
       xml:space="preserve"
       style="font-style:normal;font-variant:normal;font-weight:bold;font-stretch:normal;font-size:3.17499995px;line-height:100%;font-family:'Liberation Sans';-inkscape-font-specification:'Liberation Sans Bold';font-variant-ligatures:normal;font-variant-position:normal;font-variant-caps:normal;font-variant-numeric:normal;font-variant-alternates:normal;font-feature-settings:normal;text-indent:0;text-align:start;text-decoration:none;text-decoration-line:none;text-decoration-style:solid;text-decoration-color:#000000;letter-spacing:0px;word-spacing:0px;text-transform:none;writing-mode:lr-tb;direction:ltr;text-orientation:mixed;dominant-baseline:auto;baseline-shift:baseline;text-anchor:start;white-space:normal;shape-padding:0;opacity:1;vector-effect:none;fill:#000000;fill-opacity:1;stroke:none;stroke-width:0.28222221px;stroke-linecap:butt;stroke-linejoin:miter;stroke-miterlimit:4;stroke-dasharray:none;stroke-dashoffset:0;stroke-opacity:1"
       x="123.50056"
       y="173.25154"
       id="text880"><tspan
         sodipodi:role="line"
         x="123.50056"
         y="173.25154"
         style="stroke-width:0.28222221px"
         id="tspan884">The crux is to get</tspan><tspan
         sodipodi:role="line"
         x="123.50056"
         y="176.42654"
         style="stroke-width:0.28222221px"
         id="tspan890">a hand on the</tspan><tspan
         sodipodi:role="line"
         x="123.50056"
         y="179.60155"
         style="stroke-width:0.28222221px"
         id="tspan892">good hold.</tspan></text>
    <g
       id="g902"
       transform="translate(0,31.152698)">
      <g
         id="g838">
        <path
           style="opacity:1;vector-effect:none;fill:none;fill-opacity:1;stroke:#000000;stroke-width:0.37059367;stroke-linecap:butt;stroke-linejoin:miter;stroke-miterlimit:4;stroke-dasharray:none;stroke-dashoffset:0;stroke-opacity:1;marker:none;marker-start:none;marker-mid:none;marker-end:none"
           d="m 124.12632,134.02738 c 3.80975,0.0466 14.28039,-4.06527 15.55767,-4.96736 1.27728,-0.90209 4.48276,-3.68573 4.48276,-3.68573 l 0.98866,-1.99761 1.67029,0.20632 c 0,0 0.8892,1.38168 -0.3623,2.07498 -1.25149,0.69331 -4.31265,4.0247 -5.27675,4.96547 -0.9641,0.94078 -9.64715,5.16753 -10.96435,5.53476 -1.31719,0.36722 -3.58807,-0.12526 -5.18772,3.38667 -1.59966,3.51192 -6.58039,14.66116 -4.42436,16.94123 2.15605,2.28006 8.54188,6.35444 8.50443,7.51566 -0.0375,1.16122 -5.18953,11.12345 -4.73081,12.55794 0.45873,1.43449 6.09845,3.82691 4.2992,4.66452 -1.79925,0.83762 -10.39573,1.78948 -9.86334,0.0535 0.5324,-1.73601 2.05468,-4.62156 2.44401,-6.05729 0.38931,-1.43572 0.0338,-3.70535 1.02241,-5.70295 0.98866,-1.99761 1.90117,-2.52081 1.75686,-3.06856 -0.14431,-0.54776 -9.58334,-4.78732 -9.94933,-5.25647 -0.366,-0.46915 -0.86217,-0.74242 -2.87021,0.0694 -2.00803,0.81182 -2.29788,-1.13173 -3.98904,2.2629 -1.69116,3.39464 -5.24973,5.60473 -5.45728,6.42697 -0.20756,0.82226 -1.49527,3.52482 -3.007126,4.60992 -1.511857,1.08508 -4.558894,5.16012 -4.975234,5.95658 -0.416343,0.79647 -2.606141,2.22176 -2.999156,1.11334 -0.393015,-1.10841 -3.408766,-2.4348 -4.076276,-3.89508 -0.667512,-1.46027 -1.53338,-4.74682 -0.03196,-4.03142 1.50143,0.71539 1.07096,0.7682 4.059686,1.45534 2.988725,0.68714 3.467076,-2.32738 4.574254,-3.56844 1.107178,-1.24106 1.746434,-1.26808 2.760881,-3.47447 1.014448,-2.20639 2.433571,-4.2568 3.227571,-5.53655 0.79399,-1.27974 3.13607,-5.65384 4.11306,-6.69901 0.977,-1.04517 1.9245,-4.42568 2.36663,-5.43092 0.44213,-1.00525 1.78513,-1.58126 2.20023,-3.22577 0.41511,-1.64451 0.7958,-9.01652 0.7958,-9.01652 0,0 -3.18462,-0.81733 -5.02501,-1.36262 -1.8404,-0.54529 -5.17179,-3.60646 -5.17179,-3.60646 l -0.878767,-3.18216 c 0,0 0.989887,-1.14955 1.799247,-0.8376 0.80936,0.31194 1.12254,0.35063 1.16245,0.88549 0.0399,0.53487 0.66875,2.30832 0.66875,2.30832 0,0 0.56065,-0.2487 1.35712,0.16764 0.79645,0.41634 3.29023,1.67826 3.70781,1.72984 0.41758,0.0516 1.60336,-0.96779 3.06487,-0.78726 1.4615,0.18053 2.67555,0.64845 3.48366,0.11236 0.80813,-0.53611 1.31597,-1.21527 1.31597,-1.21527 0,0 -0.86003,-0.86141 -0.7581,-2.5446 0.10193,-1.6832 0.99613,-3.67257 1.56184,-4.1027 1.13287,-0.53733 4.09891,-0.38406 4.9353,0.56711 0.83638,0.95121 0.38239,1.40541 0.89185,2.14959 0.42189,0.92796 1.42529,2.18981 1.42529,2.18981 0,0 -0.33782,0.19962 -0.61108,0.69577 -0.27326,0.49617 -0.269,2.03738 -0.269,2.03738 l -0.96825,0.63966 z"
           id="path1075"
           inkscape:connector-curvature="0"
           sodipodi:nodetypes="cccccccccccssscscccccccsccssssccscscccccsssccccccccccc" />
        <path
           style="opacity:1;vector-effect:none;fill:#ffffff;fill-opacity:1;stroke:none;stroke-width:0.37059367;stroke-linecap:butt;stroke-linejoin:miter;stroke-miterlimit:4;stroke-dasharray:none;stroke-dashoffset:0;stroke-opacity:1;marker:none;marker-start:none;marker-mid:none;marker-end:none"
           d="m 86.286857,174.73335 4.632127,5.70937 1.454274,0.43089 2.100615,-1.56199 0.53862,-0.91565 4.739852,-6.89434 5.278475,-5.11688 -1.88517,-3.3933 -1.61586,0.0539 -3.070131,4.84757 -1.023376,2.15448 -1.184963,1.02338 -4.201234,4.90144 -2.693099,-0.48476 z"
           id="path834"
           inkscape:connector-curvature="0"
           sodipodi:nodetypes="ccccccccccccccc" />
      </g>
      <path
         inkscape:connector-curvature="0"
         id="path896"
         d="m 102.30388,129.7998 -1.06484,-0.45354 -0.23664,0.0394 0.18604,4.14764 1.43971,1.14272 0.77245,-1.29172 z"
         style="opacity:1;vector-effect:none;fill:#ffffff;fill-opacity:1;stroke:none;stroke-width:0.37059367;stroke-linecap:butt;stroke-linejoin:miter;stroke-miterlimit:4;stroke-dasharray:none;stroke-dashoffset:0;stroke-opacity:1;marker:none;marker-start:none;marker-mid:none;marker-end:none"
         sodipodi:nodetypes="ccccccc" />
    </g>
    <path
       style="opacity:1;vector-effect:none;fill:none;fill-opacity:1;stroke:#676767;stroke-width:1.05833328;stroke-linecap:butt;stroke-linejoin:miter;stroke-miterlimit:4;stroke-dasharray:none;stroke-dashoffset:0;stroke-opacity:1;marker:none;marker-start:none;marker-mid:none;marker-end:none"
       d="m 94.900344,50.951382 c 4.038314,-0.288451 10.095786,1.730705 10.095786,1.730705"
       id="path905"
       inkscape:connector-curvature="0" />
    <path
       style="opacity:1;vector-effect:none;fill:none;fill-opacity:1;stroke:#676767;stroke-width:1.05833328;stroke-linecap:butt;stroke-linejoin:miter;stroke-miterlimit:4;stroke-dasharray:none;stroke-dashoffset:0;stroke-opacity:1;marker:none;marker-start:none;marker-mid:none;marker-end:none"
       d="m 109.03444,50.662931 c 4.90366,-0.288451 3.17296,20.768465 3.17296,20.768465"
       id="path907"
       inkscape:connector-curvature="0" />
    <text
       xml:space="preserve"
       style="font-style:normal;font-variant:normal;font-weight:bold;font-stretch:normal;font-size:3.17499995px;line-height:100%;font-family:'Liberation Sans';-inkscape-font-specification:'Liberation Sans Bold';font-variant-ligatures:normal;font-variant-position:normal;font-variant-caps:normal;font-variant-numeric:normal;font-variant-alternates:normal;font-feature-settings:normal;text-indent:0;text-align:start;text-decoration:none;text-decoration-line:none;text-decoration-style:solid;text-decoration-color:#000000;letter-spacing:0px;word-spacing:0px;text-transform:none;writing-mode:lr-tb;direction:ltr;text-orientation:mixed;dominant-baseline:auto;baseline-shift:baseline;text-anchor:start;white-space:normal;shape-padding:0;opacity:1;vector-effect:none;fill:#000000;fill-opacity:1;stroke:none;stroke-width:0.28222221px;stroke-linecap:butt;stroke-linejoin:miter;stroke-miterlimit:4;stroke-dasharray:none;stroke-dashoffset:0;stroke-opacity:1"
       x="25.032143"
       y="143.69363"
       id="text911"><tspan
         sodipodi:role="line"
         id="tspan909"
         x="25.032143"
         y="143.69363"
         style="stroke-width:0.28222221px">Don't try to place pro over here. Placing</tspan><tspan
         sodipodi:role="line"
         x="25.032143"
         y="146.86864"
         style="stroke-width:0.28222221px"
         id="tspan910">it is a riskier move than just exiting the</tspan><tspan
         sodipodi:role="line"
         x="25.032143"
         y="150.04364"
         style="stroke-width:0.28222221px"
         id="tspan915">alcove, and it exposes the follower to a</tspan><tspan
         sodipodi:role="line"
         x="25.032143"
         y="153.21863"
         style="stroke-width:0.28222221px"
         id="tspan917">pendulum swing.</tspan></text>
    <text
       xml:space="preserve"
       style="font-style:normal;font-variant:normal;font-weight:bold;font-stretch:normal;font-size:7.76111126px;line-height:100%;font-family:'Liberation Sans';-inkscape-font-specification:'Liberation Sans Bold';font-variant-ligatures:normal;font-variant-position:normal;font-variant-caps:normal;font-variant-numeric:normal;font-variant-alternates:normal;font-feature-settings:normal;text-indent:0;text-align:start;text-decoration:none;text-decoration-line:none;text-decoration-style:solid;text-decoration-color:#000000;letter-spacing:0px;word-spacing:0px;text-transform:none;writing-mode:lr-tb;direction:ltr;text-orientation:mixed;dominant-baseline:auto;baseline-shift:baseline;text-anchor:start;white-space:normal;shape-padding:0;opacity:1;vector-effect:none;fill:#000000;fill-opacity:1;stroke:none;stroke-width:0.28222221px;stroke-linecap:butt;stroke-linejoin:miter;stroke-miterlimit:4;stroke-dasharray:none;stroke-dashoffset:0;stroke-opacity:1"
       x="17.307055"
       y="22.394741"
       id="text879"><tspan
         sodipodi:role="line"
         id="tspan877"
         x="17.307055"
         y="22.394741"
         style="font-size:7.76111126px;stroke-width:0.28222221px">How not to have an epic on Traitor Horn, and how</tspan><tspan
         sodipodi:role="line"
         x="17.307055"
         y="30.155851"
         style="font-size:7.76111126px;stroke-width:0.28222221px"
         id="tspan881">not to set your follower up for one either.</tspan></text>
    <text
       xml:space="preserve"
       style="font-style:normal;font-variant:normal;font-weight:normal;font-stretch:normal;font-size:3.17499995px;line-height:100%;font-family:'Liberation Sans';-inkscape-font-specification:'Liberation Sans';font-variant-ligatures:normal;font-variant-position:normal;font-variant-caps:normal;font-variant-numeric:normal;font-variant-alternates:normal;font-feature-settings:normal;text-indent:0;text-align:start;text-decoration:none;text-decoration-line:none;text-decoration-style:solid;text-decoration-color:#000000;letter-spacing:0px;word-spacing:0px;text-transform:none;writing-mode:lr-tb;direction:ltr;text-orientation:mixed;dominant-baseline:auto;baseline-shift:baseline;text-anchor:start;white-space:normal;shape-padding:0;opacity:1;vector-effect:none;fill:#000000;fill-opacity:1;stroke:none;stroke-width:0.28222221px;stroke-linecap:butt;stroke-linejoin:miter;stroke-miterlimit:4;stroke-dasharray:none;stroke-dashoffset:0;stroke-opacity:1;"
       x="31.447784"
       y="275.34256"
       id="text924"><tspan
         sodipodi:role="line"
         id="tspan922"
         x="31.447784"
         y="275.34256"
         style="stroke-width:0.28222221px;-inkscape-font-specification:'Liberation Sans';font-family:'Liberation Sans';font-weight:normal;font-style:normal;font-stretch:normal;font-variant:normal;">Ben Crowell, github.com/bcrowell/tahquitz</tspan></text>
  </g>
</svg>
